%TF.GenerationSoftware,KiCad,Pcbnew,(5.1.6)-1*%
%TF.CreationDate,2020-08-30T12:35:22-05:00*%
%TF.ProjectId,je03-pcb-guide,6a653033-2d70-4636-922d-67756964652e,rev?*%
%TF.SameCoordinates,Original*%
%TF.FileFunction,Soldermask,Top*%
%TF.FilePolarity,Negative*%
%FSLAX46Y46*%
G04 Gerber Fmt 4.6, Leading zero omitted, Abs format (unit mm)*
G04 Created by KiCad (PCBNEW (5.1.6)-1) date 2020-08-30 12:35:22*
%MOMM*%
%LPD*%
G01*
G04 APERTURE LIST*
%ADD10O,1.208000X2.316000*%
%ADD11C,0.750000*%
%ADD12C,1.850000*%
%ADD13C,2.350000*%
%ADD14C,4.087800*%
G04 APERTURE END LIST*
D10*
%TO.C,J1*%
X59182000Y-81153000D03*
X67832000Y-81153000D03*
X67832000Y-84533000D03*
X59182000Y-84533000D03*
D11*
X60532000Y-84163000D03*
X61382000Y-84163000D03*
X62232000Y-84163000D03*
X63082000Y-84163000D03*
X63932000Y-84163000D03*
X64782000Y-84163000D03*
X65632000Y-84163000D03*
X66482000Y-84163000D03*
X66482000Y-85513000D03*
X65632000Y-85513000D03*
X64782000Y-85513000D03*
X63932000Y-85513000D03*
X63082000Y-85513000D03*
X62232000Y-85513000D03*
X61382000Y-85513000D03*
X60532000Y-85513000D03*
%TD*%
D12*
%TO.C,MX3*%
X91757500Y-107950000D03*
X101917500Y-107950000D03*
D13*
X99337500Y-103950000D03*
D14*
X96837500Y-107950000D03*
G36*
G01*
X101432209Y-106284560D02*
X101432209Y-106284561D01*
G75*
G02*
X99772939Y-106194709I-784709J874561D01*
G01*
X98462937Y-104734709D01*
G75*
G02*
X98552789Y-103075439I874561J784709D01*
G01*
X98552789Y-103075439D01*
G75*
G02*
X100212059Y-103165291I784709J-874561D01*
G01*
X101522061Y-104625291D01*
G75*
G02*
X101432209Y-106284561I-874561J-784709D01*
G01*
G37*
D13*
X94297500Y-102870000D03*
G36*
G01*
X94418343Y-104622216D02*
X94418343Y-104622216D01*
G75*
G02*
X93165284Y-103530843I-80843J1172216D01*
G01*
X93125284Y-102950843D01*
G75*
G02*
X94216657Y-101697784I1172216J80843D01*
G01*
X94216657Y-101697784D01*
G75*
G02*
X95469716Y-102789157I80843J-1172216D01*
G01*
X95509716Y-103369157D01*
G75*
G02*
X94418343Y-104622216I-1172216J-80843D01*
G01*
G37*
%TD*%
D12*
%TO.C,MX4*%
X110807500Y-107950000D03*
X120967500Y-107950000D03*
D13*
X118387500Y-103950000D03*
D14*
X115887500Y-107950000D03*
G36*
G01*
X120482209Y-106284560D02*
X120482209Y-106284561D01*
G75*
G02*
X118822939Y-106194709I-784709J874561D01*
G01*
X117512937Y-104734709D01*
G75*
G02*
X117602789Y-103075439I874561J784709D01*
G01*
X117602789Y-103075439D01*
G75*
G02*
X119262059Y-103165291I784709J-874561D01*
G01*
X120572061Y-104625291D01*
G75*
G02*
X120482209Y-106284561I-874561J-784709D01*
G01*
G37*
D13*
X113347500Y-102870000D03*
G36*
G01*
X113468343Y-104622216D02*
X113468343Y-104622216D01*
G75*
G02*
X112215284Y-103530843I-80843J1172216D01*
G01*
X112175284Y-102950843D01*
G75*
G02*
X113266657Y-101697784I1172216J80843D01*
G01*
X113266657Y-101697784D01*
G75*
G02*
X114519716Y-102789157I80843J-1172216D01*
G01*
X114559716Y-103369157D01*
G75*
G02*
X113468343Y-104622216I-1172216J-80843D01*
G01*
G37*
%TD*%
D12*
%TO.C,MX2*%
X110807500Y-88900000D03*
X120967500Y-88900000D03*
D13*
X118387500Y-84900000D03*
D14*
X115887500Y-88900000D03*
G36*
G01*
X120482209Y-87234560D02*
X120482209Y-87234561D01*
G75*
G02*
X118822939Y-87144709I-784709J874561D01*
G01*
X117512937Y-85684709D01*
G75*
G02*
X117602789Y-84025439I874561J784709D01*
G01*
X117602789Y-84025439D01*
G75*
G02*
X119262059Y-84115291I784709J-874561D01*
G01*
X120572061Y-85575291D01*
G75*
G02*
X120482209Y-87234561I-874561J-784709D01*
G01*
G37*
D13*
X113347500Y-83820000D03*
G36*
G01*
X113468343Y-85572216D02*
X113468343Y-85572216D01*
G75*
G02*
X112215284Y-84480843I-80843J1172216D01*
G01*
X112175284Y-83900843D01*
G75*
G02*
X113266657Y-82647784I1172216J80843D01*
G01*
X113266657Y-82647784D01*
G75*
G02*
X114519716Y-83739157I80843J-1172216D01*
G01*
X114559716Y-84319157D01*
G75*
G02*
X113468343Y-85572216I-1172216J-80843D01*
G01*
G37*
%TD*%
D12*
%TO.C,MX1*%
X91757500Y-88900000D03*
X101917500Y-88900000D03*
D13*
X99337500Y-84900000D03*
D14*
X96837500Y-88900000D03*
G36*
G01*
X101432209Y-87234560D02*
X101432209Y-87234561D01*
G75*
G02*
X99772939Y-87144709I-784709J874561D01*
G01*
X98462937Y-85684709D01*
G75*
G02*
X98552789Y-84025439I874561J784709D01*
G01*
X98552789Y-84025439D01*
G75*
G02*
X100212059Y-84115291I784709J-874561D01*
G01*
X101522061Y-85575291D01*
G75*
G02*
X101432209Y-87234561I-874561J-784709D01*
G01*
G37*
D13*
X94297500Y-83820000D03*
G36*
G01*
X94418343Y-85572216D02*
X94418343Y-85572216D01*
G75*
G02*
X93165284Y-84480843I-80843J1172216D01*
G01*
X93125284Y-83900843D01*
G75*
G02*
X94216657Y-82647784I1172216J80843D01*
G01*
X94216657Y-82647784D01*
G75*
G02*
X95469716Y-83739157I80843J-1172216D01*
G01*
X95509716Y-84319157D01*
G75*
G02*
X94418343Y-85572216I-1172216J-80843D01*
G01*
G37*
%TD*%
M02*
