%TF.GenerationSoftware,KiCad,Pcbnew,(5.1.6)-1*%
%TF.CreationDate,2020-08-30T12:35:22-05:00*%
%TF.ProjectId,je03-pcb-guide,6a653033-2d70-4636-922d-67756964652e,rev?*%
%TF.SameCoordinates,Original*%
%TF.FileFunction,Legend,Top*%
%TF.FilePolarity,Positive*%
%FSLAX46Y46*%
G04 Gerber Fmt 4.6, Leading zero omitted, Abs format (unit mm)*
G04 Created by KiCad (PCBNEW (5.1.6)-1) date 2020-08-30 12:35:22*
%MOMM*%
%LPD*%
G01*
G04 APERTURE LIST*
%ADD10C,0.250000*%
G04 APERTURE END LIST*
D10*
X107950952Y-114720714D02*
X107950952Y-115577857D01*
X107903333Y-115673095D01*
X107808095Y-115720714D01*
X107760476Y-115720714D01*
X107950952Y-114387380D02*
X107903333Y-114435000D01*
X107950952Y-114482619D01*
X107998571Y-114435000D01*
X107950952Y-114387380D01*
X107950952Y-114482619D01*
X108808095Y-115339761D02*
X108712857Y-115387380D01*
X108522380Y-115387380D01*
X108427142Y-115339761D01*
X108379523Y-115244523D01*
X108379523Y-114863571D01*
X108427142Y-114768333D01*
X108522380Y-114720714D01*
X108712857Y-114720714D01*
X108808095Y-114768333D01*
X108855714Y-114863571D01*
X108855714Y-114958809D01*
X108379523Y-115054047D01*
X109474761Y-114387380D02*
X109570000Y-114387380D01*
X109665238Y-114435000D01*
X109712857Y-114482619D01*
X109760476Y-114577857D01*
X109808095Y-114768333D01*
X109808095Y-115006428D01*
X109760476Y-115196904D01*
X109712857Y-115292142D01*
X109665238Y-115339761D01*
X109570000Y-115387380D01*
X109474761Y-115387380D01*
X109379523Y-115339761D01*
X109331904Y-115292142D01*
X109284285Y-115196904D01*
X109236666Y-115006428D01*
X109236666Y-114768333D01*
X109284285Y-114577857D01*
X109331904Y-114482619D01*
X109379523Y-114435000D01*
X109474761Y-114387380D01*
X110141428Y-114387380D02*
X110760476Y-114387380D01*
X110427142Y-114768333D01*
X110570000Y-114768333D01*
X110665238Y-114815952D01*
X110712857Y-114863571D01*
X110760476Y-114958809D01*
X110760476Y-115196904D01*
X110712857Y-115292142D01*
X110665238Y-115339761D01*
X110570000Y-115387380D01*
X110284285Y-115387380D01*
X110189047Y-115339761D01*
X110141428Y-115292142D01*
X111189047Y-115006428D02*
X111950952Y-115006428D01*
X112427142Y-114720714D02*
X112427142Y-115720714D01*
X112427142Y-114768333D02*
X112522380Y-114720714D01*
X112712857Y-114720714D01*
X112808095Y-114768333D01*
X112855714Y-114815952D01*
X112903333Y-114911190D01*
X112903333Y-115196904D01*
X112855714Y-115292142D01*
X112808095Y-115339761D01*
X112712857Y-115387380D01*
X112522380Y-115387380D01*
X112427142Y-115339761D01*
X113760476Y-115339761D02*
X113665238Y-115387380D01*
X113474761Y-115387380D01*
X113379523Y-115339761D01*
X113331904Y-115292142D01*
X113284285Y-115196904D01*
X113284285Y-114911190D01*
X113331904Y-114815952D01*
X113379523Y-114768333D01*
X113474761Y-114720714D01*
X113665238Y-114720714D01*
X113760476Y-114768333D01*
X114189047Y-115387380D02*
X114189047Y-114387380D01*
X114189047Y-114768333D02*
X114284285Y-114720714D01*
X114474761Y-114720714D01*
X114570000Y-114768333D01*
X114617619Y-114815952D01*
X114665238Y-114911190D01*
X114665238Y-115196904D01*
X114617619Y-115292142D01*
X114570000Y-115339761D01*
X114474761Y-115387380D01*
X114284285Y-115387380D01*
X114189047Y-115339761D01*
X115093809Y-115006428D02*
X115855714Y-115006428D01*
X116331904Y-115387380D02*
X116331904Y-114720714D01*
X116331904Y-114815952D02*
X116379523Y-114768333D01*
X116474761Y-114720714D01*
X116617619Y-114720714D01*
X116712857Y-114768333D01*
X116760476Y-114863571D01*
X116760476Y-115387380D01*
X116760476Y-114863571D02*
X116808095Y-114768333D01*
X116903333Y-114720714D01*
X117046190Y-114720714D01*
X117141428Y-114768333D01*
X117189047Y-114863571D01*
X117189047Y-115387380D01*
X118093809Y-115387380D02*
X118093809Y-114863571D01*
X118046190Y-114768333D01*
X117950952Y-114720714D01*
X117760476Y-114720714D01*
X117665238Y-114768333D01*
X118093809Y-115339761D02*
X117998571Y-115387380D01*
X117760476Y-115387380D01*
X117665238Y-115339761D01*
X117617619Y-115244523D01*
X117617619Y-115149285D01*
X117665238Y-115054047D01*
X117760476Y-115006428D01*
X117998571Y-115006428D01*
X118093809Y-114958809D01*
X118998571Y-115339761D02*
X118903333Y-115387380D01*
X118712857Y-115387380D01*
X118617619Y-115339761D01*
X118570000Y-115292142D01*
X118522380Y-115196904D01*
X118522380Y-114911190D01*
X118570000Y-114815952D01*
X118617619Y-114768333D01*
X118712857Y-114720714D01*
X118903333Y-114720714D01*
X118998571Y-114768333D01*
X119427142Y-115387380D02*
X119427142Y-114720714D01*
X119427142Y-114911190D02*
X119474761Y-114815952D01*
X119522380Y-114768333D01*
X119617619Y-114720714D01*
X119712857Y-114720714D01*
X120189047Y-115387380D02*
X120093809Y-115339761D01*
X120046190Y-115292142D01*
X119998571Y-115196904D01*
X119998571Y-114911190D01*
X120046190Y-114815952D01*
X120093809Y-114768333D01*
X120189047Y-114720714D01*
X120331904Y-114720714D01*
X120427142Y-114768333D01*
X120474761Y-114815952D01*
X120522380Y-114911190D01*
X120522380Y-115196904D01*
X120474761Y-115292142D01*
X120427142Y-115339761D01*
X120331904Y-115387380D01*
X120189047Y-115387380D01*
X120950952Y-114720714D02*
X120950952Y-115720714D01*
X120950952Y-114768333D02*
X121046190Y-114720714D01*
X121236666Y-114720714D01*
X121331904Y-114768333D01*
X121379523Y-114815952D01*
X121427142Y-114911190D01*
X121427142Y-115196904D01*
X121379523Y-115292142D01*
X121331904Y-115339761D01*
X121236666Y-115387380D01*
X121046190Y-115387380D01*
X120950952Y-115339761D01*
X122284285Y-115387380D02*
X122284285Y-114863571D01*
X122236666Y-114768333D01*
X122141428Y-114720714D01*
X121950952Y-114720714D01*
X121855714Y-114768333D01*
X122284285Y-115339761D02*
X122189047Y-115387380D01*
X121950952Y-115387380D01*
X121855714Y-115339761D01*
X121808095Y-115244523D01*
X121808095Y-115149285D01*
X121855714Y-115054047D01*
X121950952Y-115006428D01*
X122189047Y-115006428D01*
X122284285Y-114958809D01*
X123189047Y-115387380D02*
X123189047Y-114387380D01*
X123189047Y-115339761D02*
X123093809Y-115387380D01*
X122903333Y-115387380D01*
X122808095Y-115339761D01*
X122760476Y-115292142D01*
X122712857Y-115196904D01*
X122712857Y-114911190D01*
X122760476Y-114815952D01*
X122808095Y-114768333D01*
X122903333Y-114720714D01*
X123093809Y-114720714D01*
X123189047Y-114768333D01*
M02*
