M48
; DRILL file {KiCad (5.1.6)-1} date 08/30/20 09:50:59
; FORMAT={-:-/ absolute / inch / decimal}
; #@! TF.CreationDate,2020-08-30T09:50:59-05:00
; #@! TF.GenerationSoftware,Kicad,Pcbnew,(5.1.6)-1
; #@! TF.FileFunction,Plated,1,2,PTH
FMAT,2
INCH
T1C0.0157
T2C0.0236
T3C0.0579
%
G90
G05
T1
X2.335Y-4.51
X2.34Y-3.485
X2.34Y-3.58
X2.3474Y-3.2643
X2.4454Y-3.4498
X2.475Y-4.1
X2.4848Y-3.4514
X2.5352Y-3.8898
X2.545Y-3.47
X2.66Y-3.55
X2.665Y-3.845
X2.665Y-4.015
X2.8Y-3.48
X2.825Y-4.29
X3.145Y-4.29
X3.39Y-3.72
X3.56Y-3.935
X3.56Y-4.4
X2.3831Y-3.3135
X2.3831Y-3.3667
X2.4166Y-3.3135
X2.4166Y-3.3667
X2.4501Y-3.3135
X2.4501Y-3.3667
X2.4835Y-3.3135
X2.4835Y-3.3667
X2.517Y-3.3135
X2.517Y-3.3667
X2.5505Y-3.3135
X2.5505Y-3.3667
X2.5839Y-3.3135
X2.5839Y-3.3667
X2.6174Y-3.3135
X2.6174Y-3.3667
T3
X4.4625Y-4.05
X4.4641Y-4.0728
X4.6609Y-4.0925
X4.7125Y-4.15
X3.7125Y-4.05
X3.7141Y-4.0728
X3.9109Y-4.0925
X3.9625Y-4.15
X3.7125Y-3.3
X3.7141Y-3.3228
X3.9109Y-3.3425
X3.9625Y-3.4
X4.4625Y-3.3
X4.4641Y-3.3228
X4.6609Y-3.3425
X4.7125Y-3.4
T2
G00X2.33Y-3.1793
M15
G01X2.33Y-3.2107
M16
G05
G00X2.33Y-3.2985
M15
G01X2.33Y-3.3576
M16
G05
G00X2.6706Y-3.1793
M15
G01X2.6706Y-3.2107
M16
G05
G00X2.6706Y-3.2985
M15
G01X2.6706Y-3.3576
M16
G05
T0
M30
