%TF.GenerationSoftware,KiCad,Pcbnew,(5.1.6)-1*%
%TF.CreationDate,2020-08-29T20:45:41-05:00*%
%TF.ProjectId,je03-pcb-guide,6a653033-2d70-4636-922d-67756964652e,rev?*%
%TF.SameCoordinates,Original*%
%TF.FileFunction,Copper,L2,Bot*%
%TF.FilePolarity,Positive*%
%FSLAX46Y46*%
G04 Gerber Fmt 4.6, Leading zero omitted, Abs format (unit mm)*
G04 Created by KiCad (PCBNEW (5.1.6)-1) date 2020-08-29 20:45:41*
%MOMM*%
%LPD*%
G01*
G04 APERTURE LIST*
%TA.AperFunction,NonConductor*%
%ADD10C,0.300000*%
%TD*%
%TA.AperFunction,SMDPad,CuDef*%
%ADD11R,1.400000X1.200000*%
%TD*%
%TA.AperFunction,ComponentPad*%
%ADD12O,1.700000X2.700000*%
%TD*%
%TA.AperFunction,SMDPad,CuDef*%
%ADD13R,0.500000X2.250000*%
%TD*%
%TA.AperFunction,SMDPad,CuDef*%
%ADD14R,0.550000X1.500000*%
%TD*%
%TA.AperFunction,SMDPad,CuDef*%
%ADD15R,1.500000X0.550000*%
%TD*%
%TA.AperFunction,SMDPad,CuDef*%
%ADD16R,1.800000X1.100000*%
%TD*%
%TA.AperFunction,ComponentPad*%
%ADD17C,2.250000*%
%TD*%
%TA.AperFunction,SMDPad,CuDef*%
%ADD18R,1.200000X0.900000*%
%TD*%
%TA.AperFunction,ViaPad*%
%ADD19C,0.800000*%
%TD*%
%TA.AperFunction,Conductor*%
%ADD20C,0.381000*%
%TD*%
%TA.AperFunction,Conductor*%
%ADD21C,0.254000*%
%TD*%
G04 APERTURE END LIST*
D10*
X122502714Y-113986571D02*
X122502714Y-115058000D01*
X122574142Y-115272285D01*
X122717000Y-115415142D01*
X122931285Y-115486571D01*
X123074142Y-115486571D01*
X121145571Y-115486571D02*
X121145571Y-114700857D01*
X121217000Y-114558000D01*
X121359857Y-114486571D01*
X121645571Y-114486571D01*
X121788428Y-114558000D01*
X121145571Y-115415142D02*
X121288428Y-115486571D01*
X121645571Y-115486571D01*
X121788428Y-115415142D01*
X121859857Y-115272285D01*
X121859857Y-115129428D01*
X121788428Y-114986571D01*
X121645571Y-114915142D01*
X121288428Y-114915142D01*
X121145571Y-114843714D01*
X119788428Y-115415142D02*
X119931285Y-115486571D01*
X120217000Y-115486571D01*
X120359857Y-115415142D01*
X120431285Y-115343714D01*
X120502714Y-115200857D01*
X120502714Y-114772285D01*
X120431285Y-114629428D01*
X120359857Y-114558000D01*
X120217000Y-114486571D01*
X119931285Y-114486571D01*
X119788428Y-114558000D01*
X119145571Y-115486571D02*
X119145571Y-113986571D01*
X119002714Y-114915142D02*
X118574142Y-115486571D01*
X118574142Y-114486571D02*
X119145571Y-115058000D01*
X116788428Y-114700857D02*
X116288428Y-114700857D01*
X116074142Y-115486571D02*
X116788428Y-115486571D01*
X116788428Y-113986571D01*
X116074142Y-113986571D01*
X115502714Y-115415142D02*
X115359857Y-115486571D01*
X115074142Y-115486571D01*
X114931285Y-115415142D01*
X114859857Y-115272285D01*
X114859857Y-115200857D01*
X114931285Y-115058000D01*
X115074142Y-114986571D01*
X115288428Y-114986571D01*
X115431285Y-114915142D01*
X115502714Y-114772285D01*
X115502714Y-114700857D01*
X115431285Y-114558000D01*
X115288428Y-114486571D01*
X115074142Y-114486571D01*
X114931285Y-114558000D01*
X113574142Y-115415142D02*
X113717000Y-115486571D01*
X114002714Y-115486571D01*
X114145571Y-115415142D01*
X114217000Y-115343714D01*
X114288428Y-115200857D01*
X114288428Y-114772285D01*
X114217000Y-114629428D01*
X114145571Y-114558000D01*
X114002714Y-114486571D01*
X113717000Y-114486571D01*
X113574142Y-114558000D01*
X112931285Y-115486571D02*
X112931285Y-113986571D01*
X112288428Y-115486571D02*
X112288428Y-114700857D01*
X112359857Y-114558000D01*
X112502714Y-114486571D01*
X112717000Y-114486571D01*
X112859857Y-114558000D01*
X112931285Y-114629428D01*
X111002714Y-115415142D02*
X111145571Y-115486571D01*
X111431285Y-115486571D01*
X111574142Y-115415142D01*
X111645571Y-115272285D01*
X111645571Y-114700857D01*
X111574142Y-114558000D01*
X111431285Y-114486571D01*
X111145571Y-114486571D01*
X111002714Y-114558000D01*
X110931285Y-114700857D01*
X110931285Y-114843714D01*
X111645571Y-114986571D01*
D11*
%TO.P,Y1,4*%
%TO.N,GND*%
X78495250Y-87612750D03*
%TO.P,Y1,3*%
%TO.N,Net-(C2-Pad1)*%
X76295250Y-87612750D03*
%TO.P,Y1,2*%
%TO.N,GND*%
X76295250Y-89312750D03*
%TO.P,Y1,1*%
%TO.N,Net-(C1-Pad1)*%
X78495250Y-89312750D03*
%TD*%
D12*
%TO.P,USB1,6*%
%TO.N,Net-(USB1-Pad6)*%
X60028000Y-81098000D03*
X67328000Y-81098000D03*
X67328000Y-85598000D03*
X60028000Y-85598000D03*
D13*
%TO.P,USB1,5*%
%TO.N,VCC*%
X62078000Y-85598000D03*
%TO.P,USB1,4*%
%TO.N,D-*%
X62878000Y-85598000D03*
%TO.P,USB1,3*%
%TO.N,D+*%
X63678000Y-85598000D03*
%TO.P,USB1,2*%
%TO.N,Net-(USB1-Pad2)*%
X64478000Y-85598000D03*
%TO.P,USB1,1*%
%TO.N,GND*%
X65278000Y-85598000D03*
%TD*%
D14*
%TO.P,U1,44*%
%TO.N,+5V*%
X71262500Y-103998000D03*
%TO.P,U1,43*%
%TO.N,GND*%
X72062500Y-103998000D03*
%TO.P,U1,42*%
%TO.N,Net-(U1-Pad42)*%
X72862500Y-103998000D03*
%TO.P,U1,41*%
%TO.N,Net-(U1-Pad41)*%
X73662500Y-103998000D03*
%TO.P,U1,40*%
%TO.N,Net-(U1-Pad40)*%
X74462500Y-103998000D03*
%TO.P,U1,39*%
%TO.N,Net-(U1-Pad39)*%
X75262500Y-103998000D03*
%TO.P,U1,38*%
%TO.N,Net-(U1-Pad38)*%
X76062500Y-103998000D03*
%TO.P,U1,37*%
%TO.N,Net-(U1-Pad37)*%
X76862500Y-103998000D03*
%TO.P,U1,36*%
%TO.N,Net-(U1-Pad36)*%
X77662500Y-103998000D03*
%TO.P,U1,35*%
%TO.N,GND*%
X78462500Y-103998000D03*
%TO.P,U1,34*%
%TO.N,+5V*%
X79262500Y-103998000D03*
D15*
%TO.P,U1,33*%
%TO.N,Net-(R4-Pad2)*%
X80962500Y-102298000D03*
%TO.P,U1,32*%
%TO.N,Net-(U1-Pad32)*%
X80962500Y-101498000D03*
%TO.P,U1,31*%
%TO.N,Net-(U1-Pad31)*%
X80962500Y-100698000D03*
%TO.P,U1,30*%
%TO.N,ROW1*%
X80962500Y-99898000D03*
%TO.P,U1,29*%
%TO.N,COL0*%
X80962500Y-99098000D03*
%TO.P,U1,28*%
%TO.N,COL1*%
X80962500Y-98298000D03*
%TO.P,U1,27*%
%TO.N,ROW0*%
X80962500Y-97498000D03*
%TO.P,U1,26*%
%TO.N,Net-(U1-Pad26)*%
X80962500Y-96698000D03*
%TO.P,U1,25*%
%TO.N,Net-(U1-Pad25)*%
X80962500Y-95898000D03*
%TO.P,U1,24*%
%TO.N,+5V*%
X80962500Y-95098000D03*
%TO.P,U1,23*%
%TO.N,GND*%
X80962500Y-94298000D03*
D14*
%TO.P,U1,22*%
%TO.N,Net-(U1-Pad22)*%
X79262500Y-92598000D03*
%TO.P,U1,21*%
%TO.N,Net-(U1-Pad21)*%
X78462500Y-92598000D03*
%TO.P,U1,20*%
%TO.N,Net-(U1-Pad20)*%
X77662500Y-92598000D03*
%TO.P,U1,19*%
%TO.N,Net-(U1-Pad19)*%
X76862500Y-92598000D03*
%TO.P,U1,18*%
%TO.N,Net-(U1-Pad18)*%
X76062500Y-92598000D03*
%TO.P,U1,17*%
%TO.N,Net-(C1-Pad1)*%
X75262500Y-92598000D03*
%TO.P,U1,16*%
%TO.N,Net-(C2-Pad1)*%
X74462500Y-92598000D03*
%TO.P,U1,15*%
%TO.N,GND*%
X73662500Y-92598000D03*
%TO.P,U1,14*%
%TO.N,+5V*%
X72862500Y-92598000D03*
%TO.P,U1,13*%
%TO.N,Net-(R1-Pad2)*%
X72062500Y-92598000D03*
%TO.P,U1,12*%
%TO.N,Net-(U1-Pad12)*%
X71262500Y-92598000D03*
D15*
%TO.P,U1,11*%
%TO.N,Net-(U1-Pad11)*%
X69562500Y-94298000D03*
%TO.P,U1,10*%
%TO.N,Net-(U1-Pad10)*%
X69562500Y-95098000D03*
%TO.P,U1,9*%
%TO.N,Net-(U1-Pad9)*%
X69562500Y-95898000D03*
%TO.P,U1,8*%
%TO.N,Net-(U1-Pad8)*%
X69562500Y-96698000D03*
%TO.P,U1,7*%
%TO.N,+5V*%
X69562500Y-97498000D03*
%TO.P,U1,6*%
%TO.N,Net-(C3-Pad1)*%
X69562500Y-98298000D03*
%TO.P,U1,5*%
%TO.N,GND*%
X69562500Y-99098000D03*
%TO.P,U1,4*%
%TO.N,Net-(R2-Pad1)*%
X69562500Y-99898000D03*
%TO.P,U1,3*%
%TO.N,Net-(R3-Pad1)*%
X69562500Y-100698000D03*
%TO.P,U1,2*%
%TO.N,+5V*%
X69562500Y-101498000D03*
%TO.P,U1,1*%
%TO.N,Net-(U1-Pad1)*%
X69562500Y-102298000D03*
%TD*%
D16*
%TO.P,SW1,4*%
%TO.N,N/C*%
X60856000Y-110854000D03*
%TO.P,SW1,3*%
X67056000Y-114554000D03*
%TO.P,SW1,2*%
%TO.N,Net-(R1-Pad2)*%
X60856000Y-114554000D03*
%TO.P,SW1,1*%
%TO.N,GND*%
X67056000Y-110854000D03*
%TD*%
%TO.P,R4,2*%
%TO.N,Net-(R4-Pad2)*%
%TA.AperFunction,SMDPad,CuDef*%
G36*
G01*
X84022250Y-102879500D02*
X83109750Y-102879500D01*
G75*
G02*
X82866000Y-102635750I0J243750D01*
G01*
X82866000Y-102148250D01*
G75*
G02*
X83109750Y-101904500I243750J0D01*
G01*
X84022250Y-101904500D01*
G75*
G02*
X84266000Y-102148250I0J-243750D01*
G01*
X84266000Y-102635750D01*
G75*
G02*
X84022250Y-102879500I-243750J0D01*
G01*
G37*
%TD.AperFunction*%
%TO.P,R4,1*%
%TO.N,GND*%
%TA.AperFunction,SMDPad,CuDef*%
G36*
G01*
X84022250Y-104754500D02*
X83109750Y-104754500D01*
G75*
G02*
X82866000Y-104510750I0J243750D01*
G01*
X82866000Y-104023250D01*
G75*
G02*
X83109750Y-103779500I243750J0D01*
G01*
X84022250Y-103779500D01*
G75*
G02*
X84266000Y-104023250I0J-243750D01*
G01*
X84266000Y-104510750D01*
G75*
G02*
X84022250Y-104754500I-243750J0D01*
G01*
G37*
%TD.AperFunction*%
%TD*%
%TO.P,R3,2*%
%TO.N,D-*%
%TA.AperFunction,SMDPad,CuDef*%
G36*
G01*
X62813250Y-89798500D02*
X61900750Y-89798500D01*
G75*
G02*
X61657000Y-89554750I0J243750D01*
G01*
X61657000Y-89067250D01*
G75*
G02*
X61900750Y-88823500I243750J0D01*
G01*
X62813250Y-88823500D01*
G75*
G02*
X63057000Y-89067250I0J-243750D01*
G01*
X63057000Y-89554750D01*
G75*
G02*
X62813250Y-89798500I-243750J0D01*
G01*
G37*
%TD.AperFunction*%
%TO.P,R3,1*%
%TO.N,Net-(R3-Pad1)*%
%TA.AperFunction,SMDPad,CuDef*%
G36*
G01*
X62813250Y-91673500D02*
X61900750Y-91673500D01*
G75*
G02*
X61657000Y-91429750I0J243750D01*
G01*
X61657000Y-90942250D01*
G75*
G02*
X61900750Y-90698500I243750J0D01*
G01*
X62813250Y-90698500D01*
G75*
G02*
X63057000Y-90942250I0J-243750D01*
G01*
X63057000Y-91429750D01*
G75*
G02*
X62813250Y-91673500I-243750J0D01*
G01*
G37*
%TD.AperFunction*%
%TD*%
%TO.P,R2,2*%
%TO.N,D+*%
%TA.AperFunction,SMDPad,CuDef*%
G36*
G01*
X64845250Y-89798500D02*
X63932750Y-89798500D01*
G75*
G02*
X63689000Y-89554750I0J243750D01*
G01*
X63689000Y-89067250D01*
G75*
G02*
X63932750Y-88823500I243750J0D01*
G01*
X64845250Y-88823500D01*
G75*
G02*
X65089000Y-89067250I0J-243750D01*
G01*
X65089000Y-89554750D01*
G75*
G02*
X64845250Y-89798500I-243750J0D01*
G01*
G37*
%TD.AperFunction*%
%TO.P,R2,1*%
%TO.N,Net-(R2-Pad1)*%
%TA.AperFunction,SMDPad,CuDef*%
G36*
G01*
X64845250Y-91673500D02*
X63932750Y-91673500D01*
G75*
G02*
X63689000Y-91429750I0J243750D01*
G01*
X63689000Y-90942250D01*
G75*
G02*
X63932750Y-90698500I243750J0D01*
G01*
X64845250Y-90698500D01*
G75*
G02*
X65089000Y-90942250I0J-243750D01*
G01*
X65089000Y-91429750D01*
G75*
G02*
X64845250Y-91673500I-243750J0D01*
G01*
G37*
%TD.AperFunction*%
%TD*%
%TO.P,R1,2*%
%TO.N,Net-(R1-Pad2)*%
%TA.AperFunction,SMDPad,CuDef*%
G36*
G01*
X69702500Y-89459750D02*
X69702500Y-90372250D01*
G75*
G02*
X69458750Y-90616000I-243750J0D01*
G01*
X68971250Y-90616000D01*
G75*
G02*
X68727500Y-90372250I0J243750D01*
G01*
X68727500Y-89459750D01*
G75*
G02*
X68971250Y-89216000I243750J0D01*
G01*
X69458750Y-89216000D01*
G75*
G02*
X69702500Y-89459750I0J-243750D01*
G01*
G37*
%TD.AperFunction*%
%TO.P,R1,1*%
%TO.N,+5V*%
%TA.AperFunction,SMDPad,CuDef*%
G36*
G01*
X71577500Y-89459750D02*
X71577500Y-90372250D01*
G75*
G02*
X71333750Y-90616000I-243750J0D01*
G01*
X70846250Y-90616000D01*
G75*
G02*
X70602500Y-90372250I0J243750D01*
G01*
X70602500Y-89459750D01*
G75*
G02*
X70846250Y-89216000I243750J0D01*
G01*
X71333750Y-89216000D01*
G75*
G02*
X71577500Y-89459750I0J-243750D01*
G01*
G37*
%TD.AperFunction*%
%TD*%
D17*
%TO.P,MX4,1*%
%TO.N,COL1*%
X113387500Y-103950000D03*
%TA.AperFunction,ComponentPad*%
G36*
G01*
X111326183Y-106247345D02*
X111326183Y-106247345D01*
G75*
G02*
X111240155Y-104658683I751317J837345D01*
G01*
X112550157Y-103198683D01*
G75*
G02*
X114138819Y-103112655I837345J-751317D01*
G01*
X114138819Y-103112655D01*
G75*
G02*
X114224847Y-104701317I-751317J-837345D01*
G01*
X112914845Y-106161317D01*
G75*
G02*
X111326183Y-106247345I-837345J751317D01*
G01*
G37*
%TD.AperFunction*%
%TO.P,MX4,2*%
%TO.N,Net-(D4-Pad2)*%
X118427500Y-102870000D03*
%TA.AperFunction,ComponentPad*%
G36*
G01*
X118310097Y-104572334D02*
X118310097Y-104572334D01*
G75*
G02*
X117265166Y-103372597I77403J1122334D01*
G01*
X117305166Y-102792597D01*
G75*
G02*
X118504903Y-101747666I1122334J-77403D01*
G01*
X118504903Y-101747666D01*
G75*
G02*
X119549834Y-102947403I-77403J-1122334D01*
G01*
X119509834Y-103527403D01*
G75*
G02*
X118310097Y-104572334I-1122334J77403D01*
G01*
G37*
%TD.AperFunction*%
%TD*%
%TO.P,MX3,1*%
%TO.N,COL0*%
X94337500Y-103950000D03*
%TA.AperFunction,ComponentPad*%
G36*
G01*
X92276183Y-106247345D02*
X92276183Y-106247345D01*
G75*
G02*
X92190155Y-104658683I751317J837345D01*
G01*
X93500157Y-103198683D01*
G75*
G02*
X95088819Y-103112655I837345J-751317D01*
G01*
X95088819Y-103112655D01*
G75*
G02*
X95174847Y-104701317I-751317J-837345D01*
G01*
X93864845Y-106161317D01*
G75*
G02*
X92276183Y-106247345I-837345J751317D01*
G01*
G37*
%TD.AperFunction*%
%TO.P,MX3,2*%
%TO.N,Net-(D3-Pad2)*%
X99377500Y-102870000D03*
%TA.AperFunction,ComponentPad*%
G36*
G01*
X99260097Y-104572334D02*
X99260097Y-104572334D01*
G75*
G02*
X98215166Y-103372597I77403J1122334D01*
G01*
X98255166Y-102792597D01*
G75*
G02*
X99454903Y-101747666I1122334J-77403D01*
G01*
X99454903Y-101747666D01*
G75*
G02*
X100499834Y-102947403I-77403J-1122334D01*
G01*
X100459834Y-103527403D01*
G75*
G02*
X99260097Y-104572334I-1122334J77403D01*
G01*
G37*
%TD.AperFunction*%
%TD*%
%TO.P,MX2,1*%
%TO.N,COL1*%
X113387500Y-84900000D03*
%TA.AperFunction,ComponentPad*%
G36*
G01*
X111326183Y-87197345D02*
X111326183Y-87197345D01*
G75*
G02*
X111240155Y-85608683I751317J837345D01*
G01*
X112550157Y-84148683D01*
G75*
G02*
X114138819Y-84062655I837345J-751317D01*
G01*
X114138819Y-84062655D01*
G75*
G02*
X114224847Y-85651317I-751317J-837345D01*
G01*
X112914845Y-87111317D01*
G75*
G02*
X111326183Y-87197345I-837345J751317D01*
G01*
G37*
%TD.AperFunction*%
%TO.P,MX2,2*%
%TO.N,Net-(D2-Pad2)*%
X118427500Y-83820000D03*
%TA.AperFunction,ComponentPad*%
G36*
G01*
X118310097Y-85522334D02*
X118310097Y-85522334D01*
G75*
G02*
X117265166Y-84322597I77403J1122334D01*
G01*
X117305166Y-83742597D01*
G75*
G02*
X118504903Y-82697666I1122334J-77403D01*
G01*
X118504903Y-82697666D01*
G75*
G02*
X119549834Y-83897403I-77403J-1122334D01*
G01*
X119509834Y-84477403D01*
G75*
G02*
X118310097Y-85522334I-1122334J77403D01*
G01*
G37*
%TD.AperFunction*%
%TD*%
%TO.P,MX1,1*%
%TO.N,COL0*%
X94337500Y-84900000D03*
%TA.AperFunction,ComponentPad*%
G36*
G01*
X92276183Y-87197345D02*
X92276183Y-87197345D01*
G75*
G02*
X92190155Y-85608683I751317J837345D01*
G01*
X93500157Y-84148683D01*
G75*
G02*
X95088819Y-84062655I837345J-751317D01*
G01*
X95088819Y-84062655D01*
G75*
G02*
X95174847Y-85651317I-751317J-837345D01*
G01*
X93864845Y-87111317D01*
G75*
G02*
X92276183Y-87197345I-837345J751317D01*
G01*
G37*
%TD.AperFunction*%
%TO.P,MX1,2*%
%TO.N,Net-(D1-Pad2)*%
X99377500Y-83820000D03*
%TA.AperFunction,ComponentPad*%
G36*
G01*
X99260097Y-85522334D02*
X99260097Y-85522334D01*
G75*
G02*
X98215166Y-84322597I77403J1122334D01*
G01*
X98255166Y-83742597D01*
G75*
G02*
X99454903Y-82697666I1122334J-77403D01*
G01*
X99454903Y-82697666D01*
G75*
G02*
X100499834Y-83897403I-77403J-1122334D01*
G01*
X100459834Y-84477403D01*
G75*
G02*
X99260097Y-85522334I-1122334J77403D01*
G01*
G37*
%TD.AperFunction*%
%TD*%
%TO.P,F1,2*%
%TO.N,VCC*%
%TA.AperFunction,SMDPad,CuDef*%
G36*
G01*
X61966000Y-98542000D02*
X60716000Y-98542000D01*
G75*
G02*
X60466000Y-98292000I0J250000D01*
G01*
X60466000Y-97542000D01*
G75*
G02*
X60716000Y-97292000I250000J0D01*
G01*
X61966000Y-97292000D01*
G75*
G02*
X62216000Y-97542000I0J-250000D01*
G01*
X62216000Y-98292000D01*
G75*
G02*
X61966000Y-98542000I-250000J0D01*
G01*
G37*
%TD.AperFunction*%
%TO.P,F1,1*%
%TO.N,+5V*%
%TA.AperFunction,SMDPad,CuDef*%
G36*
G01*
X61966000Y-101342000D02*
X60716000Y-101342000D01*
G75*
G02*
X60466000Y-101092000I0J250000D01*
G01*
X60466000Y-100342000D01*
G75*
G02*
X60716000Y-100092000I250000J0D01*
G01*
X61966000Y-100092000D01*
G75*
G02*
X62216000Y-100342000I0J-250000D01*
G01*
X62216000Y-101092000D01*
G75*
G02*
X61966000Y-101342000I-250000J0D01*
G01*
G37*
%TD.AperFunction*%
%TD*%
D18*
%TO.P,D4,2*%
%TO.N,Net-(D4-Pad2)*%
X123825000Y-106300000D03*
%TO.P,D4,1*%
%TO.N,ROW1*%
X123825000Y-109600000D03*
%TD*%
%TO.P,D3,2*%
%TO.N,Net-(D3-Pad2)*%
X104775000Y-106300000D03*
%TO.P,D3,1*%
%TO.N,ROW1*%
X104775000Y-109600000D03*
%TD*%
%TO.P,D2,2*%
%TO.N,Net-(D2-Pad2)*%
X123825000Y-87250000D03*
%TO.P,D2,1*%
%TO.N,ROW0*%
X123825000Y-90550000D03*
%TD*%
%TO.P,D1,2*%
%TO.N,Net-(D1-Pad2)*%
X104775000Y-87250000D03*
%TO.P,D1,1*%
%TO.N,ROW0*%
X104775000Y-90550000D03*
%TD*%
%TO.P,C7,2*%
%TO.N,GND*%
%TA.AperFunction,SMDPad,CuDef*%
G36*
G01*
X65710750Y-104160500D02*
X66623250Y-104160500D01*
G75*
G02*
X66867000Y-104404250I0J-243750D01*
G01*
X66867000Y-104891750D01*
G75*
G02*
X66623250Y-105135500I-243750J0D01*
G01*
X65710750Y-105135500D01*
G75*
G02*
X65467000Y-104891750I0J243750D01*
G01*
X65467000Y-104404250D01*
G75*
G02*
X65710750Y-104160500I243750J0D01*
G01*
G37*
%TD.AperFunction*%
%TO.P,C7,1*%
%TO.N,+5V*%
%TA.AperFunction,SMDPad,CuDef*%
G36*
G01*
X65710750Y-102285500D02*
X66623250Y-102285500D01*
G75*
G02*
X66867000Y-102529250I0J-243750D01*
G01*
X66867000Y-103016750D01*
G75*
G02*
X66623250Y-103260500I-243750J0D01*
G01*
X65710750Y-103260500D01*
G75*
G02*
X65467000Y-103016750I0J243750D01*
G01*
X65467000Y-102529250D01*
G75*
G02*
X65710750Y-102285500I243750J0D01*
G01*
G37*
%TD.AperFunction*%
%TD*%
%TO.P,C6,2*%
%TO.N,GND*%
%TA.AperFunction,SMDPad,CuDef*%
G36*
G01*
X84403250Y-93784000D02*
X83490750Y-93784000D01*
G75*
G02*
X83247000Y-93540250I0J243750D01*
G01*
X83247000Y-93052750D01*
G75*
G02*
X83490750Y-92809000I243750J0D01*
G01*
X84403250Y-92809000D01*
G75*
G02*
X84647000Y-93052750I0J-243750D01*
G01*
X84647000Y-93540250D01*
G75*
G02*
X84403250Y-93784000I-243750J0D01*
G01*
G37*
%TD.AperFunction*%
%TO.P,C6,1*%
%TO.N,+5V*%
%TA.AperFunction,SMDPad,CuDef*%
G36*
G01*
X84403250Y-95659000D02*
X83490750Y-95659000D01*
G75*
G02*
X83247000Y-95415250I0J243750D01*
G01*
X83247000Y-94927750D01*
G75*
G02*
X83490750Y-94684000I243750J0D01*
G01*
X84403250Y-94684000D01*
G75*
G02*
X84647000Y-94927750I0J-243750D01*
G01*
X84647000Y-95415250D01*
G75*
G02*
X84403250Y-95659000I-243750J0D01*
G01*
G37*
%TD.AperFunction*%
%TD*%
%TO.P,C5,2*%
%TO.N,GND*%
%TA.AperFunction,SMDPad,CuDef*%
G36*
G01*
X70367500Y-106731750D02*
X70367500Y-107644250D01*
G75*
G02*
X70123750Y-107888000I-243750J0D01*
G01*
X69636250Y-107888000D01*
G75*
G02*
X69392500Y-107644250I0J243750D01*
G01*
X69392500Y-106731750D01*
G75*
G02*
X69636250Y-106488000I243750J0D01*
G01*
X70123750Y-106488000D01*
G75*
G02*
X70367500Y-106731750I0J-243750D01*
G01*
G37*
%TD.AperFunction*%
%TO.P,C5,1*%
%TO.N,+5V*%
%TA.AperFunction,SMDPad,CuDef*%
G36*
G01*
X72242500Y-106731750D02*
X72242500Y-107644250D01*
G75*
G02*
X71998750Y-107888000I-243750J0D01*
G01*
X71511250Y-107888000D01*
G75*
G02*
X71267500Y-107644250I0J243750D01*
G01*
X71267500Y-106731750D01*
G75*
G02*
X71511250Y-106488000I243750J0D01*
G01*
X71998750Y-106488000D01*
G75*
G02*
X72242500Y-106731750I0J-243750D01*
G01*
G37*
%TD.AperFunction*%
%TD*%
%TO.P,C4,2*%
%TO.N,GND*%
%TA.AperFunction,SMDPad,CuDef*%
G36*
G01*
X78544000Y-106858750D02*
X78544000Y-107771250D01*
G75*
G02*
X78300250Y-108015000I-243750J0D01*
G01*
X77812750Y-108015000D01*
G75*
G02*
X77569000Y-107771250I0J243750D01*
G01*
X77569000Y-106858750D01*
G75*
G02*
X77812750Y-106615000I243750J0D01*
G01*
X78300250Y-106615000D01*
G75*
G02*
X78544000Y-106858750I0J-243750D01*
G01*
G37*
%TD.AperFunction*%
%TO.P,C4,1*%
%TO.N,+5V*%
%TA.AperFunction,SMDPad,CuDef*%
G36*
G01*
X80419000Y-106858750D02*
X80419000Y-107771250D01*
G75*
G02*
X80175250Y-108015000I-243750J0D01*
G01*
X79687750Y-108015000D01*
G75*
G02*
X79444000Y-107771250I0J243750D01*
G01*
X79444000Y-106858750D01*
G75*
G02*
X79687750Y-106615000I243750J0D01*
G01*
X80175250Y-106615000D01*
G75*
G02*
X80419000Y-106858750I0J-243750D01*
G01*
G37*
%TD.AperFunction*%
%TD*%
%TO.P,C3,2*%
%TO.N,GND*%
%TA.AperFunction,SMDPad,CuDef*%
G36*
G01*
X65329750Y-98288500D02*
X66242250Y-98288500D01*
G75*
G02*
X66486000Y-98532250I0J-243750D01*
G01*
X66486000Y-99019750D01*
G75*
G02*
X66242250Y-99263500I-243750J0D01*
G01*
X65329750Y-99263500D01*
G75*
G02*
X65086000Y-99019750I0J243750D01*
G01*
X65086000Y-98532250D01*
G75*
G02*
X65329750Y-98288500I243750J0D01*
G01*
G37*
%TD.AperFunction*%
%TO.P,C3,1*%
%TO.N,Net-(C3-Pad1)*%
%TA.AperFunction,SMDPad,CuDef*%
G36*
G01*
X65329750Y-96413500D02*
X66242250Y-96413500D01*
G75*
G02*
X66486000Y-96657250I0J-243750D01*
G01*
X66486000Y-97144750D01*
G75*
G02*
X66242250Y-97388500I-243750J0D01*
G01*
X65329750Y-97388500D01*
G75*
G02*
X65086000Y-97144750I0J243750D01*
G01*
X65086000Y-96657250D01*
G75*
G02*
X65329750Y-96413500I243750J0D01*
G01*
G37*
%TD.AperFunction*%
%TD*%
%TO.P,C2,2*%
%TO.N,GND*%
%TA.AperFunction,SMDPad,CuDef*%
G36*
G01*
X73076750Y-88920500D02*
X73989250Y-88920500D01*
G75*
G02*
X74233000Y-89164250I0J-243750D01*
G01*
X74233000Y-89651750D01*
G75*
G02*
X73989250Y-89895500I-243750J0D01*
G01*
X73076750Y-89895500D01*
G75*
G02*
X72833000Y-89651750I0J243750D01*
G01*
X72833000Y-89164250D01*
G75*
G02*
X73076750Y-88920500I243750J0D01*
G01*
G37*
%TD.AperFunction*%
%TO.P,C2,1*%
%TO.N,Net-(C2-Pad1)*%
%TA.AperFunction,SMDPad,CuDef*%
G36*
G01*
X73076750Y-87045500D02*
X73989250Y-87045500D01*
G75*
G02*
X74233000Y-87289250I0J-243750D01*
G01*
X74233000Y-87776750D01*
G75*
G02*
X73989250Y-88020500I-243750J0D01*
G01*
X73076750Y-88020500D01*
G75*
G02*
X72833000Y-87776750I0J243750D01*
G01*
X72833000Y-87289250D01*
G75*
G02*
X73076750Y-87045500I243750J0D01*
G01*
G37*
%TD.AperFunction*%
%TD*%
%TO.P,C1,2*%
%TO.N,GND*%
%TA.AperFunction,SMDPad,CuDef*%
G36*
G01*
X81101250Y-88020500D02*
X80188750Y-88020500D01*
G75*
G02*
X79945000Y-87776750I0J243750D01*
G01*
X79945000Y-87289250D01*
G75*
G02*
X80188750Y-87045500I243750J0D01*
G01*
X81101250Y-87045500D01*
G75*
G02*
X81345000Y-87289250I0J-243750D01*
G01*
X81345000Y-87776750D01*
G75*
G02*
X81101250Y-88020500I-243750J0D01*
G01*
G37*
%TD.AperFunction*%
%TO.P,C1,1*%
%TO.N,Net-(C1-Pad1)*%
%TA.AperFunction,SMDPad,CuDef*%
G36*
G01*
X81101250Y-89895500D02*
X80188750Y-89895500D01*
G75*
G02*
X79945000Y-89651750I0J243750D01*
G01*
X79945000Y-89164250D01*
G75*
G02*
X80188750Y-88920500I243750J0D01*
G01*
X81101250Y-88920500D01*
G75*
G02*
X81345000Y-89164250I0J-243750D01*
G01*
X81345000Y-89651750D01*
G75*
G02*
X81101250Y-89895500I-243750J0D01*
G01*
G37*
%TD.AperFunction*%
%TD*%
D19*
%TO.N,GND*%
X64395067Y-98799933D03*
X62865000Y-104140000D03*
%TO.N,+5V*%
X67691000Y-101981000D03*
X71755000Y-108966000D03*
X79883000Y-108966000D03*
X67691000Y-97663000D03*
X71120000Y-88392000D03*
X86106000Y-94488000D03*
%TO.N,Net-(R1-Pad2)*%
X59309000Y-114554000D03*
X67564000Y-90170000D03*
%TD*%
D20*
%TO.N,GND*%
X72263000Y-86614000D02*
X72517000Y-86360000D01*
X72517000Y-86360000D02*
X78232000Y-86360000D01*
X78232000Y-86360000D02*
X78486000Y-86614000D01*
X78486000Y-86614000D02*
X78486000Y-87249000D01*
X73533000Y-89408000D02*
X72644000Y-89408000D01*
X72644000Y-89408000D02*
X72263000Y-89027000D01*
X72263000Y-89027000D02*
X72263000Y-86741000D01*
X72263000Y-86741000D02*
X72263000Y-86614000D01*
D21*
X76492348Y-89312750D02*
X78175098Y-87630000D01*
D20*
X76295250Y-89312750D02*
X76492348Y-89312750D01*
X73533000Y-89408000D02*
X73533000Y-90424000D01*
X73533000Y-90424000D02*
X73660000Y-90551000D01*
X73660000Y-90551000D02*
X73660000Y-91821000D01*
X70693500Y-99098000D02*
X73660000Y-96131500D01*
X69562500Y-99098000D02*
X70693500Y-99098000D01*
X73660000Y-96131500D02*
X73660000Y-93218000D01*
X80962500Y-94298000D02*
X80962500Y-94297500D01*
X80035098Y-94297500D02*
X78486000Y-95846598D01*
X80962500Y-94297500D02*
X80035098Y-94297500D01*
X72062500Y-103998000D02*
X72062500Y-97843500D01*
X78486000Y-99314000D02*
X78486000Y-103505000D01*
X78486000Y-99314000D02*
X78486000Y-99441000D01*
X78486000Y-95846598D02*
X78486000Y-99314000D01*
X78486000Y-99441000D02*
X76073000Y-99441000D01*
X76073000Y-99441000D02*
X73279000Y-96647000D01*
X65786000Y-98776000D02*
X66451000Y-99441000D01*
X66451000Y-99441000D02*
X67691000Y-99441000D01*
X67691000Y-99441000D02*
X67945000Y-99187000D01*
X67945000Y-99187000D02*
X69215000Y-99187000D01*
X65786000Y-98776000D02*
X64419000Y-98776000D01*
X64419000Y-98776000D02*
X64395067Y-98799933D01*
X81471000Y-94298000D02*
X81535000Y-94234000D01*
X80962500Y-94298000D02*
X81471000Y-94298000D01*
X81535000Y-94234000D02*
X81915000Y-94234000D01*
X81915000Y-94234000D02*
X82550000Y-93599000D01*
X82550000Y-93599000D02*
X82550000Y-93218000D01*
X82550000Y-93218000D02*
X83693000Y-93218000D01*
X67056000Y-110854000D02*
X72153000Y-110854000D01*
X72153000Y-110854000D02*
X73152000Y-109855000D01*
X73152000Y-109855000D02*
X73152000Y-106299000D01*
X73152000Y-106299000D02*
X73152000Y-106172000D01*
X73152000Y-106172000D02*
X72263000Y-105283000D01*
X72263000Y-105283000D02*
X72009000Y-105029000D01*
X72009000Y-105029000D02*
X72009000Y-104521000D01*
X69880000Y-107188000D02*
X69880000Y-109758000D01*
X69880000Y-109758000D02*
X70993000Y-110871000D01*
X77978000Y-107188000D02*
X73660000Y-107188000D01*
X73660000Y-107188000D02*
X73152000Y-106680000D01*
X73787000Y-108585000D02*
X73152000Y-107950000D01*
X75438000Y-110490000D02*
X73787000Y-108585000D01*
X83566000Y-104267000D02*
X83566000Y-109220000D01*
X82169000Y-110490000D02*
X75438000Y-110490000D01*
X83566000Y-109220000D02*
X82169000Y-110490000D01*
X78232000Y-86360000D02*
X81915000Y-86360000D01*
X80645000Y-87533000D02*
X80645000Y-86360000D01*
X81915000Y-86360000D02*
X82423000Y-86868000D01*
X82423000Y-86868000D02*
X82550000Y-86995000D01*
X82550000Y-86995000D02*
X82550000Y-93218000D01*
X65278000Y-85598000D02*
X65278000Y-86995000D01*
X65278000Y-86995000D02*
X65786000Y-87503000D01*
X65786000Y-87503000D02*
X65786000Y-92202000D01*
X65786000Y-92837000D02*
X64262000Y-94361000D01*
X65786000Y-92202000D02*
X65786000Y-92837000D01*
X64262000Y-94361000D02*
X64262000Y-98679000D01*
X63373000Y-104648000D02*
X65532000Y-104648000D01*
X62865000Y-104140000D02*
X63373000Y-104648000D01*
D21*
%TO.N,Net-(C1-Pad1)*%
X80645000Y-89408000D02*
X78613000Y-89408000D01*
X78495250Y-89312750D02*
X78495250Y-89290250D01*
X78495250Y-89290250D02*
X78486000Y-89299500D01*
X78486000Y-89299500D02*
X78486000Y-90297000D01*
X78486000Y-90297000D02*
X78232000Y-90551000D01*
X78232000Y-90551000D02*
X75946000Y-90551000D01*
X75384010Y-91112990D02*
X75384010Y-91366990D01*
X75946000Y-90551000D02*
X75384010Y-91112990D01*
X75384010Y-91366990D02*
X75311000Y-91440000D01*
X75311000Y-91440000D02*
X75311000Y-91948000D01*
%TO.N,Net-(C2-Pad1)*%
X76295250Y-87612750D02*
X73677250Y-87612750D01*
X75341250Y-87612750D02*
X74930000Y-88024000D01*
X76295250Y-87612750D02*
X75341250Y-87612750D01*
X74930000Y-88024000D02*
X74930000Y-91059000D01*
X74930000Y-91059000D02*
X74422000Y-91567000D01*
X74422000Y-91567000D02*
X74422000Y-91948000D01*
%TO.N,Net-(C3-Pad1)*%
X65786000Y-96901000D02*
X66548000Y-96901000D01*
X66548000Y-96901000D02*
X66929000Y-97282000D01*
X66929000Y-98806000D02*
X67046490Y-98923490D01*
X66929000Y-97282000D02*
X66929000Y-98806000D01*
X67046490Y-98923490D02*
X67437000Y-98923490D01*
X67476641Y-98923490D02*
X67975131Y-98425000D01*
X67437000Y-98923490D02*
X67476641Y-98923490D01*
X67975131Y-98425000D02*
X69088000Y-98425000D01*
D20*
%TO.N,+5V*%
X71090000Y-89916000D02*
X71755000Y-89916000D01*
X71755000Y-89916000D02*
X72898000Y-91059000D01*
X72898000Y-91059000D02*
X72898000Y-92075000D01*
X71755000Y-107188000D02*
X71755000Y-105918000D01*
X71755000Y-105918000D02*
X71247000Y-105410000D01*
X71247000Y-105410000D02*
X71247000Y-104521000D01*
X79853000Y-107188000D02*
X79853000Y-106015000D01*
X79853000Y-106015000D02*
X79756000Y-105918000D01*
X79853000Y-106015000D02*
X79248000Y-105410000D01*
X79248000Y-105410000D02*
X79248000Y-104521000D01*
X79262500Y-103998000D02*
X79262500Y-103773500D01*
X69562500Y-97498000D02*
X70066000Y-97498000D01*
X69562500Y-101498000D02*
X68174000Y-101498000D01*
X68174000Y-101498000D02*
X67691000Y-101981000D01*
X71755000Y-108966000D02*
X71755000Y-107696000D01*
X79883000Y-108966000D02*
X79883000Y-107823000D01*
X67691000Y-97663000D02*
X67818000Y-97536000D01*
X67818000Y-97536000D02*
X68961000Y-97536000D01*
X71120000Y-88392000D02*
X71120000Y-89535000D01*
X86106000Y-94488000D02*
X86106000Y-95123000D01*
X86106000Y-95123000D02*
X85979000Y-95250000D01*
X85979000Y-95250000D02*
X84328000Y-95250000D01*
X83947000Y-95171500D02*
X82471500Y-95171500D01*
X82471500Y-95171500D02*
X82423000Y-95123000D01*
X82423000Y-95123000D02*
X81534000Y-95123000D01*
X66929000Y-102743000D02*
X66421000Y-102743000D01*
X67691000Y-101981000D02*
X66929000Y-102743000D01*
X62103000Y-102743000D02*
X65532000Y-102743000D01*
X61341000Y-100717000D02*
X61341000Y-101981000D01*
X61341000Y-101981000D02*
X62103000Y-102743000D01*
D21*
%TO.N,Net-(D1-Pad2)*%
X104775000Y-87250000D02*
X104775000Y-85090000D01*
X104775000Y-85090000D02*
X104140000Y-84455000D01*
X104140000Y-84455000D02*
X100457000Y-84455000D01*
%TO.N,ROW0*%
X104775000Y-90550000D02*
X107949000Y-90550000D01*
X107949000Y-90550000D02*
X110109000Y-92710000D01*
X110109000Y-92710000D02*
X121920000Y-92710000D01*
X121920000Y-92710000D02*
X123063000Y-92710000D01*
X123063000Y-92710000D02*
X123825000Y-91948000D01*
X123825000Y-91948000D02*
X123825000Y-90678000D01*
X80962500Y-97498000D02*
X102908000Y-97498000D01*
X102908000Y-97498000D02*
X104775000Y-95631000D01*
X104775000Y-95631000D02*
X104775000Y-90678000D01*
%TO.N,Net-(D2-Pad2)*%
X123825000Y-87250000D02*
X123825000Y-85090000D01*
X123825000Y-85090000D02*
X123190000Y-84455000D01*
X123190000Y-84455000D02*
X119507000Y-84455000D01*
%TO.N,Net-(D3-Pad2)*%
X104775000Y-106300000D02*
X104775000Y-104140000D01*
X104775000Y-104140000D02*
X104140000Y-103505000D01*
X104140000Y-103505000D02*
X100330000Y-103505000D01*
%TO.N,ROW1*%
X104775000Y-109600000D02*
X106933000Y-109600000D01*
X106933000Y-109600000D02*
X106934000Y-109601000D01*
X106934000Y-109601000D02*
X107950000Y-109601000D01*
X107950000Y-109601000D02*
X110109000Y-111760000D01*
X110109000Y-111760000D02*
X121920000Y-111760000D01*
X121920000Y-111760000D02*
X123063000Y-111760000D01*
X123063000Y-111760000D02*
X123825000Y-110998000D01*
X123825000Y-110998000D02*
X123825000Y-109855000D01*
X80962500Y-99898000D02*
X81102000Y-99898000D01*
X81102000Y-99898000D02*
X81153000Y-99949000D01*
X81153000Y-99949000D02*
X87249000Y-99949000D01*
X87249000Y-99949000D02*
X88519000Y-101219000D01*
X88519000Y-101219000D02*
X88519000Y-108585000D01*
X88519000Y-108585000D02*
X91821000Y-111887000D01*
X91821000Y-111887000D02*
X103124000Y-111887000D01*
X103124000Y-111887000D02*
X104775000Y-110236000D01*
X104775000Y-110236000D02*
X104775000Y-109728000D01*
%TO.N,Net-(D4-Pad2)*%
X123825000Y-106300000D02*
X123825000Y-104140000D01*
X123825000Y-104140000D02*
X123190000Y-103505000D01*
X123190000Y-103505000D02*
X119380000Y-103505000D01*
D20*
%TO.N,VCC*%
X61341000Y-97917000D02*
X61341000Y-95885000D01*
X61341000Y-95885000D02*
X60833000Y-95377000D01*
X60833000Y-95377000D02*
X60833000Y-88265000D01*
X60833000Y-88265000D02*
X62103000Y-86995000D01*
X62103000Y-86995000D02*
X62103000Y-86487000D01*
D21*
%TO.N,COL0*%
X80962500Y-99098000D02*
X87541000Y-99098000D01*
X87541000Y-99098000D02*
X89535000Y-101092000D01*
X89535000Y-101092000D02*
X89535000Y-104521000D01*
X89535000Y-104521000D02*
X90678000Y-105664000D01*
X90678000Y-105664000D02*
X91948000Y-105664000D01*
%TO.N,COL1*%
X80962500Y-98298000D02*
X81153000Y-98298000D01*
X81153000Y-98298000D02*
X106807000Y-98298000D01*
X106807000Y-98298000D02*
X108331000Y-99822000D01*
X108331000Y-99822000D02*
X108331000Y-104521000D01*
X108331000Y-104521000D02*
X109347000Y-105537000D01*
X109347000Y-105537000D02*
X111125000Y-105537000D01*
%TO.N,Net-(R1-Pad2)*%
X69215000Y-89916000D02*
X69215000Y-90932000D01*
X69215000Y-90932000D02*
X69596000Y-91313000D01*
X69596000Y-91313000D02*
X71755000Y-91313000D01*
X71755000Y-91313000D02*
X72009000Y-91567000D01*
X72009000Y-91567000D02*
X72009000Y-92202000D01*
X60856000Y-114554000D02*
X59309000Y-114554000D01*
X67564000Y-90170000D02*
X68834000Y-90170000D01*
%TO.N,D+*%
X64389000Y-88900000D02*
X64389000Y-89281000D01*
X63678000Y-85598000D02*
X63678000Y-87071000D01*
X63678000Y-87071000D02*
X63500000Y-87249000D01*
X63500000Y-87249000D02*
X63500000Y-88265000D01*
X63500000Y-88265000D02*
X63500000Y-88392000D01*
X63500000Y-88392000D02*
X63881000Y-88773000D01*
%TO.N,Net-(R2-Pad1)*%
X64389000Y-91186000D02*
X64389000Y-91821000D01*
X63627000Y-99060000D02*
X64643000Y-100076000D01*
X63627000Y-92456000D02*
X63627000Y-99060000D01*
X64389000Y-91821000D02*
X63627000Y-92456000D01*
X67691000Y-100076000D02*
X68326000Y-100076000D01*
X67691000Y-100076000D02*
X67818000Y-100076000D01*
X64643000Y-100076000D02*
X67691000Y-100076000D01*
X68326000Y-100076000D02*
X68453000Y-99949000D01*
X68453000Y-99949000D02*
X68707000Y-99949000D01*
X68707000Y-99949000D02*
X69088000Y-99949000D01*
%TO.N,D-*%
X62878000Y-85598000D02*
X62878000Y-87135000D01*
X62878000Y-87135000D02*
X62992000Y-87249000D01*
X62992000Y-87249000D02*
X62992000Y-88265000D01*
X62992000Y-88265000D02*
X62992000Y-88392000D01*
X62992000Y-88392000D02*
X62611000Y-88773000D01*
X62611000Y-88773000D02*
X62484000Y-88900000D01*
%TO.N,Net-(R3-Pad1)*%
X67691000Y-100584000D02*
X68326000Y-100584000D01*
X67691000Y-100584000D02*
X67818000Y-100584000D01*
X68326000Y-100584000D02*
X68453000Y-100711000D01*
X68453000Y-100711000D02*
X68834000Y-100711000D01*
X63119000Y-99314000D02*
X64389000Y-100584000D01*
X64389000Y-100584000D02*
X67691000Y-100584000D01*
X63119000Y-92456000D02*
X63119000Y-99314000D01*
X62357000Y-91186000D02*
X62357000Y-91821000D01*
X62357000Y-91821000D02*
X63119000Y-92456000D01*
%TO.N,Net-(R4-Pad2)*%
X83566000Y-102392000D02*
X81691000Y-102392000D01*
%TD*%
%TO.N,GND*%
G36*
X58564487Y-80306889D02*
G01*
X58543000Y-80525050D01*
X58543000Y-81670949D01*
X58564487Y-81889110D01*
X58649401Y-82169033D01*
X58787294Y-82427013D01*
X58972866Y-82653134D01*
X59198986Y-82838706D01*
X59456966Y-82976599D01*
X59736889Y-83061513D01*
X60028000Y-83090185D01*
X60319110Y-83061513D01*
X60599033Y-82976599D01*
X60857013Y-82838706D01*
X61083134Y-82653134D01*
X61268706Y-82427014D01*
X61406599Y-82169034D01*
X61491513Y-81889111D01*
X61513000Y-81670950D01*
X61513000Y-80525050D01*
X61491513Y-80306889D01*
X61409036Y-80035000D01*
X65946964Y-80035000D01*
X65864487Y-80306889D01*
X65843000Y-80525050D01*
X65843000Y-81670949D01*
X65864487Y-81889110D01*
X65949401Y-82169033D01*
X66087294Y-82427013D01*
X66272866Y-82653134D01*
X66498986Y-82838706D01*
X66756966Y-82976599D01*
X67036889Y-83061513D01*
X67328000Y-83090185D01*
X67619110Y-83061513D01*
X67899033Y-82976599D01*
X68157013Y-82838706D01*
X68383134Y-82653134D01*
X68568706Y-82427014D01*
X68706599Y-82169034D01*
X68791513Y-81889111D01*
X68813000Y-81670950D01*
X68813000Y-80525050D01*
X68791513Y-80306889D01*
X68709036Y-80035000D01*
X87122000Y-80035000D01*
X87122000Y-94290541D01*
X87101226Y-94186102D01*
X87023205Y-93997744D01*
X86909937Y-93828226D01*
X86765774Y-93684063D01*
X86596256Y-93570795D01*
X86407898Y-93492774D01*
X86207939Y-93453000D01*
X86004061Y-93453000D01*
X85804102Y-93492774D01*
X85615744Y-93570795D01*
X85446226Y-93684063D01*
X85302063Y-93828226D01*
X85277026Y-93865697D01*
X85285072Y-93784000D01*
X85282000Y-93582250D01*
X85123250Y-93423500D01*
X84074000Y-93423500D01*
X84074000Y-93443500D01*
X83820000Y-93443500D01*
X83820000Y-93423500D01*
X82770750Y-93423500D01*
X82612000Y-93582250D01*
X82608928Y-93784000D01*
X82621188Y-93908482D01*
X82657498Y-94028180D01*
X82716463Y-94138494D01*
X82795815Y-94235185D01*
X82873564Y-94298992D01*
X82867208Y-94304208D01*
X82832910Y-94346000D01*
X82705335Y-94346000D01*
X82584826Y-94309444D01*
X82463553Y-94297500D01*
X82463550Y-94297500D01*
X82423000Y-94293506D01*
X82382450Y-94297500D01*
X82347500Y-94297500D01*
X82347500Y-94170998D01*
X82188752Y-94170998D01*
X82347500Y-94012250D01*
X82337677Y-93895369D01*
X82300765Y-93775855D01*
X82241246Y-93665839D01*
X82161408Y-93569549D01*
X82064318Y-93490684D01*
X81953708Y-93432276D01*
X81833829Y-93396570D01*
X81709287Y-93384936D01*
X81248250Y-93388000D01*
X81089500Y-93546750D01*
X81089500Y-94171000D01*
X81109500Y-94171000D01*
X81109500Y-94184928D01*
X80212500Y-94184928D01*
X80088018Y-94197188D01*
X79968320Y-94233498D01*
X79858006Y-94292463D01*
X79761315Y-94371815D01*
X79681963Y-94468506D01*
X79669583Y-94491667D01*
X79577500Y-94583750D01*
X79587046Y-94697337D01*
X79586688Y-94698518D01*
X79574428Y-94823000D01*
X79574428Y-95373000D01*
X79586688Y-95497482D01*
X79586845Y-95498000D01*
X79586688Y-95498518D01*
X79574428Y-95623000D01*
X79574428Y-96173000D01*
X79586688Y-96297482D01*
X79586845Y-96298000D01*
X79586688Y-96298518D01*
X79574428Y-96423000D01*
X79574428Y-96973000D01*
X79586688Y-97097482D01*
X79586845Y-97098000D01*
X79586688Y-97098518D01*
X79574428Y-97223000D01*
X79574428Y-97773000D01*
X79586688Y-97897482D01*
X79586845Y-97898000D01*
X79586688Y-97898518D01*
X79574428Y-98023000D01*
X79574428Y-98573000D01*
X79586688Y-98697482D01*
X79586845Y-98698000D01*
X79586688Y-98698518D01*
X79574428Y-98823000D01*
X79574428Y-99373000D01*
X79586688Y-99497482D01*
X79586845Y-99498000D01*
X79586688Y-99498518D01*
X79574428Y-99623000D01*
X79574428Y-100173000D01*
X79586688Y-100297482D01*
X79586845Y-100298000D01*
X79586688Y-100298518D01*
X79574428Y-100423000D01*
X79574428Y-100973000D01*
X79586688Y-101097482D01*
X79586845Y-101098000D01*
X79586688Y-101098518D01*
X79574428Y-101223000D01*
X79574428Y-101773000D01*
X79586688Y-101897482D01*
X79586845Y-101898000D01*
X79586688Y-101898518D01*
X79574428Y-102023000D01*
X79574428Y-102573000D01*
X79578462Y-102613962D01*
X79537500Y-102609928D01*
X78987500Y-102609928D01*
X78863018Y-102622188D01*
X78861837Y-102622546D01*
X78748250Y-102613000D01*
X78656167Y-102705083D01*
X78633006Y-102717463D01*
X78536315Y-102796815D01*
X78462500Y-102886759D01*
X78388685Y-102796815D01*
X78291994Y-102717463D01*
X78268833Y-102705083D01*
X78176750Y-102613000D01*
X78063163Y-102622546D01*
X78061982Y-102622188D01*
X77937500Y-102609928D01*
X77387500Y-102609928D01*
X77263018Y-102622188D01*
X77262500Y-102622345D01*
X77261982Y-102622188D01*
X77137500Y-102609928D01*
X76587500Y-102609928D01*
X76463018Y-102622188D01*
X76462500Y-102622345D01*
X76461982Y-102622188D01*
X76337500Y-102609928D01*
X75787500Y-102609928D01*
X75663018Y-102622188D01*
X75662500Y-102622345D01*
X75661982Y-102622188D01*
X75537500Y-102609928D01*
X74987500Y-102609928D01*
X74863018Y-102622188D01*
X74862500Y-102622345D01*
X74861982Y-102622188D01*
X74737500Y-102609928D01*
X74187500Y-102609928D01*
X74063018Y-102622188D01*
X74062500Y-102622345D01*
X74061982Y-102622188D01*
X73937500Y-102609928D01*
X73387500Y-102609928D01*
X73263018Y-102622188D01*
X73262500Y-102622345D01*
X73261982Y-102622188D01*
X73137500Y-102609928D01*
X72587500Y-102609928D01*
X72463018Y-102622188D01*
X72461837Y-102622546D01*
X72348250Y-102613000D01*
X72256167Y-102705083D01*
X72233006Y-102717463D01*
X72136315Y-102796815D01*
X72062500Y-102886759D01*
X71988685Y-102796815D01*
X71891994Y-102717463D01*
X71868833Y-102705083D01*
X71776750Y-102613000D01*
X71663163Y-102622546D01*
X71661982Y-102622188D01*
X71537500Y-102609928D01*
X70987500Y-102609928D01*
X70946538Y-102613962D01*
X70950572Y-102573000D01*
X70950572Y-102023000D01*
X70938312Y-101898518D01*
X70938155Y-101898000D01*
X70938312Y-101897482D01*
X70950572Y-101773000D01*
X70950572Y-101223000D01*
X70938312Y-101098518D01*
X70938155Y-101098000D01*
X70938312Y-101097482D01*
X70950572Y-100973000D01*
X70950572Y-100423000D01*
X70938312Y-100298518D01*
X70938155Y-100298000D01*
X70938312Y-100297482D01*
X70950572Y-100173000D01*
X70950572Y-99623000D01*
X70938312Y-99498518D01*
X70937954Y-99497337D01*
X70947500Y-99383750D01*
X70855417Y-99291667D01*
X70843037Y-99268506D01*
X70763685Y-99171815D01*
X70673741Y-99098000D01*
X70763685Y-99024185D01*
X70843037Y-98927494D01*
X70855417Y-98904333D01*
X70947500Y-98812250D01*
X70937954Y-98698663D01*
X70938312Y-98697482D01*
X70950572Y-98573000D01*
X70950572Y-98023000D01*
X70938312Y-97898518D01*
X70938155Y-97898000D01*
X70938312Y-97897482D01*
X70950572Y-97773000D01*
X70950572Y-97223000D01*
X70938312Y-97098518D01*
X70938155Y-97098000D01*
X70938312Y-97097482D01*
X70950572Y-96973000D01*
X70950572Y-96423000D01*
X70938312Y-96298518D01*
X70938155Y-96298000D01*
X70938312Y-96297482D01*
X70950572Y-96173000D01*
X70950572Y-95623000D01*
X70938312Y-95498518D01*
X70938155Y-95498000D01*
X70938312Y-95497482D01*
X70950572Y-95373000D01*
X70950572Y-94823000D01*
X70938312Y-94698518D01*
X70938155Y-94698000D01*
X70938312Y-94697482D01*
X70950572Y-94573000D01*
X70950572Y-94023000D01*
X70946538Y-93982038D01*
X70987500Y-93986072D01*
X71537500Y-93986072D01*
X71661982Y-93973812D01*
X71662500Y-93973655D01*
X71663018Y-93973812D01*
X71787500Y-93986072D01*
X72337500Y-93986072D01*
X72461982Y-93973812D01*
X72462500Y-93973655D01*
X72463018Y-93973812D01*
X72587500Y-93986072D01*
X73137500Y-93986072D01*
X73261982Y-93973812D01*
X73263163Y-93973454D01*
X73376750Y-93983000D01*
X73468833Y-93890917D01*
X73491994Y-93878537D01*
X73588685Y-93799185D01*
X73662500Y-93709241D01*
X73736315Y-93799185D01*
X73833006Y-93878537D01*
X73856167Y-93890917D01*
X73948250Y-93983000D01*
X74061837Y-93973454D01*
X74063018Y-93973812D01*
X74187500Y-93986072D01*
X74737500Y-93986072D01*
X74861982Y-93973812D01*
X74862500Y-93973655D01*
X74863018Y-93973812D01*
X74987500Y-93986072D01*
X75537500Y-93986072D01*
X75661982Y-93973812D01*
X75662500Y-93973655D01*
X75663018Y-93973812D01*
X75787500Y-93986072D01*
X76337500Y-93986072D01*
X76461982Y-93973812D01*
X76462500Y-93973655D01*
X76463018Y-93973812D01*
X76587500Y-93986072D01*
X77137500Y-93986072D01*
X77261982Y-93973812D01*
X77262500Y-93973655D01*
X77263018Y-93973812D01*
X77387500Y-93986072D01*
X77937500Y-93986072D01*
X78061982Y-93973812D01*
X78062500Y-93973655D01*
X78063018Y-93973812D01*
X78187500Y-93986072D01*
X78737500Y-93986072D01*
X78861982Y-93973812D01*
X78862500Y-93973655D01*
X78863018Y-93973812D01*
X78987500Y-93986072D01*
X79537500Y-93986072D01*
X79580052Y-93981881D01*
X79577500Y-94012250D01*
X79736250Y-94171000D01*
X80835500Y-94171000D01*
X80835500Y-93546750D01*
X80676750Y-93388000D01*
X80215713Y-93384936D01*
X80171528Y-93389064D01*
X80175572Y-93348000D01*
X80175572Y-92809000D01*
X82608928Y-92809000D01*
X82612000Y-93010750D01*
X82770750Y-93169500D01*
X83820000Y-93169500D01*
X83820000Y-92332750D01*
X84074000Y-92332750D01*
X84074000Y-93169500D01*
X85123250Y-93169500D01*
X85282000Y-93010750D01*
X85285072Y-92809000D01*
X85272812Y-92684518D01*
X85236502Y-92564820D01*
X85177537Y-92454506D01*
X85098185Y-92357815D01*
X85001494Y-92278463D01*
X84891180Y-92219498D01*
X84771482Y-92183188D01*
X84647000Y-92170928D01*
X84232750Y-92174000D01*
X84074000Y-92332750D01*
X83820000Y-92332750D01*
X83661250Y-92174000D01*
X83247000Y-92170928D01*
X83122518Y-92183188D01*
X83002820Y-92219498D01*
X82892506Y-92278463D01*
X82795815Y-92357815D01*
X82716463Y-92454506D01*
X82657498Y-92564820D01*
X82621188Y-92684518D01*
X82608928Y-92809000D01*
X80175572Y-92809000D01*
X80175572Y-91848000D01*
X80163312Y-91723518D01*
X80127002Y-91603820D01*
X80068037Y-91493506D01*
X79988685Y-91396815D01*
X79891994Y-91317463D01*
X79781680Y-91258498D01*
X79661982Y-91222188D01*
X79537500Y-91209928D01*
X78987500Y-91209928D01*
X78863018Y-91222188D01*
X78862500Y-91222345D01*
X78861982Y-91222188D01*
X78737500Y-91209928D01*
X78615703Y-91209928D01*
X78657392Y-91187645D01*
X78773422Y-91092422D01*
X78797284Y-91063346D01*
X78998346Y-90862284D01*
X79027422Y-90838422D01*
X79122645Y-90722392D01*
X79193402Y-90590015D01*
X79205600Y-90549803D01*
X79319732Y-90538562D01*
X79439430Y-90502252D01*
X79549744Y-90443287D01*
X79646435Y-90363935D01*
X79657215Y-90350800D01*
X79698836Y-90384958D01*
X79851291Y-90466447D01*
X80016715Y-90516628D01*
X80188750Y-90533572D01*
X81101250Y-90533572D01*
X81273285Y-90516628D01*
X81438709Y-90466447D01*
X81591164Y-90384958D01*
X81724792Y-90275292D01*
X81834458Y-90141664D01*
X81915947Y-89989209D01*
X81966128Y-89823785D01*
X81983072Y-89651750D01*
X81983072Y-89164250D01*
X81966128Y-88992215D01*
X81915947Y-88826791D01*
X81834458Y-88674336D01*
X81724792Y-88540708D01*
X81718436Y-88535492D01*
X81796185Y-88471685D01*
X81875537Y-88374994D01*
X81934502Y-88264680D01*
X81970812Y-88144982D01*
X81983072Y-88020500D01*
X81980000Y-87818750D01*
X81821250Y-87660000D01*
X80772000Y-87660000D01*
X80772000Y-87680000D01*
X80518000Y-87680000D01*
X80518000Y-87660000D01*
X79468750Y-87660000D01*
X79389000Y-87739750D01*
X78622250Y-87739750D01*
X78622250Y-87759750D01*
X78368250Y-87759750D01*
X78368250Y-87739750D01*
X78348250Y-87739750D01*
X78348250Y-87485750D01*
X78368250Y-87485750D01*
X78368250Y-86536500D01*
X78622250Y-86536500D01*
X78622250Y-87485750D01*
X79671500Y-87485750D01*
X79751250Y-87406000D01*
X80518000Y-87406000D01*
X80518000Y-86569250D01*
X80772000Y-86569250D01*
X80772000Y-87406000D01*
X81821250Y-87406000D01*
X81980000Y-87247250D01*
X81983072Y-87045500D01*
X81970812Y-86921018D01*
X81934502Y-86801320D01*
X81875537Y-86691006D01*
X81796185Y-86594315D01*
X81699494Y-86514963D01*
X81589180Y-86455998D01*
X81469482Y-86419688D01*
X81345000Y-86407428D01*
X80930750Y-86410500D01*
X80772000Y-86569250D01*
X80518000Y-86569250D01*
X80359250Y-86410500D01*
X79945000Y-86407428D01*
X79820518Y-86419688D01*
X79700820Y-86455998D01*
X79590506Y-86514963D01*
X79590078Y-86515314D01*
X79549744Y-86482213D01*
X79439430Y-86423248D01*
X79319732Y-86386938D01*
X79195250Y-86374678D01*
X78781000Y-86377750D01*
X78622250Y-86536500D01*
X78368250Y-86536500D01*
X78209500Y-86377750D01*
X77795250Y-86374678D01*
X77670768Y-86386938D01*
X77551070Y-86423248D01*
X77440756Y-86482213D01*
X77395250Y-86519559D01*
X77349744Y-86482213D01*
X77239430Y-86423248D01*
X77119732Y-86386938D01*
X76995250Y-86374678D01*
X75595250Y-86374678D01*
X75470768Y-86386938D01*
X75351070Y-86423248D01*
X75240756Y-86482213D01*
X75144065Y-86561565D01*
X75064713Y-86658256D01*
X75005748Y-86768570D01*
X74980819Y-86850750D01*
X74749939Y-86850750D01*
X74722458Y-86799336D01*
X74612792Y-86665708D01*
X74479164Y-86556042D01*
X74326709Y-86474553D01*
X74161285Y-86424372D01*
X73989250Y-86407428D01*
X73076750Y-86407428D01*
X72904715Y-86424372D01*
X72739291Y-86474553D01*
X72586836Y-86556042D01*
X72453208Y-86665708D01*
X72343542Y-86799336D01*
X72262053Y-86951791D01*
X72211872Y-87117215D01*
X72194928Y-87289250D01*
X72194928Y-87776750D01*
X72211872Y-87948785D01*
X72262053Y-88114209D01*
X72343542Y-88266664D01*
X72453208Y-88400292D01*
X72459564Y-88405508D01*
X72381815Y-88469315D01*
X72302463Y-88566006D01*
X72243498Y-88676320D01*
X72207188Y-88796018D01*
X72194928Y-88920500D01*
X72198000Y-89122250D01*
X72356748Y-89280998D01*
X72282491Y-89280998D01*
X72215842Y-89226301D01*
X72173062Y-89203434D01*
X72148447Y-89122291D01*
X72066958Y-88969836D01*
X72018301Y-88910548D01*
X72037205Y-88882256D01*
X72115226Y-88693898D01*
X72155000Y-88493939D01*
X72155000Y-88290061D01*
X72115226Y-88090102D01*
X72037205Y-87901744D01*
X71923937Y-87732226D01*
X71779774Y-87588063D01*
X71610256Y-87474795D01*
X71421898Y-87396774D01*
X71221939Y-87357000D01*
X71018061Y-87357000D01*
X70818102Y-87396774D01*
X70629744Y-87474795D01*
X70460226Y-87588063D01*
X70316063Y-87732226D01*
X70202795Y-87901744D01*
X70124774Y-88090102D01*
X70085000Y-88290061D01*
X70085000Y-88493939D01*
X70124774Y-88693898D01*
X70196798Y-88867779D01*
X70152500Y-88921756D01*
X70082292Y-88836208D01*
X69948664Y-88726542D01*
X69796209Y-88645053D01*
X69630785Y-88594872D01*
X69458750Y-88577928D01*
X68971250Y-88577928D01*
X68799215Y-88594872D01*
X68633791Y-88645053D01*
X68481336Y-88726542D01*
X68347708Y-88836208D01*
X68238042Y-88969836D01*
X68156553Y-89122291D01*
X68106397Y-89287634D01*
X68054256Y-89252795D01*
X67865898Y-89174774D01*
X67665939Y-89135000D01*
X67462061Y-89135000D01*
X67262102Y-89174774D01*
X67073744Y-89252795D01*
X66904226Y-89366063D01*
X66760063Y-89510226D01*
X66646795Y-89679744D01*
X66568774Y-89868102D01*
X66529000Y-90068061D01*
X66529000Y-90271939D01*
X66568774Y-90471898D01*
X66646795Y-90660256D01*
X66760063Y-90829774D01*
X66904226Y-90973937D01*
X67073744Y-91087205D01*
X67262102Y-91165226D01*
X67462061Y-91205000D01*
X67665939Y-91205000D01*
X67865898Y-91165226D01*
X68054256Y-91087205D01*
X68223774Y-90973937D01*
X68265711Y-90932000D01*
X68295355Y-90932000D01*
X68347708Y-90995792D01*
X68468015Y-91094526D01*
X68507599Y-91225015D01*
X68578355Y-91357392D01*
X68627784Y-91417621D01*
X68673579Y-91473422D01*
X68702649Y-91497279D01*
X69030716Y-91825346D01*
X69054578Y-91854422D01*
X69170608Y-91949645D01*
X69302985Y-92020402D01*
X69446622Y-92063974D01*
X69558574Y-92075000D01*
X69558576Y-92075000D01*
X69595999Y-92078686D01*
X69633422Y-92075000D01*
X70349428Y-92075000D01*
X70349428Y-93348000D01*
X70353462Y-93388962D01*
X70312500Y-93384928D01*
X68812500Y-93384928D01*
X68688018Y-93397188D01*
X68568320Y-93433498D01*
X68458006Y-93492463D01*
X68361315Y-93571815D01*
X68281963Y-93668506D01*
X68222998Y-93778820D01*
X68186688Y-93898518D01*
X68174428Y-94023000D01*
X68174428Y-94573000D01*
X68186688Y-94697482D01*
X68186845Y-94698000D01*
X68186688Y-94698518D01*
X68174428Y-94823000D01*
X68174428Y-95373000D01*
X68186688Y-95497482D01*
X68186845Y-95498000D01*
X68186688Y-95498518D01*
X68174428Y-95623000D01*
X68174428Y-96173000D01*
X68186688Y-96297482D01*
X68186845Y-96298000D01*
X68186688Y-96298518D01*
X68174428Y-96423000D01*
X68174428Y-96710500D01*
X68096047Y-96710500D01*
X67992898Y-96667774D01*
X67792939Y-96628000D01*
X67589061Y-96628000D01*
X67391856Y-96667226D01*
X67113284Y-96388654D01*
X67089422Y-96359578D01*
X67062252Y-96337281D01*
X67056947Y-96319791D01*
X66975458Y-96167336D01*
X66865792Y-96033708D01*
X66732164Y-95924042D01*
X66579709Y-95842553D01*
X66414285Y-95792372D01*
X66242250Y-95775428D01*
X65329750Y-95775428D01*
X65157715Y-95792372D01*
X64992291Y-95842553D01*
X64839836Y-95924042D01*
X64706208Y-96033708D01*
X64596542Y-96167336D01*
X64515053Y-96319791D01*
X64464872Y-96485215D01*
X64447928Y-96657250D01*
X64447928Y-97144750D01*
X64464872Y-97316785D01*
X64515053Y-97482209D01*
X64596542Y-97634664D01*
X64706208Y-97768292D01*
X64712564Y-97773508D01*
X64634815Y-97837315D01*
X64555463Y-97934006D01*
X64496498Y-98044320D01*
X64460188Y-98164018D01*
X64447928Y-98288500D01*
X64451000Y-98490250D01*
X64609750Y-98649000D01*
X65659000Y-98649000D01*
X65659000Y-98629000D01*
X65913000Y-98629000D01*
X65913000Y-98649000D01*
X65933000Y-98649000D01*
X65933000Y-98903000D01*
X65913000Y-98903000D01*
X65913000Y-98923000D01*
X65659000Y-98923000D01*
X65659000Y-98903000D01*
X64609750Y-98903000D01*
X64578690Y-98934060D01*
X64389000Y-98744370D01*
X64389000Y-92812902D01*
X64874698Y-92408154D01*
X64930422Y-92362422D01*
X64956105Y-92331127D01*
X64984517Y-92302285D01*
X64987630Y-92297549D01*
X65017285Y-92294628D01*
X65182709Y-92244447D01*
X65335164Y-92162958D01*
X65468792Y-92053292D01*
X65578458Y-91919664D01*
X65659947Y-91767209D01*
X65710128Y-91601785D01*
X65727072Y-91429750D01*
X65727072Y-90942250D01*
X65710128Y-90770215D01*
X65659947Y-90604791D01*
X65578458Y-90452336D01*
X65468792Y-90318708D01*
X65383244Y-90248500D01*
X65468792Y-90178292D01*
X65578458Y-90044664D01*
X65659947Y-89892209D01*
X65710128Y-89726785D01*
X65727072Y-89554750D01*
X65727072Y-89067250D01*
X65710128Y-88895215D01*
X65659947Y-88729791D01*
X65578458Y-88577336D01*
X65468792Y-88443708D01*
X65335164Y-88334042D01*
X65182709Y-88252553D01*
X65017285Y-88202372D01*
X64845250Y-88185428D01*
X64658378Y-88185428D01*
X64538377Y-88149026D01*
X64389000Y-88134314D01*
X64326135Y-88140505D01*
X64262000Y-88076370D01*
X64262000Y-87560540D01*
X64314645Y-87496392D01*
X64385402Y-87364015D01*
X64386295Y-87361072D01*
X64728000Y-87361072D01*
X64852482Y-87348812D01*
X64877266Y-87341294D01*
X64896639Y-87347404D01*
X64996250Y-87358000D01*
X65155000Y-87199250D01*
X65155000Y-87194033D01*
X65179185Y-87174185D01*
X65258537Y-87077494D01*
X65317502Y-86967180D01*
X65353812Y-86847482D01*
X65366072Y-86723000D01*
X65366072Y-84473000D01*
X65353812Y-84348518D01*
X65317502Y-84228820D01*
X65258537Y-84118506D01*
X65179185Y-84021815D01*
X65155000Y-84001967D01*
X65155000Y-83996750D01*
X65401000Y-83996750D01*
X65401000Y-85471000D01*
X65425000Y-85471000D01*
X65425000Y-85725000D01*
X65401000Y-85725000D01*
X65401000Y-87199250D01*
X65559750Y-87358000D01*
X65659361Y-87347404D01*
X65778652Y-87309779D01*
X65888311Y-87249604D01*
X65984123Y-87169193D01*
X66062406Y-87071634D01*
X66118123Y-86964578D01*
X66272866Y-87153134D01*
X66498986Y-87338706D01*
X66756966Y-87476599D01*
X67036889Y-87561513D01*
X67328000Y-87590185D01*
X67619110Y-87561513D01*
X67899033Y-87476599D01*
X68157013Y-87338706D01*
X68383134Y-87153134D01*
X68568706Y-86927014D01*
X68706599Y-86669034D01*
X68791513Y-86389111D01*
X68813000Y-86170950D01*
X68813000Y-85025050D01*
X68791513Y-84806889D01*
X68706599Y-84526966D01*
X68568706Y-84268986D01*
X68383134Y-84042866D01*
X68157014Y-83857294D01*
X67899034Y-83719401D01*
X67619111Y-83634487D01*
X67328000Y-83605815D01*
X67036890Y-83634487D01*
X66756967Y-83719401D01*
X66498987Y-83857294D01*
X66272867Y-84042866D01*
X66118123Y-84231421D01*
X66062406Y-84124366D01*
X65984123Y-84026807D01*
X65888311Y-83946396D01*
X65778652Y-83886221D01*
X65659361Y-83848596D01*
X65559750Y-83838000D01*
X65401000Y-83996750D01*
X65155000Y-83996750D01*
X64996250Y-83838000D01*
X64896639Y-83848596D01*
X64877266Y-83854706D01*
X64852482Y-83847188D01*
X64728000Y-83834928D01*
X64228000Y-83834928D01*
X64103518Y-83847188D01*
X64078000Y-83854929D01*
X64052482Y-83847188D01*
X63928000Y-83834928D01*
X63428000Y-83834928D01*
X63303518Y-83847188D01*
X63278000Y-83854929D01*
X63252482Y-83847188D01*
X63128000Y-83834928D01*
X62628000Y-83834928D01*
X62503518Y-83847188D01*
X62478000Y-83854929D01*
X62452482Y-83847188D01*
X62328000Y-83834928D01*
X61828000Y-83834928D01*
X61703518Y-83847188D01*
X61583820Y-83883498D01*
X61473506Y-83942463D01*
X61376815Y-84021815D01*
X61297463Y-84118506D01*
X61238498Y-84228820D01*
X61237754Y-84231271D01*
X61083134Y-84042866D01*
X60857014Y-83857294D01*
X60599034Y-83719401D01*
X60319111Y-83634487D01*
X60028000Y-83605815D01*
X59736890Y-83634487D01*
X59456967Y-83719401D01*
X59198987Y-83857294D01*
X58972867Y-84042866D01*
X58787294Y-84268986D01*
X58649401Y-84526966D01*
X58564487Y-84806889D01*
X58543000Y-85025050D01*
X58543000Y-86170949D01*
X58564487Y-86389110D01*
X58649401Y-86669033D01*
X58787294Y-86927013D01*
X58972866Y-87153134D01*
X59198986Y-87338706D01*
X59456966Y-87476599D01*
X59736889Y-87561513D01*
X60028000Y-87590185D01*
X60319110Y-87561513D01*
X60390803Y-87539765D01*
X60277961Y-87652607D01*
X60246460Y-87678459D01*
X60220609Y-87709959D01*
X60143301Y-87804158D01*
X60066647Y-87947567D01*
X60019445Y-88103174D01*
X60003506Y-88265000D01*
X60007501Y-88305560D01*
X60007500Y-95336449D01*
X60003506Y-95377000D01*
X60007500Y-95417550D01*
X60007500Y-95417552D01*
X60019444Y-95538825D01*
X60043213Y-95617180D01*
X60066647Y-95694433D01*
X60143301Y-95837842D01*
X60148722Y-95844447D01*
X60246459Y-95963541D01*
X60277966Y-95989398D01*
X60515501Y-96226933D01*
X60515501Y-96679257D01*
X60376150Y-96721528D01*
X60222614Y-96803595D01*
X60088038Y-96914038D01*
X59977595Y-97048614D01*
X59895528Y-97202150D01*
X59844992Y-97368746D01*
X59827928Y-97542000D01*
X59827928Y-98292000D01*
X59844992Y-98465254D01*
X59895528Y-98631850D01*
X59977595Y-98785386D01*
X60088038Y-98919962D01*
X60222614Y-99030405D01*
X60376150Y-99112472D01*
X60542746Y-99163008D01*
X60716000Y-99180072D01*
X61966000Y-99180072D01*
X62139254Y-99163008D01*
X62305850Y-99112472D01*
X62357001Y-99085131D01*
X62357001Y-99276567D01*
X62353314Y-99314000D01*
X62368027Y-99463378D01*
X62401113Y-99572447D01*
X62305850Y-99521528D01*
X62139254Y-99470992D01*
X61966000Y-99453928D01*
X60716000Y-99453928D01*
X60542746Y-99470992D01*
X60376150Y-99521528D01*
X60222614Y-99603595D01*
X60088038Y-99714038D01*
X59977595Y-99848614D01*
X59895528Y-100002150D01*
X59844992Y-100168746D01*
X59827928Y-100342000D01*
X59827928Y-101092000D01*
X59844992Y-101265254D01*
X59895528Y-101431850D01*
X59977595Y-101585386D01*
X60088038Y-101719962D01*
X60222614Y-101830405D01*
X60376150Y-101912472D01*
X60514133Y-101954328D01*
X60511506Y-101981000D01*
X60527445Y-102142826D01*
X60574647Y-102298433D01*
X60651301Y-102441842D01*
X60675441Y-102471256D01*
X60754460Y-102567541D01*
X60785961Y-102593393D01*
X61490611Y-103298044D01*
X61516459Y-103329541D01*
X61547955Y-103355389D01*
X61547958Y-103355392D01*
X61642157Y-103432699D01*
X61769243Y-103500628D01*
X61785566Y-103509353D01*
X61941174Y-103556556D01*
X62062447Y-103568500D01*
X62062449Y-103568500D01*
X62103000Y-103572494D01*
X62143550Y-103568500D01*
X65028290Y-103568500D01*
X65087208Y-103640292D01*
X65093564Y-103645508D01*
X65015815Y-103709315D01*
X64936463Y-103806006D01*
X64877498Y-103916320D01*
X64841188Y-104036018D01*
X64828928Y-104160500D01*
X64832000Y-104362250D01*
X64990750Y-104521000D01*
X66040000Y-104521000D01*
X66040000Y-104501000D01*
X66294000Y-104501000D01*
X66294000Y-104521000D01*
X67343250Y-104521000D01*
X67502000Y-104362250D01*
X67505072Y-104160500D01*
X67492812Y-104036018D01*
X67456502Y-103916320D01*
X67397537Y-103806006D01*
X67318185Y-103709315D01*
X67240436Y-103645508D01*
X67246792Y-103640292D01*
X67356458Y-103506664D01*
X67400800Y-103423706D01*
X67515541Y-103329541D01*
X67541397Y-103298035D01*
X67831004Y-103008428D01*
X67992898Y-102976226D01*
X68181256Y-102898205D01*
X68243925Y-102856331D01*
X68281963Y-102927494D01*
X68361315Y-103024185D01*
X68458006Y-103103537D01*
X68568320Y-103162502D01*
X68688018Y-103198812D01*
X68812500Y-103211072D01*
X70312500Y-103211072D01*
X70353462Y-103207038D01*
X70349428Y-103248000D01*
X70349428Y-104748000D01*
X70361688Y-104872482D01*
X70397998Y-104992180D01*
X70421500Y-105036148D01*
X70421500Y-105369450D01*
X70417506Y-105410000D01*
X70421500Y-105450550D01*
X70421500Y-105450552D01*
X70433444Y-105571825D01*
X70462023Y-105666037D01*
X70480647Y-105727433D01*
X70557301Y-105870842D01*
X70562722Y-105877447D01*
X70569497Y-105885702D01*
X70491982Y-105862188D01*
X70367500Y-105849928D01*
X70165750Y-105853000D01*
X70007000Y-106011750D01*
X70007000Y-107061000D01*
X70027000Y-107061000D01*
X70027000Y-107315000D01*
X70007000Y-107315000D01*
X70007000Y-108364250D01*
X70165750Y-108523000D01*
X70367500Y-108526072D01*
X70491982Y-108513812D01*
X70611680Y-108477502D01*
X70721994Y-108418537D01*
X70818685Y-108339185D01*
X70882492Y-108261436D01*
X70887708Y-108267792D01*
X70929501Y-108302090D01*
X70929500Y-108338497D01*
X70837795Y-108475744D01*
X70759774Y-108664102D01*
X70720000Y-108864061D01*
X70720000Y-109067939D01*
X70759774Y-109267898D01*
X70837795Y-109456256D01*
X70951063Y-109625774D01*
X71095226Y-109769937D01*
X71264744Y-109883205D01*
X71453102Y-109961226D01*
X71653061Y-110001000D01*
X71856939Y-110001000D01*
X72056898Y-109961226D01*
X72245256Y-109883205D01*
X72414774Y-109769937D01*
X72558937Y-109625774D01*
X72672205Y-109456256D01*
X72750226Y-109267898D01*
X72790000Y-109067939D01*
X72790000Y-108864061D01*
X72750226Y-108664102D01*
X72672205Y-108475744D01*
X72580500Y-108338497D01*
X72580500Y-108302090D01*
X72622292Y-108267792D01*
X72731958Y-108134164D01*
X72795652Y-108015000D01*
X76930928Y-108015000D01*
X76943188Y-108139482D01*
X76979498Y-108259180D01*
X77038463Y-108369494D01*
X77117815Y-108466185D01*
X77214506Y-108545537D01*
X77324820Y-108604502D01*
X77444518Y-108640812D01*
X77569000Y-108653072D01*
X77770750Y-108650000D01*
X77929500Y-108491250D01*
X77929500Y-107442000D01*
X77092750Y-107442000D01*
X76934000Y-107600750D01*
X76930928Y-108015000D01*
X72795652Y-108015000D01*
X72813447Y-107981709D01*
X72863628Y-107816285D01*
X72880572Y-107644250D01*
X72880572Y-106731750D01*
X72869074Y-106615000D01*
X76930928Y-106615000D01*
X76934000Y-107029250D01*
X77092750Y-107188000D01*
X77929500Y-107188000D01*
X77929500Y-106138750D01*
X77770750Y-105980000D01*
X77569000Y-105976928D01*
X77444518Y-105989188D01*
X77324820Y-106025498D01*
X77214506Y-106084463D01*
X77117815Y-106163815D01*
X77038463Y-106260506D01*
X76979498Y-106370820D01*
X76943188Y-106490518D01*
X76930928Y-106615000D01*
X72869074Y-106615000D01*
X72863628Y-106559715D01*
X72813447Y-106394291D01*
X72731958Y-106241836D01*
X72622292Y-106108208D01*
X72580500Y-106073910D01*
X72580500Y-105958539D01*
X72584493Y-105917999D01*
X72580500Y-105877459D01*
X72580500Y-105877447D01*
X72568556Y-105756174D01*
X72521353Y-105600566D01*
X72444699Y-105457158D01*
X72444698Y-105457156D01*
X72418563Y-105425311D01*
X72381543Y-105380202D01*
X72461837Y-105373454D01*
X72463018Y-105373812D01*
X72587500Y-105386072D01*
X73137500Y-105386072D01*
X73261982Y-105373812D01*
X73262500Y-105373655D01*
X73263018Y-105373812D01*
X73387500Y-105386072D01*
X73937500Y-105386072D01*
X74061982Y-105373812D01*
X74062500Y-105373655D01*
X74063018Y-105373812D01*
X74187500Y-105386072D01*
X74737500Y-105386072D01*
X74861982Y-105373812D01*
X74862500Y-105373655D01*
X74863018Y-105373812D01*
X74987500Y-105386072D01*
X75537500Y-105386072D01*
X75661982Y-105373812D01*
X75662500Y-105373655D01*
X75663018Y-105373812D01*
X75787500Y-105386072D01*
X76337500Y-105386072D01*
X76461982Y-105373812D01*
X76462500Y-105373655D01*
X76463018Y-105373812D01*
X76587500Y-105386072D01*
X77137500Y-105386072D01*
X77261982Y-105373812D01*
X77262500Y-105373655D01*
X77263018Y-105373812D01*
X77387500Y-105386072D01*
X77937500Y-105386072D01*
X78061982Y-105373812D01*
X78063163Y-105373454D01*
X78176750Y-105383000D01*
X78268833Y-105290917D01*
X78291994Y-105278537D01*
X78335498Y-105242834D01*
X78335498Y-105383000D01*
X78421165Y-105383000D01*
X78418506Y-105410000D01*
X78422500Y-105450550D01*
X78422500Y-105450552D01*
X78434444Y-105571825D01*
X78463023Y-105666037D01*
X78481647Y-105727433D01*
X78558301Y-105870842D01*
X78563722Y-105877447D01*
X78654276Y-105987789D01*
X78544000Y-105976928D01*
X78342250Y-105980000D01*
X78183500Y-106138750D01*
X78183500Y-107188000D01*
X78203500Y-107188000D01*
X78203500Y-107442000D01*
X78183500Y-107442000D01*
X78183500Y-108491250D01*
X78342250Y-108650000D01*
X78544000Y-108653072D01*
X78668482Y-108640812D01*
X78788180Y-108604502D01*
X78898494Y-108545537D01*
X78956658Y-108497804D01*
X78887774Y-108664102D01*
X78848000Y-108864061D01*
X78848000Y-109067939D01*
X78887774Y-109267898D01*
X78965795Y-109456256D01*
X79079063Y-109625774D01*
X79223226Y-109769937D01*
X79392744Y-109883205D01*
X79581102Y-109961226D01*
X79781061Y-110001000D01*
X79984939Y-110001000D01*
X80184898Y-109961226D01*
X80373256Y-109883205D01*
X80542774Y-109769937D01*
X80686937Y-109625774D01*
X80800205Y-109456256D01*
X80878226Y-109267898D01*
X80918000Y-109067939D01*
X80918000Y-108864061D01*
X80878226Y-108664102D01*
X80800205Y-108475744D01*
X80764771Y-108422713D01*
X80798792Y-108394792D01*
X80908458Y-108261164D01*
X80989947Y-108108709D01*
X81040128Y-107943285D01*
X81057072Y-107771250D01*
X81057072Y-106858750D01*
X81040128Y-106686715D01*
X80989947Y-106521291D01*
X80908458Y-106368836D01*
X80798792Y-106235208D01*
X80678500Y-106136487D01*
X80678500Y-106055550D01*
X80682494Y-106015000D01*
X80678500Y-105974447D01*
X80666556Y-105853174D01*
X80619353Y-105697566D01*
X80552143Y-105571826D01*
X80542699Y-105554157D01*
X80465391Y-105459958D01*
X80439541Y-105428459D01*
X80408039Y-105402606D01*
X80081932Y-105076499D01*
X80127002Y-104992180D01*
X80163312Y-104872482D01*
X80174931Y-104754500D01*
X82227928Y-104754500D01*
X82240188Y-104878982D01*
X82276498Y-104998680D01*
X82335463Y-105108994D01*
X82414815Y-105205685D01*
X82511506Y-105285037D01*
X82621820Y-105344002D01*
X82741518Y-105380312D01*
X82866000Y-105392572D01*
X83280250Y-105389500D01*
X83439000Y-105230750D01*
X83439000Y-104394000D01*
X83693000Y-104394000D01*
X83693000Y-105230750D01*
X83851750Y-105389500D01*
X84266000Y-105392572D01*
X84390482Y-105380312D01*
X84510180Y-105344002D01*
X84620494Y-105285037D01*
X84717185Y-105205685D01*
X84796537Y-105108994D01*
X84855502Y-104998680D01*
X84891812Y-104878982D01*
X84904072Y-104754500D01*
X84901000Y-104552750D01*
X84742250Y-104394000D01*
X83693000Y-104394000D01*
X83439000Y-104394000D01*
X82389750Y-104394000D01*
X82231000Y-104552750D01*
X82227928Y-104754500D01*
X80174931Y-104754500D01*
X80175572Y-104748000D01*
X80175572Y-103248000D01*
X80171538Y-103207038D01*
X80212500Y-103211072D01*
X81712500Y-103211072D01*
X81836982Y-103198812D01*
X81956680Y-103162502D01*
X81972586Y-103154000D01*
X82399797Y-103154000D01*
X82486208Y-103259292D01*
X82492564Y-103264508D01*
X82414815Y-103328315D01*
X82335463Y-103425006D01*
X82276498Y-103535320D01*
X82240188Y-103655018D01*
X82227928Y-103779500D01*
X82231000Y-103981250D01*
X82389750Y-104140000D01*
X83439000Y-104140000D01*
X83439000Y-104120000D01*
X83693000Y-104120000D01*
X83693000Y-104140000D01*
X84742250Y-104140000D01*
X84901000Y-103981250D01*
X84904072Y-103779500D01*
X84891812Y-103655018D01*
X84855502Y-103535320D01*
X84796537Y-103425006D01*
X84717185Y-103328315D01*
X84639436Y-103264508D01*
X84645792Y-103259292D01*
X84755458Y-103125664D01*
X84836947Y-102973209D01*
X84887128Y-102807785D01*
X84904072Y-102635750D01*
X84904072Y-102148250D01*
X84887128Y-101976215D01*
X84836947Y-101810791D01*
X84755458Y-101658336D01*
X84645792Y-101524708D01*
X84512164Y-101415042D01*
X84359709Y-101333553D01*
X84194285Y-101283372D01*
X84022250Y-101266428D01*
X83109750Y-101266428D01*
X82937715Y-101283372D01*
X82772291Y-101333553D01*
X82619836Y-101415042D01*
X82486208Y-101524708D01*
X82399797Y-101630000D01*
X82350572Y-101630000D01*
X82350572Y-101223000D01*
X82338312Y-101098518D01*
X82338155Y-101098000D01*
X82338312Y-101097482D01*
X82350572Y-100973000D01*
X82350572Y-100711000D01*
X86933370Y-100711000D01*
X87122000Y-100899630D01*
X87122000Y-116815000D01*
X57182280Y-116815000D01*
X56970462Y-116794231D01*
X56797764Y-116742091D01*
X56638482Y-116657399D01*
X56498679Y-116543378D01*
X56383694Y-116404385D01*
X56297890Y-116245695D01*
X56244545Y-116073365D01*
X56222500Y-115863619D01*
X56222500Y-114452061D01*
X58274000Y-114452061D01*
X58274000Y-114655939D01*
X58313774Y-114855898D01*
X58391795Y-115044256D01*
X58505063Y-115213774D01*
X58649226Y-115357937D01*
X58818744Y-115471205D01*
X59007102Y-115549226D01*
X59207061Y-115589000D01*
X59410939Y-115589000D01*
X59519666Y-115567373D01*
X59601506Y-115634537D01*
X59711820Y-115693502D01*
X59831518Y-115729812D01*
X59956000Y-115742072D01*
X61756000Y-115742072D01*
X61880482Y-115729812D01*
X62000180Y-115693502D01*
X62110494Y-115634537D01*
X62207185Y-115555185D01*
X62286537Y-115458494D01*
X62345502Y-115348180D01*
X62381812Y-115228482D01*
X62394072Y-115104000D01*
X62394072Y-114004000D01*
X65517928Y-114004000D01*
X65517928Y-115104000D01*
X65530188Y-115228482D01*
X65566498Y-115348180D01*
X65625463Y-115458494D01*
X65704815Y-115555185D01*
X65801506Y-115634537D01*
X65911820Y-115693502D01*
X66031518Y-115729812D01*
X66156000Y-115742072D01*
X67956000Y-115742072D01*
X68080482Y-115729812D01*
X68200180Y-115693502D01*
X68310494Y-115634537D01*
X68407185Y-115555185D01*
X68486537Y-115458494D01*
X68545502Y-115348180D01*
X68581812Y-115228482D01*
X68594072Y-115104000D01*
X68594072Y-114004000D01*
X68581812Y-113879518D01*
X68545502Y-113759820D01*
X68486537Y-113649506D01*
X68407185Y-113552815D01*
X68310494Y-113473463D01*
X68200180Y-113414498D01*
X68080482Y-113378188D01*
X67956000Y-113365928D01*
X66156000Y-113365928D01*
X66031518Y-113378188D01*
X65911820Y-113414498D01*
X65801506Y-113473463D01*
X65704815Y-113552815D01*
X65625463Y-113649506D01*
X65566498Y-113759820D01*
X65530188Y-113879518D01*
X65517928Y-114004000D01*
X62394072Y-114004000D01*
X62381812Y-113879518D01*
X62345502Y-113759820D01*
X62286537Y-113649506D01*
X62207185Y-113552815D01*
X62110494Y-113473463D01*
X62000180Y-113414498D01*
X61880482Y-113378188D01*
X61756000Y-113365928D01*
X59956000Y-113365928D01*
X59831518Y-113378188D01*
X59711820Y-113414498D01*
X59601506Y-113473463D01*
X59519666Y-113540627D01*
X59410939Y-113519000D01*
X59207061Y-113519000D01*
X59007102Y-113558774D01*
X58818744Y-113636795D01*
X58649226Y-113750063D01*
X58505063Y-113894226D01*
X58391795Y-114063744D01*
X58313774Y-114252102D01*
X58274000Y-114452061D01*
X56222500Y-114452061D01*
X56222500Y-110304000D01*
X59317928Y-110304000D01*
X59317928Y-111404000D01*
X59330188Y-111528482D01*
X59366498Y-111648180D01*
X59425463Y-111758494D01*
X59504815Y-111855185D01*
X59601506Y-111934537D01*
X59711820Y-111993502D01*
X59831518Y-112029812D01*
X59956000Y-112042072D01*
X61756000Y-112042072D01*
X61880482Y-112029812D01*
X62000180Y-111993502D01*
X62110494Y-111934537D01*
X62207185Y-111855185D01*
X62286537Y-111758494D01*
X62345502Y-111648180D01*
X62381812Y-111528482D01*
X62394072Y-111404000D01*
X65517928Y-111404000D01*
X65530188Y-111528482D01*
X65566498Y-111648180D01*
X65625463Y-111758494D01*
X65704815Y-111855185D01*
X65801506Y-111934537D01*
X65911820Y-111993502D01*
X66031518Y-112029812D01*
X66156000Y-112042072D01*
X66770250Y-112039000D01*
X66929000Y-111880250D01*
X66929000Y-110981000D01*
X67183000Y-110981000D01*
X67183000Y-111880250D01*
X67341750Y-112039000D01*
X67956000Y-112042072D01*
X68080482Y-112029812D01*
X68200180Y-111993502D01*
X68310494Y-111934537D01*
X68407185Y-111855185D01*
X68486537Y-111758494D01*
X68545502Y-111648180D01*
X68581812Y-111528482D01*
X68594072Y-111404000D01*
X68591000Y-111139750D01*
X68432250Y-110981000D01*
X67183000Y-110981000D01*
X66929000Y-110981000D01*
X65679750Y-110981000D01*
X65521000Y-111139750D01*
X65517928Y-111404000D01*
X62394072Y-111404000D01*
X62394072Y-110304000D01*
X65517928Y-110304000D01*
X65521000Y-110568250D01*
X65679750Y-110727000D01*
X66929000Y-110727000D01*
X66929000Y-109827750D01*
X67183000Y-109827750D01*
X67183000Y-110727000D01*
X68432250Y-110727000D01*
X68591000Y-110568250D01*
X68594072Y-110304000D01*
X68581812Y-110179518D01*
X68545502Y-110059820D01*
X68486537Y-109949506D01*
X68407185Y-109852815D01*
X68310494Y-109773463D01*
X68200180Y-109714498D01*
X68080482Y-109678188D01*
X67956000Y-109665928D01*
X67341750Y-109669000D01*
X67183000Y-109827750D01*
X66929000Y-109827750D01*
X66770250Y-109669000D01*
X66156000Y-109665928D01*
X66031518Y-109678188D01*
X65911820Y-109714498D01*
X65801506Y-109773463D01*
X65704815Y-109852815D01*
X65625463Y-109949506D01*
X65566498Y-110059820D01*
X65530188Y-110179518D01*
X65517928Y-110304000D01*
X62394072Y-110304000D01*
X62381812Y-110179518D01*
X62345502Y-110059820D01*
X62286537Y-109949506D01*
X62207185Y-109852815D01*
X62110494Y-109773463D01*
X62000180Y-109714498D01*
X61880482Y-109678188D01*
X61756000Y-109665928D01*
X59956000Y-109665928D01*
X59831518Y-109678188D01*
X59711820Y-109714498D01*
X59601506Y-109773463D01*
X59504815Y-109852815D01*
X59425463Y-109949506D01*
X59366498Y-110059820D01*
X59330188Y-110179518D01*
X59317928Y-110304000D01*
X56222500Y-110304000D01*
X56222500Y-107888000D01*
X68754428Y-107888000D01*
X68766688Y-108012482D01*
X68802998Y-108132180D01*
X68861963Y-108242494D01*
X68941315Y-108339185D01*
X69038006Y-108418537D01*
X69148320Y-108477502D01*
X69268018Y-108513812D01*
X69392500Y-108526072D01*
X69594250Y-108523000D01*
X69753000Y-108364250D01*
X69753000Y-107315000D01*
X68916250Y-107315000D01*
X68757500Y-107473750D01*
X68754428Y-107888000D01*
X56222500Y-107888000D01*
X56222500Y-106488000D01*
X68754428Y-106488000D01*
X68757500Y-106902250D01*
X68916250Y-107061000D01*
X69753000Y-107061000D01*
X69753000Y-106011750D01*
X69594250Y-105853000D01*
X69392500Y-105849928D01*
X69268018Y-105862188D01*
X69148320Y-105898498D01*
X69038006Y-105957463D01*
X68941315Y-106036815D01*
X68861963Y-106133506D01*
X68802998Y-106243820D01*
X68766688Y-106363518D01*
X68754428Y-106488000D01*
X56222500Y-106488000D01*
X56222500Y-105135500D01*
X64828928Y-105135500D01*
X64841188Y-105259982D01*
X64877498Y-105379680D01*
X64936463Y-105489994D01*
X65015815Y-105586685D01*
X65112506Y-105666037D01*
X65222820Y-105725002D01*
X65342518Y-105761312D01*
X65467000Y-105773572D01*
X65881250Y-105770500D01*
X66040000Y-105611750D01*
X66040000Y-104775000D01*
X66294000Y-104775000D01*
X66294000Y-105611750D01*
X66452750Y-105770500D01*
X66867000Y-105773572D01*
X66991482Y-105761312D01*
X67111180Y-105725002D01*
X67221494Y-105666037D01*
X67318185Y-105586685D01*
X67397537Y-105489994D01*
X67456502Y-105379680D01*
X67492812Y-105259982D01*
X67505072Y-105135500D01*
X67502000Y-104933750D01*
X67343250Y-104775000D01*
X66294000Y-104775000D01*
X66040000Y-104775000D01*
X64990750Y-104775000D01*
X64832000Y-104933750D01*
X64828928Y-105135500D01*
X56222500Y-105135500D01*
X56222500Y-80994779D01*
X56243269Y-80782962D01*
X56295410Y-80610263D01*
X56380102Y-80450982D01*
X56494119Y-80311181D01*
X56633117Y-80196192D01*
X56791805Y-80110390D01*
X56964135Y-80057045D01*
X57173880Y-80035000D01*
X58646964Y-80035000D01*
X58564487Y-80306889D01*
G37*
X58564487Y-80306889D02*
X58543000Y-80525050D01*
X58543000Y-81670949D01*
X58564487Y-81889110D01*
X58649401Y-82169033D01*
X58787294Y-82427013D01*
X58972866Y-82653134D01*
X59198986Y-82838706D01*
X59456966Y-82976599D01*
X59736889Y-83061513D01*
X60028000Y-83090185D01*
X60319110Y-83061513D01*
X60599033Y-82976599D01*
X60857013Y-82838706D01*
X61083134Y-82653134D01*
X61268706Y-82427014D01*
X61406599Y-82169034D01*
X61491513Y-81889111D01*
X61513000Y-81670950D01*
X61513000Y-80525050D01*
X61491513Y-80306889D01*
X61409036Y-80035000D01*
X65946964Y-80035000D01*
X65864487Y-80306889D01*
X65843000Y-80525050D01*
X65843000Y-81670949D01*
X65864487Y-81889110D01*
X65949401Y-82169033D01*
X66087294Y-82427013D01*
X66272866Y-82653134D01*
X66498986Y-82838706D01*
X66756966Y-82976599D01*
X67036889Y-83061513D01*
X67328000Y-83090185D01*
X67619110Y-83061513D01*
X67899033Y-82976599D01*
X68157013Y-82838706D01*
X68383134Y-82653134D01*
X68568706Y-82427014D01*
X68706599Y-82169034D01*
X68791513Y-81889111D01*
X68813000Y-81670950D01*
X68813000Y-80525050D01*
X68791513Y-80306889D01*
X68709036Y-80035000D01*
X87122000Y-80035000D01*
X87122000Y-94290541D01*
X87101226Y-94186102D01*
X87023205Y-93997744D01*
X86909937Y-93828226D01*
X86765774Y-93684063D01*
X86596256Y-93570795D01*
X86407898Y-93492774D01*
X86207939Y-93453000D01*
X86004061Y-93453000D01*
X85804102Y-93492774D01*
X85615744Y-93570795D01*
X85446226Y-93684063D01*
X85302063Y-93828226D01*
X85277026Y-93865697D01*
X85285072Y-93784000D01*
X85282000Y-93582250D01*
X85123250Y-93423500D01*
X84074000Y-93423500D01*
X84074000Y-93443500D01*
X83820000Y-93443500D01*
X83820000Y-93423500D01*
X82770750Y-93423500D01*
X82612000Y-93582250D01*
X82608928Y-93784000D01*
X82621188Y-93908482D01*
X82657498Y-94028180D01*
X82716463Y-94138494D01*
X82795815Y-94235185D01*
X82873564Y-94298992D01*
X82867208Y-94304208D01*
X82832910Y-94346000D01*
X82705335Y-94346000D01*
X82584826Y-94309444D01*
X82463553Y-94297500D01*
X82463550Y-94297500D01*
X82423000Y-94293506D01*
X82382450Y-94297500D01*
X82347500Y-94297500D01*
X82347500Y-94170998D01*
X82188752Y-94170998D01*
X82347500Y-94012250D01*
X82337677Y-93895369D01*
X82300765Y-93775855D01*
X82241246Y-93665839D01*
X82161408Y-93569549D01*
X82064318Y-93490684D01*
X81953708Y-93432276D01*
X81833829Y-93396570D01*
X81709287Y-93384936D01*
X81248250Y-93388000D01*
X81089500Y-93546750D01*
X81089500Y-94171000D01*
X81109500Y-94171000D01*
X81109500Y-94184928D01*
X80212500Y-94184928D01*
X80088018Y-94197188D01*
X79968320Y-94233498D01*
X79858006Y-94292463D01*
X79761315Y-94371815D01*
X79681963Y-94468506D01*
X79669583Y-94491667D01*
X79577500Y-94583750D01*
X79587046Y-94697337D01*
X79586688Y-94698518D01*
X79574428Y-94823000D01*
X79574428Y-95373000D01*
X79586688Y-95497482D01*
X79586845Y-95498000D01*
X79586688Y-95498518D01*
X79574428Y-95623000D01*
X79574428Y-96173000D01*
X79586688Y-96297482D01*
X79586845Y-96298000D01*
X79586688Y-96298518D01*
X79574428Y-96423000D01*
X79574428Y-96973000D01*
X79586688Y-97097482D01*
X79586845Y-97098000D01*
X79586688Y-97098518D01*
X79574428Y-97223000D01*
X79574428Y-97773000D01*
X79586688Y-97897482D01*
X79586845Y-97898000D01*
X79586688Y-97898518D01*
X79574428Y-98023000D01*
X79574428Y-98573000D01*
X79586688Y-98697482D01*
X79586845Y-98698000D01*
X79586688Y-98698518D01*
X79574428Y-98823000D01*
X79574428Y-99373000D01*
X79586688Y-99497482D01*
X79586845Y-99498000D01*
X79586688Y-99498518D01*
X79574428Y-99623000D01*
X79574428Y-100173000D01*
X79586688Y-100297482D01*
X79586845Y-100298000D01*
X79586688Y-100298518D01*
X79574428Y-100423000D01*
X79574428Y-100973000D01*
X79586688Y-101097482D01*
X79586845Y-101098000D01*
X79586688Y-101098518D01*
X79574428Y-101223000D01*
X79574428Y-101773000D01*
X79586688Y-101897482D01*
X79586845Y-101898000D01*
X79586688Y-101898518D01*
X79574428Y-102023000D01*
X79574428Y-102573000D01*
X79578462Y-102613962D01*
X79537500Y-102609928D01*
X78987500Y-102609928D01*
X78863018Y-102622188D01*
X78861837Y-102622546D01*
X78748250Y-102613000D01*
X78656167Y-102705083D01*
X78633006Y-102717463D01*
X78536315Y-102796815D01*
X78462500Y-102886759D01*
X78388685Y-102796815D01*
X78291994Y-102717463D01*
X78268833Y-102705083D01*
X78176750Y-102613000D01*
X78063163Y-102622546D01*
X78061982Y-102622188D01*
X77937500Y-102609928D01*
X77387500Y-102609928D01*
X77263018Y-102622188D01*
X77262500Y-102622345D01*
X77261982Y-102622188D01*
X77137500Y-102609928D01*
X76587500Y-102609928D01*
X76463018Y-102622188D01*
X76462500Y-102622345D01*
X76461982Y-102622188D01*
X76337500Y-102609928D01*
X75787500Y-102609928D01*
X75663018Y-102622188D01*
X75662500Y-102622345D01*
X75661982Y-102622188D01*
X75537500Y-102609928D01*
X74987500Y-102609928D01*
X74863018Y-102622188D01*
X74862500Y-102622345D01*
X74861982Y-102622188D01*
X74737500Y-102609928D01*
X74187500Y-102609928D01*
X74063018Y-102622188D01*
X74062500Y-102622345D01*
X74061982Y-102622188D01*
X73937500Y-102609928D01*
X73387500Y-102609928D01*
X73263018Y-102622188D01*
X73262500Y-102622345D01*
X73261982Y-102622188D01*
X73137500Y-102609928D01*
X72587500Y-102609928D01*
X72463018Y-102622188D01*
X72461837Y-102622546D01*
X72348250Y-102613000D01*
X72256167Y-102705083D01*
X72233006Y-102717463D01*
X72136315Y-102796815D01*
X72062500Y-102886759D01*
X71988685Y-102796815D01*
X71891994Y-102717463D01*
X71868833Y-102705083D01*
X71776750Y-102613000D01*
X71663163Y-102622546D01*
X71661982Y-102622188D01*
X71537500Y-102609928D01*
X70987500Y-102609928D01*
X70946538Y-102613962D01*
X70950572Y-102573000D01*
X70950572Y-102023000D01*
X70938312Y-101898518D01*
X70938155Y-101898000D01*
X70938312Y-101897482D01*
X70950572Y-101773000D01*
X70950572Y-101223000D01*
X70938312Y-101098518D01*
X70938155Y-101098000D01*
X70938312Y-101097482D01*
X70950572Y-100973000D01*
X70950572Y-100423000D01*
X70938312Y-100298518D01*
X70938155Y-100298000D01*
X70938312Y-100297482D01*
X70950572Y-100173000D01*
X70950572Y-99623000D01*
X70938312Y-99498518D01*
X70937954Y-99497337D01*
X70947500Y-99383750D01*
X70855417Y-99291667D01*
X70843037Y-99268506D01*
X70763685Y-99171815D01*
X70673741Y-99098000D01*
X70763685Y-99024185D01*
X70843037Y-98927494D01*
X70855417Y-98904333D01*
X70947500Y-98812250D01*
X70937954Y-98698663D01*
X70938312Y-98697482D01*
X70950572Y-98573000D01*
X70950572Y-98023000D01*
X70938312Y-97898518D01*
X70938155Y-97898000D01*
X70938312Y-97897482D01*
X70950572Y-97773000D01*
X70950572Y-97223000D01*
X70938312Y-97098518D01*
X70938155Y-97098000D01*
X70938312Y-97097482D01*
X70950572Y-96973000D01*
X70950572Y-96423000D01*
X70938312Y-96298518D01*
X70938155Y-96298000D01*
X70938312Y-96297482D01*
X70950572Y-96173000D01*
X70950572Y-95623000D01*
X70938312Y-95498518D01*
X70938155Y-95498000D01*
X70938312Y-95497482D01*
X70950572Y-95373000D01*
X70950572Y-94823000D01*
X70938312Y-94698518D01*
X70938155Y-94698000D01*
X70938312Y-94697482D01*
X70950572Y-94573000D01*
X70950572Y-94023000D01*
X70946538Y-93982038D01*
X70987500Y-93986072D01*
X71537500Y-93986072D01*
X71661982Y-93973812D01*
X71662500Y-93973655D01*
X71663018Y-93973812D01*
X71787500Y-93986072D01*
X72337500Y-93986072D01*
X72461982Y-93973812D01*
X72462500Y-93973655D01*
X72463018Y-93973812D01*
X72587500Y-93986072D01*
X73137500Y-93986072D01*
X73261982Y-93973812D01*
X73263163Y-93973454D01*
X73376750Y-93983000D01*
X73468833Y-93890917D01*
X73491994Y-93878537D01*
X73588685Y-93799185D01*
X73662500Y-93709241D01*
X73736315Y-93799185D01*
X73833006Y-93878537D01*
X73856167Y-93890917D01*
X73948250Y-93983000D01*
X74061837Y-93973454D01*
X74063018Y-93973812D01*
X74187500Y-93986072D01*
X74737500Y-93986072D01*
X74861982Y-93973812D01*
X74862500Y-93973655D01*
X74863018Y-93973812D01*
X74987500Y-93986072D01*
X75537500Y-93986072D01*
X75661982Y-93973812D01*
X75662500Y-93973655D01*
X75663018Y-93973812D01*
X75787500Y-93986072D01*
X76337500Y-93986072D01*
X76461982Y-93973812D01*
X76462500Y-93973655D01*
X76463018Y-93973812D01*
X76587500Y-93986072D01*
X77137500Y-93986072D01*
X77261982Y-93973812D01*
X77262500Y-93973655D01*
X77263018Y-93973812D01*
X77387500Y-93986072D01*
X77937500Y-93986072D01*
X78061982Y-93973812D01*
X78062500Y-93973655D01*
X78063018Y-93973812D01*
X78187500Y-93986072D01*
X78737500Y-93986072D01*
X78861982Y-93973812D01*
X78862500Y-93973655D01*
X78863018Y-93973812D01*
X78987500Y-93986072D01*
X79537500Y-93986072D01*
X79580052Y-93981881D01*
X79577500Y-94012250D01*
X79736250Y-94171000D01*
X80835500Y-94171000D01*
X80835500Y-93546750D01*
X80676750Y-93388000D01*
X80215713Y-93384936D01*
X80171528Y-93389064D01*
X80175572Y-93348000D01*
X80175572Y-92809000D01*
X82608928Y-92809000D01*
X82612000Y-93010750D01*
X82770750Y-93169500D01*
X83820000Y-93169500D01*
X83820000Y-92332750D01*
X84074000Y-92332750D01*
X84074000Y-93169500D01*
X85123250Y-93169500D01*
X85282000Y-93010750D01*
X85285072Y-92809000D01*
X85272812Y-92684518D01*
X85236502Y-92564820D01*
X85177537Y-92454506D01*
X85098185Y-92357815D01*
X85001494Y-92278463D01*
X84891180Y-92219498D01*
X84771482Y-92183188D01*
X84647000Y-92170928D01*
X84232750Y-92174000D01*
X84074000Y-92332750D01*
X83820000Y-92332750D01*
X83661250Y-92174000D01*
X83247000Y-92170928D01*
X83122518Y-92183188D01*
X83002820Y-92219498D01*
X82892506Y-92278463D01*
X82795815Y-92357815D01*
X82716463Y-92454506D01*
X82657498Y-92564820D01*
X82621188Y-92684518D01*
X82608928Y-92809000D01*
X80175572Y-92809000D01*
X80175572Y-91848000D01*
X80163312Y-91723518D01*
X80127002Y-91603820D01*
X80068037Y-91493506D01*
X79988685Y-91396815D01*
X79891994Y-91317463D01*
X79781680Y-91258498D01*
X79661982Y-91222188D01*
X79537500Y-91209928D01*
X78987500Y-91209928D01*
X78863018Y-91222188D01*
X78862500Y-91222345D01*
X78861982Y-91222188D01*
X78737500Y-91209928D01*
X78615703Y-91209928D01*
X78657392Y-91187645D01*
X78773422Y-91092422D01*
X78797284Y-91063346D01*
X78998346Y-90862284D01*
X79027422Y-90838422D01*
X79122645Y-90722392D01*
X79193402Y-90590015D01*
X79205600Y-90549803D01*
X79319732Y-90538562D01*
X79439430Y-90502252D01*
X79549744Y-90443287D01*
X79646435Y-90363935D01*
X79657215Y-90350800D01*
X79698836Y-90384958D01*
X79851291Y-90466447D01*
X80016715Y-90516628D01*
X80188750Y-90533572D01*
X81101250Y-90533572D01*
X81273285Y-90516628D01*
X81438709Y-90466447D01*
X81591164Y-90384958D01*
X81724792Y-90275292D01*
X81834458Y-90141664D01*
X81915947Y-89989209D01*
X81966128Y-89823785D01*
X81983072Y-89651750D01*
X81983072Y-89164250D01*
X81966128Y-88992215D01*
X81915947Y-88826791D01*
X81834458Y-88674336D01*
X81724792Y-88540708D01*
X81718436Y-88535492D01*
X81796185Y-88471685D01*
X81875537Y-88374994D01*
X81934502Y-88264680D01*
X81970812Y-88144982D01*
X81983072Y-88020500D01*
X81980000Y-87818750D01*
X81821250Y-87660000D01*
X80772000Y-87660000D01*
X80772000Y-87680000D01*
X80518000Y-87680000D01*
X80518000Y-87660000D01*
X79468750Y-87660000D01*
X79389000Y-87739750D01*
X78622250Y-87739750D01*
X78622250Y-87759750D01*
X78368250Y-87759750D01*
X78368250Y-87739750D01*
X78348250Y-87739750D01*
X78348250Y-87485750D01*
X78368250Y-87485750D01*
X78368250Y-86536500D01*
X78622250Y-86536500D01*
X78622250Y-87485750D01*
X79671500Y-87485750D01*
X79751250Y-87406000D01*
X80518000Y-87406000D01*
X80518000Y-86569250D01*
X80772000Y-86569250D01*
X80772000Y-87406000D01*
X81821250Y-87406000D01*
X81980000Y-87247250D01*
X81983072Y-87045500D01*
X81970812Y-86921018D01*
X81934502Y-86801320D01*
X81875537Y-86691006D01*
X81796185Y-86594315D01*
X81699494Y-86514963D01*
X81589180Y-86455998D01*
X81469482Y-86419688D01*
X81345000Y-86407428D01*
X80930750Y-86410500D01*
X80772000Y-86569250D01*
X80518000Y-86569250D01*
X80359250Y-86410500D01*
X79945000Y-86407428D01*
X79820518Y-86419688D01*
X79700820Y-86455998D01*
X79590506Y-86514963D01*
X79590078Y-86515314D01*
X79549744Y-86482213D01*
X79439430Y-86423248D01*
X79319732Y-86386938D01*
X79195250Y-86374678D01*
X78781000Y-86377750D01*
X78622250Y-86536500D01*
X78368250Y-86536500D01*
X78209500Y-86377750D01*
X77795250Y-86374678D01*
X77670768Y-86386938D01*
X77551070Y-86423248D01*
X77440756Y-86482213D01*
X77395250Y-86519559D01*
X77349744Y-86482213D01*
X77239430Y-86423248D01*
X77119732Y-86386938D01*
X76995250Y-86374678D01*
X75595250Y-86374678D01*
X75470768Y-86386938D01*
X75351070Y-86423248D01*
X75240756Y-86482213D01*
X75144065Y-86561565D01*
X75064713Y-86658256D01*
X75005748Y-86768570D01*
X74980819Y-86850750D01*
X74749939Y-86850750D01*
X74722458Y-86799336D01*
X74612792Y-86665708D01*
X74479164Y-86556042D01*
X74326709Y-86474553D01*
X74161285Y-86424372D01*
X73989250Y-86407428D01*
X73076750Y-86407428D01*
X72904715Y-86424372D01*
X72739291Y-86474553D01*
X72586836Y-86556042D01*
X72453208Y-86665708D01*
X72343542Y-86799336D01*
X72262053Y-86951791D01*
X72211872Y-87117215D01*
X72194928Y-87289250D01*
X72194928Y-87776750D01*
X72211872Y-87948785D01*
X72262053Y-88114209D01*
X72343542Y-88266664D01*
X72453208Y-88400292D01*
X72459564Y-88405508D01*
X72381815Y-88469315D01*
X72302463Y-88566006D01*
X72243498Y-88676320D01*
X72207188Y-88796018D01*
X72194928Y-88920500D01*
X72198000Y-89122250D01*
X72356748Y-89280998D01*
X72282491Y-89280998D01*
X72215842Y-89226301D01*
X72173062Y-89203434D01*
X72148447Y-89122291D01*
X72066958Y-88969836D01*
X72018301Y-88910548D01*
X72037205Y-88882256D01*
X72115226Y-88693898D01*
X72155000Y-88493939D01*
X72155000Y-88290061D01*
X72115226Y-88090102D01*
X72037205Y-87901744D01*
X71923937Y-87732226D01*
X71779774Y-87588063D01*
X71610256Y-87474795D01*
X71421898Y-87396774D01*
X71221939Y-87357000D01*
X71018061Y-87357000D01*
X70818102Y-87396774D01*
X70629744Y-87474795D01*
X70460226Y-87588063D01*
X70316063Y-87732226D01*
X70202795Y-87901744D01*
X70124774Y-88090102D01*
X70085000Y-88290061D01*
X70085000Y-88493939D01*
X70124774Y-88693898D01*
X70196798Y-88867779D01*
X70152500Y-88921756D01*
X70082292Y-88836208D01*
X69948664Y-88726542D01*
X69796209Y-88645053D01*
X69630785Y-88594872D01*
X69458750Y-88577928D01*
X68971250Y-88577928D01*
X68799215Y-88594872D01*
X68633791Y-88645053D01*
X68481336Y-88726542D01*
X68347708Y-88836208D01*
X68238042Y-88969836D01*
X68156553Y-89122291D01*
X68106397Y-89287634D01*
X68054256Y-89252795D01*
X67865898Y-89174774D01*
X67665939Y-89135000D01*
X67462061Y-89135000D01*
X67262102Y-89174774D01*
X67073744Y-89252795D01*
X66904226Y-89366063D01*
X66760063Y-89510226D01*
X66646795Y-89679744D01*
X66568774Y-89868102D01*
X66529000Y-90068061D01*
X66529000Y-90271939D01*
X66568774Y-90471898D01*
X66646795Y-90660256D01*
X66760063Y-90829774D01*
X66904226Y-90973937D01*
X67073744Y-91087205D01*
X67262102Y-91165226D01*
X67462061Y-91205000D01*
X67665939Y-91205000D01*
X67865898Y-91165226D01*
X68054256Y-91087205D01*
X68223774Y-90973937D01*
X68265711Y-90932000D01*
X68295355Y-90932000D01*
X68347708Y-90995792D01*
X68468015Y-91094526D01*
X68507599Y-91225015D01*
X68578355Y-91357392D01*
X68627784Y-91417621D01*
X68673579Y-91473422D01*
X68702649Y-91497279D01*
X69030716Y-91825346D01*
X69054578Y-91854422D01*
X69170608Y-91949645D01*
X69302985Y-92020402D01*
X69446622Y-92063974D01*
X69558574Y-92075000D01*
X69558576Y-92075000D01*
X69595999Y-92078686D01*
X69633422Y-92075000D01*
X70349428Y-92075000D01*
X70349428Y-93348000D01*
X70353462Y-93388962D01*
X70312500Y-93384928D01*
X68812500Y-93384928D01*
X68688018Y-93397188D01*
X68568320Y-93433498D01*
X68458006Y-93492463D01*
X68361315Y-93571815D01*
X68281963Y-93668506D01*
X68222998Y-93778820D01*
X68186688Y-93898518D01*
X68174428Y-94023000D01*
X68174428Y-94573000D01*
X68186688Y-94697482D01*
X68186845Y-94698000D01*
X68186688Y-94698518D01*
X68174428Y-94823000D01*
X68174428Y-95373000D01*
X68186688Y-95497482D01*
X68186845Y-95498000D01*
X68186688Y-95498518D01*
X68174428Y-95623000D01*
X68174428Y-96173000D01*
X68186688Y-96297482D01*
X68186845Y-96298000D01*
X68186688Y-96298518D01*
X68174428Y-96423000D01*
X68174428Y-96710500D01*
X68096047Y-96710500D01*
X67992898Y-96667774D01*
X67792939Y-96628000D01*
X67589061Y-96628000D01*
X67391856Y-96667226D01*
X67113284Y-96388654D01*
X67089422Y-96359578D01*
X67062252Y-96337281D01*
X67056947Y-96319791D01*
X66975458Y-96167336D01*
X66865792Y-96033708D01*
X66732164Y-95924042D01*
X66579709Y-95842553D01*
X66414285Y-95792372D01*
X66242250Y-95775428D01*
X65329750Y-95775428D01*
X65157715Y-95792372D01*
X64992291Y-95842553D01*
X64839836Y-95924042D01*
X64706208Y-96033708D01*
X64596542Y-96167336D01*
X64515053Y-96319791D01*
X64464872Y-96485215D01*
X64447928Y-96657250D01*
X64447928Y-97144750D01*
X64464872Y-97316785D01*
X64515053Y-97482209D01*
X64596542Y-97634664D01*
X64706208Y-97768292D01*
X64712564Y-97773508D01*
X64634815Y-97837315D01*
X64555463Y-97934006D01*
X64496498Y-98044320D01*
X64460188Y-98164018D01*
X64447928Y-98288500D01*
X64451000Y-98490250D01*
X64609750Y-98649000D01*
X65659000Y-98649000D01*
X65659000Y-98629000D01*
X65913000Y-98629000D01*
X65913000Y-98649000D01*
X65933000Y-98649000D01*
X65933000Y-98903000D01*
X65913000Y-98903000D01*
X65913000Y-98923000D01*
X65659000Y-98923000D01*
X65659000Y-98903000D01*
X64609750Y-98903000D01*
X64578690Y-98934060D01*
X64389000Y-98744370D01*
X64389000Y-92812902D01*
X64874698Y-92408154D01*
X64930422Y-92362422D01*
X64956105Y-92331127D01*
X64984517Y-92302285D01*
X64987630Y-92297549D01*
X65017285Y-92294628D01*
X65182709Y-92244447D01*
X65335164Y-92162958D01*
X65468792Y-92053292D01*
X65578458Y-91919664D01*
X65659947Y-91767209D01*
X65710128Y-91601785D01*
X65727072Y-91429750D01*
X65727072Y-90942250D01*
X65710128Y-90770215D01*
X65659947Y-90604791D01*
X65578458Y-90452336D01*
X65468792Y-90318708D01*
X65383244Y-90248500D01*
X65468792Y-90178292D01*
X65578458Y-90044664D01*
X65659947Y-89892209D01*
X65710128Y-89726785D01*
X65727072Y-89554750D01*
X65727072Y-89067250D01*
X65710128Y-88895215D01*
X65659947Y-88729791D01*
X65578458Y-88577336D01*
X65468792Y-88443708D01*
X65335164Y-88334042D01*
X65182709Y-88252553D01*
X65017285Y-88202372D01*
X64845250Y-88185428D01*
X64658378Y-88185428D01*
X64538377Y-88149026D01*
X64389000Y-88134314D01*
X64326135Y-88140505D01*
X64262000Y-88076370D01*
X64262000Y-87560540D01*
X64314645Y-87496392D01*
X64385402Y-87364015D01*
X64386295Y-87361072D01*
X64728000Y-87361072D01*
X64852482Y-87348812D01*
X64877266Y-87341294D01*
X64896639Y-87347404D01*
X64996250Y-87358000D01*
X65155000Y-87199250D01*
X65155000Y-87194033D01*
X65179185Y-87174185D01*
X65258537Y-87077494D01*
X65317502Y-86967180D01*
X65353812Y-86847482D01*
X65366072Y-86723000D01*
X65366072Y-84473000D01*
X65353812Y-84348518D01*
X65317502Y-84228820D01*
X65258537Y-84118506D01*
X65179185Y-84021815D01*
X65155000Y-84001967D01*
X65155000Y-83996750D01*
X65401000Y-83996750D01*
X65401000Y-85471000D01*
X65425000Y-85471000D01*
X65425000Y-85725000D01*
X65401000Y-85725000D01*
X65401000Y-87199250D01*
X65559750Y-87358000D01*
X65659361Y-87347404D01*
X65778652Y-87309779D01*
X65888311Y-87249604D01*
X65984123Y-87169193D01*
X66062406Y-87071634D01*
X66118123Y-86964578D01*
X66272866Y-87153134D01*
X66498986Y-87338706D01*
X66756966Y-87476599D01*
X67036889Y-87561513D01*
X67328000Y-87590185D01*
X67619110Y-87561513D01*
X67899033Y-87476599D01*
X68157013Y-87338706D01*
X68383134Y-87153134D01*
X68568706Y-86927014D01*
X68706599Y-86669034D01*
X68791513Y-86389111D01*
X68813000Y-86170950D01*
X68813000Y-85025050D01*
X68791513Y-84806889D01*
X68706599Y-84526966D01*
X68568706Y-84268986D01*
X68383134Y-84042866D01*
X68157014Y-83857294D01*
X67899034Y-83719401D01*
X67619111Y-83634487D01*
X67328000Y-83605815D01*
X67036890Y-83634487D01*
X66756967Y-83719401D01*
X66498987Y-83857294D01*
X66272867Y-84042866D01*
X66118123Y-84231421D01*
X66062406Y-84124366D01*
X65984123Y-84026807D01*
X65888311Y-83946396D01*
X65778652Y-83886221D01*
X65659361Y-83848596D01*
X65559750Y-83838000D01*
X65401000Y-83996750D01*
X65155000Y-83996750D01*
X64996250Y-83838000D01*
X64896639Y-83848596D01*
X64877266Y-83854706D01*
X64852482Y-83847188D01*
X64728000Y-83834928D01*
X64228000Y-83834928D01*
X64103518Y-83847188D01*
X64078000Y-83854929D01*
X64052482Y-83847188D01*
X63928000Y-83834928D01*
X63428000Y-83834928D01*
X63303518Y-83847188D01*
X63278000Y-83854929D01*
X63252482Y-83847188D01*
X63128000Y-83834928D01*
X62628000Y-83834928D01*
X62503518Y-83847188D01*
X62478000Y-83854929D01*
X62452482Y-83847188D01*
X62328000Y-83834928D01*
X61828000Y-83834928D01*
X61703518Y-83847188D01*
X61583820Y-83883498D01*
X61473506Y-83942463D01*
X61376815Y-84021815D01*
X61297463Y-84118506D01*
X61238498Y-84228820D01*
X61237754Y-84231271D01*
X61083134Y-84042866D01*
X60857014Y-83857294D01*
X60599034Y-83719401D01*
X60319111Y-83634487D01*
X60028000Y-83605815D01*
X59736890Y-83634487D01*
X59456967Y-83719401D01*
X59198987Y-83857294D01*
X58972867Y-84042866D01*
X58787294Y-84268986D01*
X58649401Y-84526966D01*
X58564487Y-84806889D01*
X58543000Y-85025050D01*
X58543000Y-86170949D01*
X58564487Y-86389110D01*
X58649401Y-86669033D01*
X58787294Y-86927013D01*
X58972866Y-87153134D01*
X59198986Y-87338706D01*
X59456966Y-87476599D01*
X59736889Y-87561513D01*
X60028000Y-87590185D01*
X60319110Y-87561513D01*
X60390803Y-87539765D01*
X60277961Y-87652607D01*
X60246460Y-87678459D01*
X60220609Y-87709959D01*
X60143301Y-87804158D01*
X60066647Y-87947567D01*
X60019445Y-88103174D01*
X60003506Y-88265000D01*
X60007501Y-88305560D01*
X60007500Y-95336449D01*
X60003506Y-95377000D01*
X60007500Y-95417550D01*
X60007500Y-95417552D01*
X60019444Y-95538825D01*
X60043213Y-95617180D01*
X60066647Y-95694433D01*
X60143301Y-95837842D01*
X60148722Y-95844447D01*
X60246459Y-95963541D01*
X60277966Y-95989398D01*
X60515501Y-96226933D01*
X60515501Y-96679257D01*
X60376150Y-96721528D01*
X60222614Y-96803595D01*
X60088038Y-96914038D01*
X59977595Y-97048614D01*
X59895528Y-97202150D01*
X59844992Y-97368746D01*
X59827928Y-97542000D01*
X59827928Y-98292000D01*
X59844992Y-98465254D01*
X59895528Y-98631850D01*
X59977595Y-98785386D01*
X60088038Y-98919962D01*
X60222614Y-99030405D01*
X60376150Y-99112472D01*
X60542746Y-99163008D01*
X60716000Y-99180072D01*
X61966000Y-99180072D01*
X62139254Y-99163008D01*
X62305850Y-99112472D01*
X62357001Y-99085131D01*
X62357001Y-99276567D01*
X62353314Y-99314000D01*
X62368027Y-99463378D01*
X62401113Y-99572447D01*
X62305850Y-99521528D01*
X62139254Y-99470992D01*
X61966000Y-99453928D01*
X60716000Y-99453928D01*
X60542746Y-99470992D01*
X60376150Y-99521528D01*
X60222614Y-99603595D01*
X60088038Y-99714038D01*
X59977595Y-99848614D01*
X59895528Y-100002150D01*
X59844992Y-100168746D01*
X59827928Y-100342000D01*
X59827928Y-101092000D01*
X59844992Y-101265254D01*
X59895528Y-101431850D01*
X59977595Y-101585386D01*
X60088038Y-101719962D01*
X60222614Y-101830405D01*
X60376150Y-101912472D01*
X60514133Y-101954328D01*
X60511506Y-101981000D01*
X60527445Y-102142826D01*
X60574647Y-102298433D01*
X60651301Y-102441842D01*
X60675441Y-102471256D01*
X60754460Y-102567541D01*
X60785961Y-102593393D01*
X61490611Y-103298044D01*
X61516459Y-103329541D01*
X61547955Y-103355389D01*
X61547958Y-103355392D01*
X61642157Y-103432699D01*
X61769243Y-103500628D01*
X61785566Y-103509353D01*
X61941174Y-103556556D01*
X62062447Y-103568500D01*
X62062449Y-103568500D01*
X62103000Y-103572494D01*
X62143550Y-103568500D01*
X65028290Y-103568500D01*
X65087208Y-103640292D01*
X65093564Y-103645508D01*
X65015815Y-103709315D01*
X64936463Y-103806006D01*
X64877498Y-103916320D01*
X64841188Y-104036018D01*
X64828928Y-104160500D01*
X64832000Y-104362250D01*
X64990750Y-104521000D01*
X66040000Y-104521000D01*
X66040000Y-104501000D01*
X66294000Y-104501000D01*
X66294000Y-104521000D01*
X67343250Y-104521000D01*
X67502000Y-104362250D01*
X67505072Y-104160500D01*
X67492812Y-104036018D01*
X67456502Y-103916320D01*
X67397537Y-103806006D01*
X67318185Y-103709315D01*
X67240436Y-103645508D01*
X67246792Y-103640292D01*
X67356458Y-103506664D01*
X67400800Y-103423706D01*
X67515541Y-103329541D01*
X67541397Y-103298035D01*
X67831004Y-103008428D01*
X67992898Y-102976226D01*
X68181256Y-102898205D01*
X68243925Y-102856331D01*
X68281963Y-102927494D01*
X68361315Y-103024185D01*
X68458006Y-103103537D01*
X68568320Y-103162502D01*
X68688018Y-103198812D01*
X68812500Y-103211072D01*
X70312500Y-103211072D01*
X70353462Y-103207038D01*
X70349428Y-103248000D01*
X70349428Y-104748000D01*
X70361688Y-104872482D01*
X70397998Y-104992180D01*
X70421500Y-105036148D01*
X70421500Y-105369450D01*
X70417506Y-105410000D01*
X70421500Y-105450550D01*
X70421500Y-105450552D01*
X70433444Y-105571825D01*
X70462023Y-105666037D01*
X70480647Y-105727433D01*
X70557301Y-105870842D01*
X70562722Y-105877447D01*
X70569497Y-105885702D01*
X70491982Y-105862188D01*
X70367500Y-105849928D01*
X70165750Y-105853000D01*
X70007000Y-106011750D01*
X70007000Y-107061000D01*
X70027000Y-107061000D01*
X70027000Y-107315000D01*
X70007000Y-107315000D01*
X70007000Y-108364250D01*
X70165750Y-108523000D01*
X70367500Y-108526072D01*
X70491982Y-108513812D01*
X70611680Y-108477502D01*
X70721994Y-108418537D01*
X70818685Y-108339185D01*
X70882492Y-108261436D01*
X70887708Y-108267792D01*
X70929501Y-108302090D01*
X70929500Y-108338497D01*
X70837795Y-108475744D01*
X70759774Y-108664102D01*
X70720000Y-108864061D01*
X70720000Y-109067939D01*
X70759774Y-109267898D01*
X70837795Y-109456256D01*
X70951063Y-109625774D01*
X71095226Y-109769937D01*
X71264744Y-109883205D01*
X71453102Y-109961226D01*
X71653061Y-110001000D01*
X71856939Y-110001000D01*
X72056898Y-109961226D01*
X72245256Y-109883205D01*
X72414774Y-109769937D01*
X72558937Y-109625774D01*
X72672205Y-109456256D01*
X72750226Y-109267898D01*
X72790000Y-109067939D01*
X72790000Y-108864061D01*
X72750226Y-108664102D01*
X72672205Y-108475744D01*
X72580500Y-108338497D01*
X72580500Y-108302090D01*
X72622292Y-108267792D01*
X72731958Y-108134164D01*
X72795652Y-108015000D01*
X76930928Y-108015000D01*
X76943188Y-108139482D01*
X76979498Y-108259180D01*
X77038463Y-108369494D01*
X77117815Y-108466185D01*
X77214506Y-108545537D01*
X77324820Y-108604502D01*
X77444518Y-108640812D01*
X77569000Y-108653072D01*
X77770750Y-108650000D01*
X77929500Y-108491250D01*
X77929500Y-107442000D01*
X77092750Y-107442000D01*
X76934000Y-107600750D01*
X76930928Y-108015000D01*
X72795652Y-108015000D01*
X72813447Y-107981709D01*
X72863628Y-107816285D01*
X72880572Y-107644250D01*
X72880572Y-106731750D01*
X72869074Y-106615000D01*
X76930928Y-106615000D01*
X76934000Y-107029250D01*
X77092750Y-107188000D01*
X77929500Y-107188000D01*
X77929500Y-106138750D01*
X77770750Y-105980000D01*
X77569000Y-105976928D01*
X77444518Y-105989188D01*
X77324820Y-106025498D01*
X77214506Y-106084463D01*
X77117815Y-106163815D01*
X77038463Y-106260506D01*
X76979498Y-106370820D01*
X76943188Y-106490518D01*
X76930928Y-106615000D01*
X72869074Y-106615000D01*
X72863628Y-106559715D01*
X72813447Y-106394291D01*
X72731958Y-106241836D01*
X72622292Y-106108208D01*
X72580500Y-106073910D01*
X72580500Y-105958539D01*
X72584493Y-105917999D01*
X72580500Y-105877459D01*
X72580500Y-105877447D01*
X72568556Y-105756174D01*
X72521353Y-105600566D01*
X72444699Y-105457158D01*
X72444698Y-105457156D01*
X72418563Y-105425311D01*
X72381543Y-105380202D01*
X72461837Y-105373454D01*
X72463018Y-105373812D01*
X72587500Y-105386072D01*
X73137500Y-105386072D01*
X73261982Y-105373812D01*
X73262500Y-105373655D01*
X73263018Y-105373812D01*
X73387500Y-105386072D01*
X73937500Y-105386072D01*
X74061982Y-105373812D01*
X74062500Y-105373655D01*
X74063018Y-105373812D01*
X74187500Y-105386072D01*
X74737500Y-105386072D01*
X74861982Y-105373812D01*
X74862500Y-105373655D01*
X74863018Y-105373812D01*
X74987500Y-105386072D01*
X75537500Y-105386072D01*
X75661982Y-105373812D01*
X75662500Y-105373655D01*
X75663018Y-105373812D01*
X75787500Y-105386072D01*
X76337500Y-105386072D01*
X76461982Y-105373812D01*
X76462500Y-105373655D01*
X76463018Y-105373812D01*
X76587500Y-105386072D01*
X77137500Y-105386072D01*
X77261982Y-105373812D01*
X77262500Y-105373655D01*
X77263018Y-105373812D01*
X77387500Y-105386072D01*
X77937500Y-105386072D01*
X78061982Y-105373812D01*
X78063163Y-105373454D01*
X78176750Y-105383000D01*
X78268833Y-105290917D01*
X78291994Y-105278537D01*
X78335498Y-105242834D01*
X78335498Y-105383000D01*
X78421165Y-105383000D01*
X78418506Y-105410000D01*
X78422500Y-105450550D01*
X78422500Y-105450552D01*
X78434444Y-105571825D01*
X78463023Y-105666037D01*
X78481647Y-105727433D01*
X78558301Y-105870842D01*
X78563722Y-105877447D01*
X78654276Y-105987789D01*
X78544000Y-105976928D01*
X78342250Y-105980000D01*
X78183500Y-106138750D01*
X78183500Y-107188000D01*
X78203500Y-107188000D01*
X78203500Y-107442000D01*
X78183500Y-107442000D01*
X78183500Y-108491250D01*
X78342250Y-108650000D01*
X78544000Y-108653072D01*
X78668482Y-108640812D01*
X78788180Y-108604502D01*
X78898494Y-108545537D01*
X78956658Y-108497804D01*
X78887774Y-108664102D01*
X78848000Y-108864061D01*
X78848000Y-109067939D01*
X78887774Y-109267898D01*
X78965795Y-109456256D01*
X79079063Y-109625774D01*
X79223226Y-109769937D01*
X79392744Y-109883205D01*
X79581102Y-109961226D01*
X79781061Y-110001000D01*
X79984939Y-110001000D01*
X80184898Y-109961226D01*
X80373256Y-109883205D01*
X80542774Y-109769937D01*
X80686937Y-109625774D01*
X80800205Y-109456256D01*
X80878226Y-109267898D01*
X80918000Y-109067939D01*
X80918000Y-108864061D01*
X80878226Y-108664102D01*
X80800205Y-108475744D01*
X80764771Y-108422713D01*
X80798792Y-108394792D01*
X80908458Y-108261164D01*
X80989947Y-108108709D01*
X81040128Y-107943285D01*
X81057072Y-107771250D01*
X81057072Y-106858750D01*
X81040128Y-106686715D01*
X80989947Y-106521291D01*
X80908458Y-106368836D01*
X80798792Y-106235208D01*
X80678500Y-106136487D01*
X80678500Y-106055550D01*
X80682494Y-106015000D01*
X80678500Y-105974447D01*
X80666556Y-105853174D01*
X80619353Y-105697566D01*
X80552143Y-105571826D01*
X80542699Y-105554157D01*
X80465391Y-105459958D01*
X80439541Y-105428459D01*
X80408039Y-105402606D01*
X80081932Y-105076499D01*
X80127002Y-104992180D01*
X80163312Y-104872482D01*
X80174931Y-104754500D01*
X82227928Y-104754500D01*
X82240188Y-104878982D01*
X82276498Y-104998680D01*
X82335463Y-105108994D01*
X82414815Y-105205685D01*
X82511506Y-105285037D01*
X82621820Y-105344002D01*
X82741518Y-105380312D01*
X82866000Y-105392572D01*
X83280250Y-105389500D01*
X83439000Y-105230750D01*
X83439000Y-104394000D01*
X83693000Y-104394000D01*
X83693000Y-105230750D01*
X83851750Y-105389500D01*
X84266000Y-105392572D01*
X84390482Y-105380312D01*
X84510180Y-105344002D01*
X84620494Y-105285037D01*
X84717185Y-105205685D01*
X84796537Y-105108994D01*
X84855502Y-104998680D01*
X84891812Y-104878982D01*
X84904072Y-104754500D01*
X84901000Y-104552750D01*
X84742250Y-104394000D01*
X83693000Y-104394000D01*
X83439000Y-104394000D01*
X82389750Y-104394000D01*
X82231000Y-104552750D01*
X82227928Y-104754500D01*
X80174931Y-104754500D01*
X80175572Y-104748000D01*
X80175572Y-103248000D01*
X80171538Y-103207038D01*
X80212500Y-103211072D01*
X81712500Y-103211072D01*
X81836982Y-103198812D01*
X81956680Y-103162502D01*
X81972586Y-103154000D01*
X82399797Y-103154000D01*
X82486208Y-103259292D01*
X82492564Y-103264508D01*
X82414815Y-103328315D01*
X82335463Y-103425006D01*
X82276498Y-103535320D01*
X82240188Y-103655018D01*
X82227928Y-103779500D01*
X82231000Y-103981250D01*
X82389750Y-104140000D01*
X83439000Y-104140000D01*
X83439000Y-104120000D01*
X83693000Y-104120000D01*
X83693000Y-104140000D01*
X84742250Y-104140000D01*
X84901000Y-103981250D01*
X84904072Y-103779500D01*
X84891812Y-103655018D01*
X84855502Y-103535320D01*
X84796537Y-103425006D01*
X84717185Y-103328315D01*
X84639436Y-103264508D01*
X84645792Y-103259292D01*
X84755458Y-103125664D01*
X84836947Y-102973209D01*
X84887128Y-102807785D01*
X84904072Y-102635750D01*
X84904072Y-102148250D01*
X84887128Y-101976215D01*
X84836947Y-101810791D01*
X84755458Y-101658336D01*
X84645792Y-101524708D01*
X84512164Y-101415042D01*
X84359709Y-101333553D01*
X84194285Y-101283372D01*
X84022250Y-101266428D01*
X83109750Y-101266428D01*
X82937715Y-101283372D01*
X82772291Y-101333553D01*
X82619836Y-101415042D01*
X82486208Y-101524708D01*
X82399797Y-101630000D01*
X82350572Y-101630000D01*
X82350572Y-101223000D01*
X82338312Y-101098518D01*
X82338155Y-101098000D01*
X82338312Y-101097482D01*
X82350572Y-100973000D01*
X82350572Y-100711000D01*
X86933370Y-100711000D01*
X87122000Y-100899630D01*
X87122000Y-116815000D01*
X57182280Y-116815000D01*
X56970462Y-116794231D01*
X56797764Y-116742091D01*
X56638482Y-116657399D01*
X56498679Y-116543378D01*
X56383694Y-116404385D01*
X56297890Y-116245695D01*
X56244545Y-116073365D01*
X56222500Y-115863619D01*
X56222500Y-114452061D01*
X58274000Y-114452061D01*
X58274000Y-114655939D01*
X58313774Y-114855898D01*
X58391795Y-115044256D01*
X58505063Y-115213774D01*
X58649226Y-115357937D01*
X58818744Y-115471205D01*
X59007102Y-115549226D01*
X59207061Y-115589000D01*
X59410939Y-115589000D01*
X59519666Y-115567373D01*
X59601506Y-115634537D01*
X59711820Y-115693502D01*
X59831518Y-115729812D01*
X59956000Y-115742072D01*
X61756000Y-115742072D01*
X61880482Y-115729812D01*
X62000180Y-115693502D01*
X62110494Y-115634537D01*
X62207185Y-115555185D01*
X62286537Y-115458494D01*
X62345502Y-115348180D01*
X62381812Y-115228482D01*
X62394072Y-115104000D01*
X62394072Y-114004000D01*
X65517928Y-114004000D01*
X65517928Y-115104000D01*
X65530188Y-115228482D01*
X65566498Y-115348180D01*
X65625463Y-115458494D01*
X65704815Y-115555185D01*
X65801506Y-115634537D01*
X65911820Y-115693502D01*
X66031518Y-115729812D01*
X66156000Y-115742072D01*
X67956000Y-115742072D01*
X68080482Y-115729812D01*
X68200180Y-115693502D01*
X68310494Y-115634537D01*
X68407185Y-115555185D01*
X68486537Y-115458494D01*
X68545502Y-115348180D01*
X68581812Y-115228482D01*
X68594072Y-115104000D01*
X68594072Y-114004000D01*
X68581812Y-113879518D01*
X68545502Y-113759820D01*
X68486537Y-113649506D01*
X68407185Y-113552815D01*
X68310494Y-113473463D01*
X68200180Y-113414498D01*
X68080482Y-113378188D01*
X67956000Y-113365928D01*
X66156000Y-113365928D01*
X66031518Y-113378188D01*
X65911820Y-113414498D01*
X65801506Y-113473463D01*
X65704815Y-113552815D01*
X65625463Y-113649506D01*
X65566498Y-113759820D01*
X65530188Y-113879518D01*
X65517928Y-114004000D01*
X62394072Y-114004000D01*
X62381812Y-113879518D01*
X62345502Y-113759820D01*
X62286537Y-113649506D01*
X62207185Y-113552815D01*
X62110494Y-113473463D01*
X62000180Y-113414498D01*
X61880482Y-113378188D01*
X61756000Y-113365928D01*
X59956000Y-113365928D01*
X59831518Y-113378188D01*
X59711820Y-113414498D01*
X59601506Y-113473463D01*
X59519666Y-113540627D01*
X59410939Y-113519000D01*
X59207061Y-113519000D01*
X59007102Y-113558774D01*
X58818744Y-113636795D01*
X58649226Y-113750063D01*
X58505063Y-113894226D01*
X58391795Y-114063744D01*
X58313774Y-114252102D01*
X58274000Y-114452061D01*
X56222500Y-114452061D01*
X56222500Y-110304000D01*
X59317928Y-110304000D01*
X59317928Y-111404000D01*
X59330188Y-111528482D01*
X59366498Y-111648180D01*
X59425463Y-111758494D01*
X59504815Y-111855185D01*
X59601506Y-111934537D01*
X59711820Y-111993502D01*
X59831518Y-112029812D01*
X59956000Y-112042072D01*
X61756000Y-112042072D01*
X61880482Y-112029812D01*
X62000180Y-111993502D01*
X62110494Y-111934537D01*
X62207185Y-111855185D01*
X62286537Y-111758494D01*
X62345502Y-111648180D01*
X62381812Y-111528482D01*
X62394072Y-111404000D01*
X65517928Y-111404000D01*
X65530188Y-111528482D01*
X65566498Y-111648180D01*
X65625463Y-111758494D01*
X65704815Y-111855185D01*
X65801506Y-111934537D01*
X65911820Y-111993502D01*
X66031518Y-112029812D01*
X66156000Y-112042072D01*
X66770250Y-112039000D01*
X66929000Y-111880250D01*
X66929000Y-110981000D01*
X67183000Y-110981000D01*
X67183000Y-111880250D01*
X67341750Y-112039000D01*
X67956000Y-112042072D01*
X68080482Y-112029812D01*
X68200180Y-111993502D01*
X68310494Y-111934537D01*
X68407185Y-111855185D01*
X68486537Y-111758494D01*
X68545502Y-111648180D01*
X68581812Y-111528482D01*
X68594072Y-111404000D01*
X68591000Y-111139750D01*
X68432250Y-110981000D01*
X67183000Y-110981000D01*
X66929000Y-110981000D01*
X65679750Y-110981000D01*
X65521000Y-111139750D01*
X65517928Y-111404000D01*
X62394072Y-111404000D01*
X62394072Y-110304000D01*
X65517928Y-110304000D01*
X65521000Y-110568250D01*
X65679750Y-110727000D01*
X66929000Y-110727000D01*
X66929000Y-109827750D01*
X67183000Y-109827750D01*
X67183000Y-110727000D01*
X68432250Y-110727000D01*
X68591000Y-110568250D01*
X68594072Y-110304000D01*
X68581812Y-110179518D01*
X68545502Y-110059820D01*
X68486537Y-109949506D01*
X68407185Y-109852815D01*
X68310494Y-109773463D01*
X68200180Y-109714498D01*
X68080482Y-109678188D01*
X67956000Y-109665928D01*
X67341750Y-109669000D01*
X67183000Y-109827750D01*
X66929000Y-109827750D01*
X66770250Y-109669000D01*
X66156000Y-109665928D01*
X66031518Y-109678188D01*
X65911820Y-109714498D01*
X65801506Y-109773463D01*
X65704815Y-109852815D01*
X65625463Y-109949506D01*
X65566498Y-110059820D01*
X65530188Y-110179518D01*
X65517928Y-110304000D01*
X62394072Y-110304000D01*
X62381812Y-110179518D01*
X62345502Y-110059820D01*
X62286537Y-109949506D01*
X62207185Y-109852815D01*
X62110494Y-109773463D01*
X62000180Y-109714498D01*
X61880482Y-109678188D01*
X61756000Y-109665928D01*
X59956000Y-109665928D01*
X59831518Y-109678188D01*
X59711820Y-109714498D01*
X59601506Y-109773463D01*
X59504815Y-109852815D01*
X59425463Y-109949506D01*
X59366498Y-110059820D01*
X59330188Y-110179518D01*
X59317928Y-110304000D01*
X56222500Y-110304000D01*
X56222500Y-107888000D01*
X68754428Y-107888000D01*
X68766688Y-108012482D01*
X68802998Y-108132180D01*
X68861963Y-108242494D01*
X68941315Y-108339185D01*
X69038006Y-108418537D01*
X69148320Y-108477502D01*
X69268018Y-108513812D01*
X69392500Y-108526072D01*
X69594250Y-108523000D01*
X69753000Y-108364250D01*
X69753000Y-107315000D01*
X68916250Y-107315000D01*
X68757500Y-107473750D01*
X68754428Y-107888000D01*
X56222500Y-107888000D01*
X56222500Y-106488000D01*
X68754428Y-106488000D01*
X68757500Y-106902250D01*
X68916250Y-107061000D01*
X69753000Y-107061000D01*
X69753000Y-106011750D01*
X69594250Y-105853000D01*
X69392500Y-105849928D01*
X69268018Y-105862188D01*
X69148320Y-105898498D01*
X69038006Y-105957463D01*
X68941315Y-106036815D01*
X68861963Y-106133506D01*
X68802998Y-106243820D01*
X68766688Y-106363518D01*
X68754428Y-106488000D01*
X56222500Y-106488000D01*
X56222500Y-105135500D01*
X64828928Y-105135500D01*
X64841188Y-105259982D01*
X64877498Y-105379680D01*
X64936463Y-105489994D01*
X65015815Y-105586685D01*
X65112506Y-105666037D01*
X65222820Y-105725002D01*
X65342518Y-105761312D01*
X65467000Y-105773572D01*
X65881250Y-105770500D01*
X66040000Y-105611750D01*
X66040000Y-104775000D01*
X66294000Y-104775000D01*
X66294000Y-105611750D01*
X66452750Y-105770500D01*
X66867000Y-105773572D01*
X66991482Y-105761312D01*
X67111180Y-105725002D01*
X67221494Y-105666037D01*
X67318185Y-105586685D01*
X67397537Y-105489994D01*
X67456502Y-105379680D01*
X67492812Y-105259982D01*
X67505072Y-105135500D01*
X67502000Y-104933750D01*
X67343250Y-104775000D01*
X66294000Y-104775000D01*
X66040000Y-104775000D01*
X64990750Y-104775000D01*
X64832000Y-104933750D01*
X64828928Y-105135500D01*
X56222500Y-105135500D01*
X56222500Y-80994779D01*
X56243269Y-80782962D01*
X56295410Y-80610263D01*
X56380102Y-80450982D01*
X56494119Y-80311181D01*
X56633117Y-80196192D01*
X56791805Y-80110390D01*
X56964135Y-80057045D01*
X57173880Y-80035000D01*
X58646964Y-80035000D01*
X58564487Y-80306889D01*
G36*
X73660000Y-89281000D02*
G01*
X73680000Y-89281000D01*
X73680000Y-89535000D01*
X73660000Y-89535000D01*
X73660000Y-90371750D01*
X73818750Y-90530500D01*
X74168001Y-90533090D01*
X74168001Y-90743369D01*
X73909654Y-91001716D01*
X73880578Y-91025578D01*
X73830003Y-91087205D01*
X73785355Y-91141608D01*
X73772731Y-91165226D01*
X73747196Y-91213000D01*
X73723500Y-91213000D01*
X73723500Y-91099550D01*
X73727494Y-91058999D01*
X73723122Y-91014608D01*
X73711556Y-90897174D01*
X73664353Y-90741566D01*
X73642337Y-90700378D01*
X73587699Y-90598157D01*
X73510391Y-90503958D01*
X73484541Y-90472459D01*
X73453040Y-90446608D01*
X73392091Y-90385659D01*
X73406000Y-90371750D01*
X73406000Y-89535000D01*
X73386000Y-89535000D01*
X73386000Y-89281000D01*
X73406000Y-89281000D01*
X73406000Y-89261000D01*
X73660000Y-89261000D01*
X73660000Y-89281000D01*
G37*
X73660000Y-89281000D02*
X73680000Y-89281000D01*
X73680000Y-89535000D01*
X73660000Y-89535000D01*
X73660000Y-90371750D01*
X73818750Y-90530500D01*
X74168001Y-90533090D01*
X74168001Y-90743369D01*
X73909654Y-91001716D01*
X73880578Y-91025578D01*
X73830003Y-91087205D01*
X73785355Y-91141608D01*
X73772731Y-91165226D01*
X73747196Y-91213000D01*
X73723500Y-91213000D01*
X73723500Y-91099550D01*
X73727494Y-91058999D01*
X73723122Y-91014608D01*
X73711556Y-90897174D01*
X73664353Y-90741566D01*
X73642337Y-90700378D01*
X73587699Y-90598157D01*
X73510391Y-90503958D01*
X73484541Y-90472459D01*
X73453040Y-90446608D01*
X73392091Y-90385659D01*
X73406000Y-90371750D01*
X73406000Y-89535000D01*
X73386000Y-89535000D01*
X73386000Y-89281000D01*
X73406000Y-89281000D01*
X73406000Y-89261000D01*
X73660000Y-89261000D01*
X73660000Y-89281000D01*
G36*
X76422250Y-89185750D02*
G01*
X76442250Y-89185750D01*
X76442250Y-89439750D01*
X76422250Y-89439750D01*
X76422250Y-89459750D01*
X76168250Y-89459750D01*
X76168250Y-89439750D01*
X76148250Y-89439750D01*
X76148250Y-89185750D01*
X76168250Y-89185750D01*
X76168250Y-89165750D01*
X76422250Y-89165750D01*
X76422250Y-89185750D01*
G37*
X76422250Y-89185750D02*
X76442250Y-89185750D01*
X76442250Y-89439750D01*
X76422250Y-89439750D01*
X76422250Y-89459750D01*
X76168250Y-89459750D01*
X76168250Y-89439750D01*
X76148250Y-89439750D01*
X76148250Y-89185750D01*
X76168250Y-89185750D01*
X76168250Y-89165750D01*
X76422250Y-89165750D01*
X76422250Y-89185750D01*
%TD*%
M02*
