M48
; DRILL file {KiCad (5.1.6)-1} date 08/29/20 19:36:50
; FORMAT={-:-/ absolute / inch / decimal}
; #@! TF.CreationDate,2020-08-29T19:36:50-05:00
; #@! TF.GenerationSoftware,Kicad,Pcbnew,(5.1.6)-1
; #@! TF.FileFunction,Plated,1,2,PTH
FMAT,2
INCH
T1C0.0157
T2C0.0276
T3C0.0579
%
G90
G05
T1
X2.335Y-4.51
X2.475Y-4.1
X2.5352Y-3.8898
X2.66Y-3.55
X2.665Y-3.845
X2.665Y-4.015
X2.8Y-3.48
X2.825Y-4.29
X3.145Y-4.29
X3.39Y-3.72
T3
X3.6625Y-4.15
X3.7141Y-4.0925
X3.9109Y-4.0728
X3.9125Y-4.05
X3.6625Y-3.4
X3.7141Y-3.3425
X3.9109Y-3.3228
X3.9125Y-3.3
X4.4125Y-4.15
X4.4641Y-4.0925
X4.6609Y-4.0728
X4.6625Y-4.05
X4.4125Y-3.4
X4.4641Y-3.3425
X4.6609Y-3.3228
X4.6625Y-3.3
T2
G00X2.3633Y-3.1692
M15
G01X2.3633Y-3.2165
M16
G05
G00X2.3633Y-3.3464
M15
G01X2.3633Y-3.3936
M16
G05
G00X2.6507Y-3.1692
M15
G01X2.6507Y-3.2165
M16
G05
G00X2.6507Y-3.3464
M15
G01X2.6507Y-3.3936
M16
G05
T0
M30
