%TF.GenerationSoftware,KiCad,Pcbnew,(5.1.6)-1*%
%TF.CreationDate,2020-08-30T12:35:22-05:00*%
%TF.ProjectId,je03-pcb-guide,6a653033-2d70-4636-922d-67756964652e,rev?*%
%TF.SameCoordinates,Original*%
%TF.FileFunction,Copper,L1,Top*%
%TF.FilePolarity,Positive*%
%FSLAX46Y46*%
G04 Gerber Fmt 4.6, Leading zero omitted, Abs format (unit mm)*
G04 Created by KiCad (PCBNEW (5.1.6)-1) date 2020-08-30 12:35:22*
%MOMM*%
%LPD*%
G01*
G04 APERTURE LIST*
%TA.AperFunction,ComponentPad*%
%ADD10O,1.108000X2.216000*%
%TD*%
%TA.AperFunction,ComponentPad*%
%ADD11C,0.650000*%
%TD*%
%TA.AperFunction,ComponentPad*%
%ADD12C,2.250000*%
%TD*%
%TA.AperFunction,ViaPad*%
%ADD13C,0.800000*%
%TD*%
%TA.AperFunction,Conductor*%
%ADD14C,0.381000*%
%TD*%
%TA.AperFunction,Conductor*%
%ADD15C,0.254000*%
%TD*%
G04 APERTURE END LIST*
D10*
%TO.P,J1,P4*%
%TO.N,GND*%
X59182000Y-81153000D03*
%TO.P,J1,P3*%
X67832000Y-81153000D03*
%TO.P,J1,P2*%
X67832000Y-84533000D03*
%TO.P,J1,P1*%
X59182000Y-84533000D03*
D11*
%TO.P,J1,B12*%
X60532000Y-84163000D03*
%TO.P,J1,B9*%
%TO.N,VCC*%
X61382000Y-84163000D03*
%TO.P,J1,B8*%
%TO.N,Net-(J1-PadB8)*%
X62232000Y-84163000D03*
%TO.P,J1,B7*%
%TO.N,D-*%
X63082000Y-84163000D03*
%TO.P,J1,B6*%
%TO.N,D+*%
X63932000Y-84163000D03*
%TO.P,J1,B5*%
%TO.N,Net-(J1-PadB5)*%
X64782000Y-84163000D03*
%TO.P,J1,B4*%
%TO.N,VCC*%
X65632000Y-84163000D03*
%TO.P,J1,B1*%
%TO.N,GND*%
X66482000Y-84163000D03*
%TO.P,J1,A12*%
X66482000Y-85513000D03*
%TO.P,J1,A9*%
%TO.N,VCC*%
X65632000Y-85513000D03*
%TO.P,J1,A8*%
%TO.N,Net-(J1-PadA8)*%
X64782000Y-85513000D03*
%TO.P,J1,A7*%
%TO.N,D-*%
X63932000Y-85513000D03*
%TO.P,J1,A6*%
%TO.N,D+*%
X63082000Y-85513000D03*
%TO.P,J1,A5*%
%TO.N,Net-(J1-PadA5)*%
X62232000Y-85513000D03*
%TO.P,J1,A4*%
%TO.N,VCC*%
X61382000Y-85513000D03*
%TO.P,J1,A1*%
%TO.N,GND*%
X60532000Y-85513000D03*
%TD*%
D12*
%TO.P,MX3,1*%
%TO.N,COL0*%
X99337500Y-103950000D03*
%TA.AperFunction,ComponentPad*%
G36*
G01*
X101398817Y-106247345D02*
X101398817Y-106247345D01*
G75*
G02*
X99810155Y-106161317I-751317J837345D01*
G01*
X98500153Y-104701317D01*
G75*
G02*
X98586181Y-103112655I837345J751317D01*
G01*
X98586181Y-103112655D01*
G75*
G02*
X100174843Y-103198683I751317J-837345D01*
G01*
X101484845Y-104658683D01*
G75*
G02*
X101398817Y-106247345I-837345J-751317D01*
G01*
G37*
%TD.AperFunction*%
%TO.P,MX3,2*%
%TO.N,Net-(D3-Pad2)*%
X94297500Y-102870000D03*
%TA.AperFunction,ComponentPad*%
G36*
G01*
X94414903Y-104572334D02*
X94414903Y-104572334D01*
G75*
G02*
X93215166Y-103527403I-77403J1122334D01*
G01*
X93175166Y-102947403D01*
G75*
G02*
X94220097Y-101747666I1122334J77403D01*
G01*
X94220097Y-101747666D01*
G75*
G02*
X95419834Y-102792597I77403J-1122334D01*
G01*
X95459834Y-103372597D01*
G75*
G02*
X94414903Y-104572334I-1122334J-77403D01*
G01*
G37*
%TD.AperFunction*%
%TD*%
%TO.P,MX4,1*%
%TO.N,COL1*%
X118387500Y-103950000D03*
%TA.AperFunction,ComponentPad*%
G36*
G01*
X120448817Y-106247345D02*
X120448817Y-106247345D01*
G75*
G02*
X118860155Y-106161317I-751317J837345D01*
G01*
X117550153Y-104701317D01*
G75*
G02*
X117636181Y-103112655I837345J751317D01*
G01*
X117636181Y-103112655D01*
G75*
G02*
X119224843Y-103198683I751317J-837345D01*
G01*
X120534845Y-104658683D01*
G75*
G02*
X120448817Y-106247345I-837345J-751317D01*
G01*
G37*
%TD.AperFunction*%
%TO.P,MX4,2*%
%TO.N,Net-(D4-Pad2)*%
X113347500Y-102870000D03*
%TA.AperFunction,ComponentPad*%
G36*
G01*
X113464903Y-104572334D02*
X113464903Y-104572334D01*
G75*
G02*
X112265166Y-103527403I-77403J1122334D01*
G01*
X112225166Y-102947403D01*
G75*
G02*
X113270097Y-101747666I1122334J77403D01*
G01*
X113270097Y-101747666D01*
G75*
G02*
X114469834Y-102792597I77403J-1122334D01*
G01*
X114509834Y-103372597D01*
G75*
G02*
X113464903Y-104572334I-1122334J-77403D01*
G01*
G37*
%TD.AperFunction*%
%TD*%
%TO.P,MX2,1*%
%TO.N,COL1*%
X118387500Y-84900000D03*
%TA.AperFunction,ComponentPad*%
G36*
G01*
X120448817Y-87197345D02*
X120448817Y-87197345D01*
G75*
G02*
X118860155Y-87111317I-751317J837345D01*
G01*
X117550153Y-85651317D01*
G75*
G02*
X117636181Y-84062655I837345J751317D01*
G01*
X117636181Y-84062655D01*
G75*
G02*
X119224843Y-84148683I751317J-837345D01*
G01*
X120534845Y-85608683D01*
G75*
G02*
X120448817Y-87197345I-837345J-751317D01*
G01*
G37*
%TD.AperFunction*%
%TO.P,MX2,2*%
%TO.N,Net-(D2-Pad2)*%
X113347500Y-83820000D03*
%TA.AperFunction,ComponentPad*%
G36*
G01*
X113464903Y-85522334D02*
X113464903Y-85522334D01*
G75*
G02*
X112265166Y-84477403I-77403J1122334D01*
G01*
X112225166Y-83897403D01*
G75*
G02*
X113270097Y-82697666I1122334J77403D01*
G01*
X113270097Y-82697666D01*
G75*
G02*
X114469834Y-83742597I77403J-1122334D01*
G01*
X114509834Y-84322597D01*
G75*
G02*
X113464903Y-85522334I-1122334J-77403D01*
G01*
G37*
%TD.AperFunction*%
%TD*%
%TO.P,MX1,1*%
%TO.N,COL0*%
X99337500Y-84900000D03*
%TA.AperFunction,ComponentPad*%
G36*
G01*
X101398817Y-87197345D02*
X101398817Y-87197345D01*
G75*
G02*
X99810155Y-87111317I-751317J837345D01*
G01*
X98500153Y-85651317D01*
G75*
G02*
X98586181Y-84062655I837345J751317D01*
G01*
X98586181Y-84062655D01*
G75*
G02*
X100174843Y-84148683I751317J-837345D01*
G01*
X101484845Y-85608683D01*
G75*
G02*
X101398817Y-87197345I-837345J-751317D01*
G01*
G37*
%TD.AperFunction*%
%TO.P,MX1,2*%
%TO.N,Net-(D1-Pad2)*%
X94297500Y-83820000D03*
%TA.AperFunction,ComponentPad*%
G36*
G01*
X94414903Y-85522334D02*
X94414903Y-85522334D01*
G75*
G02*
X93215166Y-84477403I-77403J1122334D01*
G01*
X93175166Y-83897403D01*
G75*
G02*
X94220097Y-82697666I1122334J77403D01*
G01*
X94220097Y-82697666D01*
G75*
G02*
X95419834Y-83742597I77403J-1122334D01*
G01*
X95459834Y-84322597D01*
G75*
G02*
X94414903Y-85522334I-1122334J-77403D01*
G01*
G37*
%TD.AperFunction*%
%TD*%
D13*
%TO.N,GND*%
X64395067Y-98799933D03*
X64262000Y-103759000D03*
%TO.N,+5V*%
X67691000Y-101981000D03*
X71755000Y-108966000D03*
X79883000Y-108966000D03*
X67691000Y-97663000D03*
X71120000Y-88392000D03*
X86106000Y-94488000D03*
%TO.N,ROW1*%
X90424000Y-111760000D03*
X90424000Y-99949000D03*
%TO.N,Net-(R1-Pad2)*%
X59309000Y-114554000D03*
X67564000Y-90170000D03*
%TO.N,D+*%
X64643000Y-88138000D03*
X63112933Y-87665000D03*
%TO.N,Net-(J1-PadB5)*%
X59436000Y-90932000D03*
X59623132Y-82912641D03*
%TO.N,Net-(J1-PadA5)*%
X59436000Y-88519000D03*
X62113716Y-87625391D03*
%TD*%
D14*
%TO.N,GND*%
X60787882Y-83447499D02*
X65975441Y-83447499D01*
X60532000Y-84163000D02*
X60532000Y-83703381D01*
X65975441Y-83447499D02*
X66421000Y-83893058D01*
X60532000Y-83703381D02*
X60787882Y-83447499D01*
X66421000Y-83893058D02*
X66421000Y-83947000D01*
X62865000Y-100330000D02*
X64395067Y-98799933D01*
X64262000Y-103759000D02*
X62865000Y-102362000D01*
X62865000Y-102362000D02*
X62865000Y-100330000D01*
%TO.N,+5V*%
X67691000Y-101981000D02*
X67691000Y-106934000D01*
X67691000Y-106934000D02*
X70485000Y-109728000D01*
X71755000Y-109728000D02*
X71755000Y-109093000D01*
X70485000Y-109728000D02*
X71755000Y-109728000D01*
X71755000Y-109093000D02*
X71755000Y-108966000D01*
X71755000Y-109728000D02*
X75819000Y-109728000D01*
X79121000Y-109728000D02*
X75819000Y-109728000D01*
X79883000Y-108966000D02*
X79121000Y-109728000D01*
X67691000Y-101981000D02*
X67691000Y-97663000D01*
X67691000Y-97663000D02*
X67691000Y-93472000D01*
X67691000Y-93472000D02*
X68580000Y-92583000D01*
X68580000Y-92583000D02*
X68580000Y-89027000D01*
X68580000Y-89027000D02*
X69215000Y-88392000D01*
X69215000Y-88392000D02*
X71120000Y-88392000D01*
X71120000Y-88392000D02*
X73406000Y-88392000D01*
X73406000Y-88392000D02*
X75946000Y-90932000D01*
X75946000Y-90932000D02*
X82296000Y-90932000D01*
X82296000Y-90932000D02*
X85090000Y-90932000D01*
X85090000Y-90932000D02*
X86106000Y-91948000D01*
X86106000Y-91948000D02*
X86106000Y-94488000D01*
D15*
%TO.N,Net-(D3-Pad2)*%
X94337500Y-103950000D02*
X94298000Y-103950000D01*
X94298000Y-103950000D02*
X93599000Y-103251000D01*
%TO.N,ROW1*%
X90424000Y-111760000D02*
X90424000Y-99949000D01*
%TO.N,Net-(D4-Pad2)*%
X113387500Y-103950000D02*
X113387500Y-103608500D01*
X113387500Y-103950000D02*
X113221000Y-103950000D01*
X113221000Y-103950000D02*
X112649000Y-103378000D01*
D14*
%TO.N,VCC*%
X61637882Y-86228501D02*
X65125441Y-86228501D01*
X65125441Y-86228501D02*
X65659000Y-85694942D01*
X61382000Y-85512000D02*
X61341000Y-85471000D01*
X61637882Y-86228501D02*
X61590501Y-86228501D01*
X61590501Y-86228501D02*
X61341000Y-85979000D01*
X61341000Y-85979000D02*
X61341000Y-85471000D01*
D15*
%TO.N,COL0*%
X100647500Y-86360000D02*
X100647500Y-86550500D01*
X100647500Y-86550500D02*
X100076000Y-87122000D01*
X100076000Y-87122000D02*
X100076000Y-103378000D01*
%TO.N,COL1*%
X119697500Y-86360000D02*
X119697500Y-86423500D01*
X119697500Y-86423500D02*
X118999000Y-87122000D01*
X118999000Y-87122000D02*
X118999000Y-103251000D01*
%TO.N,Net-(R1-Pad2)*%
X59309000Y-114554000D02*
X59309000Y-95504000D01*
X59309000Y-95504000D02*
X60198000Y-94615000D01*
X60198000Y-94615000D02*
X65405000Y-94615000D01*
X65405000Y-94615000D02*
X67564000Y-92456000D01*
X67564000Y-92456000D02*
X67564000Y-91440000D01*
X67564000Y-91440000D02*
X67564000Y-90170000D01*
%TO.N,D+*%
X64643000Y-88138000D02*
X63500000Y-88138000D01*
X63500000Y-88138000D02*
X63119000Y-87757000D01*
X63119000Y-87757000D02*
X63112933Y-87750933D01*
X63112933Y-87750933D02*
X63112933Y-87665000D01*
%TO.N,D-*%
X63932000Y-85127962D02*
X63119000Y-84314962D01*
X63932000Y-85513000D02*
X63932000Y-85127962D01*
X63119000Y-84314962D02*
X63119000Y-84201000D01*
%TO.N,Net-(J1-PadB5)*%
X59436000Y-90932000D02*
X59436000Y-90170000D01*
X59436000Y-90170000D02*
X59055000Y-89789000D01*
X59055000Y-89789000D02*
X56134000Y-89789000D01*
X56134000Y-89789000D02*
X56007000Y-89662000D01*
X56007000Y-89662000D02*
X56007000Y-86995000D01*
X56007000Y-86995000D02*
X58166000Y-84836000D01*
X58166000Y-83749064D02*
X58857064Y-83058000D01*
X58166000Y-84836000D02*
X58166000Y-83749064D01*
X58857064Y-83058000D02*
X59563000Y-83058000D01*
X59563000Y-83058000D02*
X59563000Y-82972773D01*
X59563000Y-82972773D02*
X59623132Y-82912641D01*
%TO.N,Net-(J1-PadA5)*%
X59436000Y-88519000D02*
X61341000Y-88519000D01*
X61341000Y-88519000D02*
X62230000Y-87630000D01*
X62230000Y-87630000D02*
X62225391Y-87625391D01*
X62225391Y-87625391D02*
X62113716Y-87625391D01*
%TD*%
%TO.N,GND*%
G36*
X58040623Y-80242478D02*
G01*
X57993000Y-80472000D01*
X57993000Y-81026000D01*
X59055000Y-81026000D01*
X59055000Y-81006000D01*
X59309000Y-81006000D01*
X59309000Y-81026000D01*
X60371000Y-81026000D01*
X60371000Y-80472000D01*
X60323377Y-80242478D01*
X60235429Y-80035000D01*
X66778571Y-80035000D01*
X66690623Y-80242478D01*
X66643000Y-80472000D01*
X66643000Y-81026000D01*
X67705000Y-81026000D01*
X67705000Y-81006000D01*
X67959000Y-81006000D01*
X67959000Y-81026000D01*
X69021000Y-81026000D01*
X69021000Y-80472000D01*
X68973377Y-80242478D01*
X68885429Y-80035000D01*
X123792721Y-80035000D01*
X124004538Y-80055769D01*
X124177237Y-80107910D01*
X124336518Y-80192602D01*
X124476319Y-80306619D01*
X124591308Y-80445617D01*
X124677110Y-80604305D01*
X124730455Y-80776635D01*
X124752501Y-80986390D01*
X124752500Y-115855220D01*
X124731731Y-116067038D01*
X124679591Y-116239736D01*
X124594899Y-116399018D01*
X124480878Y-116538821D01*
X124341885Y-116653806D01*
X124183195Y-116739610D01*
X124010865Y-116792955D01*
X123801119Y-116815000D01*
X57182280Y-116815000D01*
X56970462Y-116794231D01*
X56797764Y-116742091D01*
X56638482Y-116657399D01*
X56498679Y-116543378D01*
X56383694Y-116404385D01*
X56297890Y-116245695D01*
X56244545Y-116073365D01*
X56222500Y-115863619D01*
X56222500Y-114452061D01*
X58274000Y-114452061D01*
X58274000Y-114655939D01*
X58313774Y-114855898D01*
X58391795Y-115044256D01*
X58505063Y-115213774D01*
X58649226Y-115357937D01*
X58818744Y-115471205D01*
X59007102Y-115549226D01*
X59207061Y-115589000D01*
X59410939Y-115589000D01*
X59610898Y-115549226D01*
X59799256Y-115471205D01*
X59968774Y-115357937D01*
X60112937Y-115213774D01*
X60226205Y-115044256D01*
X60304226Y-114855898D01*
X60344000Y-114655939D01*
X60344000Y-114452061D01*
X60304226Y-114252102D01*
X60226205Y-114063744D01*
X60112937Y-113894226D01*
X60071000Y-113852289D01*
X60071000Y-95819630D01*
X60513631Y-95377000D01*
X65367577Y-95377000D01*
X65405000Y-95380686D01*
X65442423Y-95377000D01*
X65442426Y-95377000D01*
X65554378Y-95365974D01*
X65698015Y-95322402D01*
X65830392Y-95251645D01*
X65946422Y-95156422D01*
X65970284Y-95127346D01*
X66865501Y-94232130D01*
X66865500Y-97035497D01*
X66773795Y-97172744D01*
X66695774Y-97361102D01*
X66656000Y-97561061D01*
X66656000Y-97764939D01*
X66695774Y-97964898D01*
X66773795Y-98153256D01*
X66865501Y-98290504D01*
X66865500Y-101353497D01*
X66773795Y-101490744D01*
X66695774Y-101679102D01*
X66656000Y-101879061D01*
X66656000Y-102082939D01*
X66695774Y-102282898D01*
X66773795Y-102471256D01*
X66865500Y-102608503D01*
X66865501Y-106893440D01*
X66861506Y-106934000D01*
X66877445Y-107095826D01*
X66924647Y-107251433D01*
X67001301Y-107394842D01*
X67062863Y-107469854D01*
X67104460Y-107520541D01*
X67135961Y-107546393D01*
X69872611Y-110283045D01*
X69898459Y-110314541D01*
X69929955Y-110340389D01*
X69929958Y-110340392D01*
X70024157Y-110417699D01*
X70136734Y-110477873D01*
X70167566Y-110494353D01*
X70323174Y-110541556D01*
X70444447Y-110553500D01*
X70444449Y-110553500D01*
X70485000Y-110557494D01*
X70525550Y-110553500D01*
X71714447Y-110553500D01*
X71755000Y-110557494D01*
X71795553Y-110553500D01*
X79080450Y-110553500D01*
X79121000Y-110557494D01*
X79161550Y-110553500D01*
X79161553Y-110553500D01*
X79282826Y-110541556D01*
X79438434Y-110494353D01*
X79581842Y-110417699D01*
X79707541Y-110314541D01*
X79733397Y-110283035D01*
X80023004Y-109993428D01*
X80184898Y-109961226D01*
X80373256Y-109883205D01*
X80542774Y-109769937D01*
X80686937Y-109625774D01*
X80800205Y-109456256D01*
X80878226Y-109267898D01*
X80918000Y-109067939D01*
X80918000Y-108864061D01*
X80878226Y-108664102D01*
X80800205Y-108475744D01*
X80686937Y-108306226D01*
X80542774Y-108162063D01*
X80373256Y-108048795D01*
X80184898Y-107970774D01*
X79984939Y-107931000D01*
X79781061Y-107931000D01*
X79581102Y-107970774D01*
X79392744Y-108048795D01*
X79223226Y-108162063D01*
X79079063Y-108306226D01*
X78965795Y-108475744D01*
X78887774Y-108664102D01*
X78855572Y-108825996D01*
X78779067Y-108902500D01*
X72790000Y-108902500D01*
X72790000Y-108864061D01*
X72750226Y-108664102D01*
X72672205Y-108475744D01*
X72558937Y-108306226D01*
X72414774Y-108162063D01*
X72245256Y-108048795D01*
X72056898Y-107970774D01*
X71856939Y-107931000D01*
X71653061Y-107931000D01*
X71453102Y-107970774D01*
X71264744Y-108048795D01*
X71095226Y-108162063D01*
X70951063Y-108306226D01*
X70837795Y-108475744D01*
X70759774Y-108664102D01*
X70731364Y-108806930D01*
X68516500Y-106592068D01*
X68516500Y-102608503D01*
X68608205Y-102471256D01*
X68686226Y-102282898D01*
X68726000Y-102082939D01*
X68726000Y-101879061D01*
X68686226Y-101679102D01*
X68608205Y-101490744D01*
X68516500Y-101353497D01*
X68516500Y-99847061D01*
X89389000Y-99847061D01*
X89389000Y-100050939D01*
X89428774Y-100250898D01*
X89506795Y-100439256D01*
X89620063Y-100608774D01*
X89662001Y-100650712D01*
X89662000Y-111058289D01*
X89620063Y-111100226D01*
X89506795Y-111269744D01*
X89428774Y-111458102D01*
X89389000Y-111658061D01*
X89389000Y-111861939D01*
X89428774Y-112061898D01*
X89506795Y-112250256D01*
X89620063Y-112419774D01*
X89764226Y-112563937D01*
X89933744Y-112677205D01*
X90122102Y-112755226D01*
X90322061Y-112795000D01*
X90525939Y-112795000D01*
X90725898Y-112755226D01*
X90914256Y-112677205D01*
X91083774Y-112563937D01*
X91227937Y-112419774D01*
X91341205Y-112250256D01*
X91419226Y-112061898D01*
X91459000Y-111861939D01*
X91459000Y-111658061D01*
X91419226Y-111458102D01*
X91341205Y-111269744D01*
X91227937Y-111100226D01*
X91186000Y-111058289D01*
X91186000Y-109347689D01*
X91317049Y-109401971D01*
X91608778Y-109460000D01*
X91906222Y-109460000D01*
X92197951Y-109401971D01*
X92472753Y-109288144D01*
X92720069Y-109122893D01*
X92930393Y-108912569D01*
X93095644Y-108665253D01*
X93209471Y-108390451D01*
X93267500Y-108098722D01*
X93267500Y-107801278D01*
X93245580Y-107691076D01*
X94208600Y-107691076D01*
X94208600Y-108208924D01*
X94309627Y-108716822D01*
X94507799Y-109195251D01*
X94795500Y-109625826D01*
X95161674Y-109992000D01*
X95592249Y-110279701D01*
X96070678Y-110477873D01*
X96578576Y-110578900D01*
X97096424Y-110578900D01*
X97604322Y-110477873D01*
X98082751Y-110279701D01*
X98513326Y-109992000D01*
X98879500Y-109625826D01*
X99167201Y-109195251D01*
X99365373Y-108716822D01*
X99466400Y-108208924D01*
X99466400Y-107691076D01*
X99365373Y-107183178D01*
X99167201Y-106704749D01*
X98879500Y-106274174D01*
X98513326Y-105908000D01*
X98082751Y-105620299D01*
X97604322Y-105422127D01*
X97096424Y-105321100D01*
X96578576Y-105321100D01*
X96070678Y-105422127D01*
X95592249Y-105620299D01*
X95161674Y-105908000D01*
X94795500Y-106274174D01*
X94507799Y-106704749D01*
X94309627Y-107183178D01*
X94208600Y-107691076D01*
X93245580Y-107691076D01*
X93209471Y-107509549D01*
X93095644Y-107234747D01*
X92930393Y-106987431D01*
X92720069Y-106777107D01*
X92472753Y-106611856D01*
X92197951Y-106498029D01*
X91906222Y-106440000D01*
X91608778Y-106440000D01*
X91317049Y-106498029D01*
X91186000Y-106552311D01*
X91186000Y-102904843D01*
X92535723Y-102904843D01*
X92537500Y-102930610D01*
X92537500Y-103043345D01*
X92549401Y-103103175D01*
X92587619Y-103657340D01*
X92630816Y-103913542D01*
X92754041Y-104237592D01*
X92938119Y-104531377D01*
X93175974Y-104783604D01*
X93458466Y-104984582D01*
X93774739Y-105126587D01*
X94112638Y-105204161D01*
X94459177Y-105214324D01*
X94801041Y-105156684D01*
X95125092Y-105033459D01*
X95418876Y-104849381D01*
X95671104Y-104611526D01*
X95872081Y-104329034D01*
X96014087Y-104012762D01*
X96091660Y-103674863D01*
X96099277Y-103415156D01*
X96057500Y-102809387D01*
X96057500Y-102696655D01*
X96028705Y-102551892D01*
X96004184Y-102406459D01*
X95994942Y-102382154D01*
X95989864Y-102356627D01*
X95933379Y-102220260D01*
X95880959Y-102082408D01*
X95867152Y-102060372D01*
X95857192Y-102036327D01*
X95775184Y-101913593D01*
X95696881Y-101788624D01*
X95679041Y-101769706D01*
X95664581Y-101748065D01*
X95560205Y-101643689D01*
X95459026Y-101536396D01*
X95437838Y-101521322D01*
X95419435Y-101502919D01*
X95296691Y-101420904D01*
X95176534Y-101335419D01*
X95152817Y-101324770D01*
X95131173Y-101310308D01*
X94994798Y-101253820D01*
X94860261Y-101193413D01*
X94834914Y-101187594D01*
X94810873Y-101177636D01*
X94666106Y-101148840D01*
X94522362Y-101115840D01*
X94496372Y-101115078D01*
X94470845Y-101110000D01*
X94323249Y-101110000D01*
X94175823Y-101105676D01*
X94150177Y-101110000D01*
X94124155Y-101110000D01*
X93979392Y-101138795D01*
X93833959Y-101163316D01*
X93809654Y-101172558D01*
X93784127Y-101177636D01*
X93647760Y-101234121D01*
X93509908Y-101286541D01*
X93487872Y-101300348D01*
X93463827Y-101310308D01*
X93341093Y-101392316D01*
X93216124Y-101470619D01*
X93197206Y-101488459D01*
X93175565Y-101502919D01*
X93071189Y-101607295D01*
X92963896Y-101708474D01*
X92948822Y-101729662D01*
X92930419Y-101748065D01*
X92848404Y-101870809D01*
X92762919Y-101990966D01*
X92752270Y-102014683D01*
X92737808Y-102036327D01*
X92681320Y-102172702D01*
X92620913Y-102307239D01*
X92615094Y-102332586D01*
X92605136Y-102356627D01*
X92576340Y-102501394D01*
X92543340Y-102645138D01*
X92542578Y-102671128D01*
X92537500Y-102696655D01*
X92537500Y-102844255D01*
X92535723Y-102904843D01*
X91186000Y-102904843D01*
X91186000Y-100650711D01*
X91227937Y-100608774D01*
X91341205Y-100439256D01*
X91419226Y-100250898D01*
X91459000Y-100050939D01*
X91459000Y-99847061D01*
X91419226Y-99647102D01*
X91341205Y-99458744D01*
X91227937Y-99289226D01*
X91083774Y-99145063D01*
X90914256Y-99031795D01*
X90725898Y-98953774D01*
X90525939Y-98914000D01*
X90322061Y-98914000D01*
X90122102Y-98953774D01*
X89933744Y-99031795D01*
X89764226Y-99145063D01*
X89620063Y-99289226D01*
X89506795Y-99458744D01*
X89428774Y-99647102D01*
X89389000Y-99847061D01*
X68516500Y-99847061D01*
X68516500Y-98290503D01*
X68608205Y-98153256D01*
X68686226Y-97964898D01*
X68726000Y-97764939D01*
X68726000Y-97561061D01*
X68686226Y-97361102D01*
X68608205Y-97172744D01*
X68516500Y-97035497D01*
X68516500Y-93813933D01*
X69135046Y-93195388D01*
X69166541Y-93169541D01*
X69192389Y-93138045D01*
X69192392Y-93138042D01*
X69269699Y-93043843D01*
X69346353Y-92900434D01*
X69388481Y-92761555D01*
X69393556Y-92744826D01*
X69405500Y-92623553D01*
X69405500Y-92623551D01*
X69409494Y-92583000D01*
X69405500Y-92542450D01*
X69405500Y-89368933D01*
X69556933Y-89217500D01*
X70492497Y-89217500D01*
X70629744Y-89309205D01*
X70818102Y-89387226D01*
X71018061Y-89427000D01*
X71221939Y-89427000D01*
X71421898Y-89387226D01*
X71610256Y-89309205D01*
X71747503Y-89217500D01*
X73064068Y-89217500D01*
X75333606Y-91487039D01*
X75359459Y-91518541D01*
X75420511Y-91568645D01*
X75485156Y-91621698D01*
X75485158Y-91621699D01*
X75628566Y-91698353D01*
X75784174Y-91745556D01*
X75905447Y-91757500D01*
X75905456Y-91757500D01*
X75945999Y-91761493D01*
X75986542Y-91757500D01*
X84748068Y-91757500D01*
X85280500Y-92289933D01*
X85280501Y-93860496D01*
X85188795Y-93997744D01*
X85110774Y-94186102D01*
X85071000Y-94386061D01*
X85071000Y-94589939D01*
X85110774Y-94789898D01*
X85188795Y-94978256D01*
X85302063Y-95147774D01*
X85446226Y-95291937D01*
X85615744Y-95405205D01*
X85804102Y-95483226D01*
X86004061Y-95523000D01*
X86207939Y-95523000D01*
X86407898Y-95483226D01*
X86596256Y-95405205D01*
X86765774Y-95291937D01*
X86909937Y-95147774D01*
X87023205Y-94978256D01*
X87101226Y-94789898D01*
X87141000Y-94589939D01*
X87141000Y-94386061D01*
X87101226Y-94186102D01*
X87023205Y-93997744D01*
X86931500Y-93860497D01*
X86931500Y-91988550D01*
X86935494Y-91948000D01*
X86931500Y-91907447D01*
X86919556Y-91786174D01*
X86872353Y-91630566D01*
X86812474Y-91518541D01*
X86795699Y-91487157D01*
X86718391Y-91392958D01*
X86692541Y-91361459D01*
X86661040Y-91335607D01*
X85702398Y-90376966D01*
X85676541Y-90345459D01*
X85550842Y-90242301D01*
X85407434Y-90165647D01*
X85251826Y-90118444D01*
X85130553Y-90106500D01*
X85130550Y-90106500D01*
X85090000Y-90102506D01*
X85049450Y-90106500D01*
X76287933Y-90106500D01*
X74932711Y-88751278D01*
X90247500Y-88751278D01*
X90247500Y-89048722D01*
X90305529Y-89340451D01*
X90419356Y-89615253D01*
X90584607Y-89862569D01*
X90794931Y-90072893D01*
X91042247Y-90238144D01*
X91317049Y-90351971D01*
X91608778Y-90410000D01*
X91906222Y-90410000D01*
X92197951Y-90351971D01*
X92472753Y-90238144D01*
X92720069Y-90072893D01*
X92930393Y-89862569D01*
X93095644Y-89615253D01*
X93209471Y-89340451D01*
X93267500Y-89048722D01*
X93267500Y-88751278D01*
X93245580Y-88641076D01*
X94208600Y-88641076D01*
X94208600Y-89158924D01*
X94309627Y-89666822D01*
X94507799Y-90145251D01*
X94795500Y-90575826D01*
X95161674Y-90942000D01*
X95592249Y-91229701D01*
X96070678Y-91427873D01*
X96578576Y-91528900D01*
X97096424Y-91528900D01*
X97604322Y-91427873D01*
X98082751Y-91229701D01*
X98513326Y-90942000D01*
X98879500Y-90575826D01*
X99167201Y-90145251D01*
X99314000Y-89790847D01*
X99314001Y-102189327D01*
X99298741Y-102190000D01*
X99164155Y-102190000D01*
X99125811Y-102197627D01*
X99086772Y-102199349D01*
X98956112Y-102231382D01*
X98824127Y-102257636D01*
X98788014Y-102272595D01*
X98750054Y-102281901D01*
X98628147Y-102338813D01*
X98503827Y-102390308D01*
X98471324Y-102412026D01*
X98435912Y-102428558D01*
X98327450Y-102508159D01*
X98215565Y-102582919D01*
X98187925Y-102610559D01*
X98156417Y-102633683D01*
X98065566Y-102732918D01*
X97970419Y-102828065D01*
X97948702Y-102860566D01*
X97922311Y-102889393D01*
X97852565Y-103004446D01*
X97777808Y-103116327D01*
X97762850Y-103152438D01*
X97742589Y-103185861D01*
X97696626Y-103312320D01*
X97645136Y-103436627D01*
X97637511Y-103474961D01*
X97624159Y-103511696D01*
X97603749Y-103644691D01*
X97577500Y-103776655D01*
X97577500Y-103815739D01*
X97571571Y-103854374D01*
X97577500Y-103988802D01*
X97577500Y-104123345D01*
X97585125Y-104161677D01*
X97586847Y-104200726D01*
X97618889Y-104331421D01*
X97645136Y-104463373D01*
X97660091Y-104499477D01*
X97669399Y-104537444D01*
X97726322Y-104659373D01*
X97777808Y-104783673D01*
X97799523Y-104816171D01*
X97816056Y-104851586D01*
X97895666Y-104960059D01*
X97970419Y-105071935D01*
X98059308Y-105160824D01*
X99395256Y-106649742D01*
X99586892Y-106825187D01*
X99883361Y-107004909D01*
X100209195Y-107123339D01*
X100551873Y-107175927D01*
X100620686Y-107172892D01*
X100579356Y-107234747D01*
X100465529Y-107509549D01*
X100407500Y-107801278D01*
X100407500Y-108098722D01*
X100465529Y-108390451D01*
X100579356Y-108665253D01*
X100744607Y-108912569D01*
X100954931Y-109122893D01*
X101202247Y-109288144D01*
X101477049Y-109401971D01*
X101768778Y-109460000D01*
X102066222Y-109460000D01*
X102357951Y-109401971D01*
X102632753Y-109288144D01*
X102880069Y-109122893D01*
X103090393Y-108912569D01*
X103255644Y-108665253D01*
X103369471Y-108390451D01*
X103427500Y-108098722D01*
X103427500Y-107801278D01*
X109297500Y-107801278D01*
X109297500Y-108098722D01*
X109355529Y-108390451D01*
X109469356Y-108665253D01*
X109634607Y-108912569D01*
X109844931Y-109122893D01*
X110092247Y-109288144D01*
X110367049Y-109401971D01*
X110658778Y-109460000D01*
X110956222Y-109460000D01*
X111247951Y-109401971D01*
X111522753Y-109288144D01*
X111770069Y-109122893D01*
X111980393Y-108912569D01*
X112145644Y-108665253D01*
X112259471Y-108390451D01*
X112317500Y-108098722D01*
X112317500Y-107801278D01*
X112295580Y-107691076D01*
X113258600Y-107691076D01*
X113258600Y-108208924D01*
X113359627Y-108716822D01*
X113557799Y-109195251D01*
X113845500Y-109625826D01*
X114211674Y-109992000D01*
X114642249Y-110279701D01*
X115120678Y-110477873D01*
X115628576Y-110578900D01*
X116146424Y-110578900D01*
X116654322Y-110477873D01*
X117132751Y-110279701D01*
X117563326Y-109992000D01*
X117929500Y-109625826D01*
X118217201Y-109195251D01*
X118415373Y-108716822D01*
X118516400Y-108208924D01*
X118516400Y-107691076D01*
X118415373Y-107183178D01*
X118217201Y-106704749D01*
X117929500Y-106274174D01*
X117563326Y-105908000D01*
X117132751Y-105620299D01*
X116654322Y-105422127D01*
X116146424Y-105321100D01*
X115628576Y-105321100D01*
X115120678Y-105422127D01*
X114642249Y-105620299D01*
X114211674Y-105908000D01*
X113845500Y-106274174D01*
X113557799Y-106704749D01*
X113359627Y-107183178D01*
X113258600Y-107691076D01*
X112295580Y-107691076D01*
X112259471Y-107509549D01*
X112145644Y-107234747D01*
X111980393Y-106987431D01*
X111770069Y-106777107D01*
X111522753Y-106611856D01*
X111247951Y-106498029D01*
X110956222Y-106440000D01*
X110658778Y-106440000D01*
X110367049Y-106498029D01*
X110092247Y-106611856D01*
X109844931Y-106777107D01*
X109634607Y-106987431D01*
X109469356Y-107234747D01*
X109355529Y-107509549D01*
X109297500Y-107801278D01*
X103427500Y-107801278D01*
X103369471Y-107509549D01*
X103255644Y-107234747D01*
X103090393Y-106987431D01*
X102880069Y-106777107D01*
X102632753Y-106611856D01*
X102357951Y-106498029D01*
X102079625Y-106442666D01*
X102242409Y-106174139D01*
X102360839Y-105848304D01*
X102413427Y-105505626D01*
X102398151Y-105159273D01*
X102315599Y-104822555D01*
X102168942Y-104508413D01*
X102015216Y-104298952D01*
X100838000Y-102986943D01*
X100838000Y-102904843D01*
X111585723Y-102904843D01*
X111587500Y-102930610D01*
X111587500Y-103043345D01*
X111599401Y-103103175D01*
X111637619Y-103657340D01*
X111680816Y-103913542D01*
X111804041Y-104237592D01*
X111988119Y-104531377D01*
X112225974Y-104783604D01*
X112508466Y-104984582D01*
X112824739Y-105126587D01*
X113162638Y-105204161D01*
X113509177Y-105214324D01*
X113851041Y-105156684D01*
X114175092Y-105033459D01*
X114468876Y-104849381D01*
X114721104Y-104611526D01*
X114922081Y-104329034D01*
X115064087Y-104012762D01*
X115141660Y-103674863D01*
X115149277Y-103415156D01*
X115107500Y-102809387D01*
X115107500Y-102696655D01*
X115078705Y-102551892D01*
X115054184Y-102406459D01*
X115044942Y-102382154D01*
X115039864Y-102356627D01*
X114983379Y-102220260D01*
X114930959Y-102082408D01*
X114917152Y-102060372D01*
X114907192Y-102036327D01*
X114825184Y-101913593D01*
X114746881Y-101788624D01*
X114729041Y-101769706D01*
X114714581Y-101748065D01*
X114610205Y-101643689D01*
X114509026Y-101536396D01*
X114487838Y-101521322D01*
X114469435Y-101502919D01*
X114346691Y-101420904D01*
X114226534Y-101335419D01*
X114202817Y-101324770D01*
X114181173Y-101310308D01*
X114044798Y-101253820D01*
X113910261Y-101193413D01*
X113884914Y-101187594D01*
X113860873Y-101177636D01*
X113716106Y-101148840D01*
X113572362Y-101115840D01*
X113546372Y-101115078D01*
X113520845Y-101110000D01*
X113373249Y-101110000D01*
X113225823Y-101105676D01*
X113200177Y-101110000D01*
X113174155Y-101110000D01*
X113029392Y-101138795D01*
X112883959Y-101163316D01*
X112859654Y-101172558D01*
X112834127Y-101177636D01*
X112697760Y-101234121D01*
X112559908Y-101286541D01*
X112537872Y-101300348D01*
X112513827Y-101310308D01*
X112391093Y-101392316D01*
X112266124Y-101470619D01*
X112247206Y-101488459D01*
X112225565Y-101502919D01*
X112121189Y-101607295D01*
X112013896Y-101708474D01*
X111998822Y-101729662D01*
X111980419Y-101748065D01*
X111898404Y-101870809D01*
X111812919Y-101990966D01*
X111802270Y-102014683D01*
X111787808Y-102036327D01*
X111731320Y-102172702D01*
X111670913Y-102307239D01*
X111665094Y-102332586D01*
X111655136Y-102356627D01*
X111626340Y-102501394D01*
X111593340Y-102645138D01*
X111592578Y-102671128D01*
X111587500Y-102696655D01*
X111587500Y-102844255D01*
X111585723Y-102904843D01*
X100838000Y-102904843D01*
X100838000Y-89955962D01*
X100954931Y-90072893D01*
X101202247Y-90238144D01*
X101477049Y-90351971D01*
X101768778Y-90410000D01*
X102066222Y-90410000D01*
X102357951Y-90351971D01*
X102632753Y-90238144D01*
X102880069Y-90072893D01*
X103090393Y-89862569D01*
X103255644Y-89615253D01*
X103369471Y-89340451D01*
X103427500Y-89048722D01*
X103427500Y-88751278D01*
X109297500Y-88751278D01*
X109297500Y-89048722D01*
X109355529Y-89340451D01*
X109469356Y-89615253D01*
X109634607Y-89862569D01*
X109844931Y-90072893D01*
X110092247Y-90238144D01*
X110367049Y-90351971D01*
X110658778Y-90410000D01*
X110956222Y-90410000D01*
X111247951Y-90351971D01*
X111522753Y-90238144D01*
X111770069Y-90072893D01*
X111980393Y-89862569D01*
X112145644Y-89615253D01*
X112259471Y-89340451D01*
X112317500Y-89048722D01*
X112317500Y-88751278D01*
X112295580Y-88641076D01*
X113258600Y-88641076D01*
X113258600Y-89158924D01*
X113359627Y-89666822D01*
X113557799Y-90145251D01*
X113845500Y-90575826D01*
X114211674Y-90942000D01*
X114642249Y-91229701D01*
X115120678Y-91427873D01*
X115628576Y-91528900D01*
X116146424Y-91528900D01*
X116654322Y-91427873D01*
X117132751Y-91229701D01*
X117563326Y-90942000D01*
X117929500Y-90575826D01*
X118217201Y-90145251D01*
X118237000Y-90097452D01*
X118237001Y-102190000D01*
X118214155Y-102190000D01*
X118175811Y-102197627D01*
X118136772Y-102199349D01*
X118006112Y-102231382D01*
X117874127Y-102257636D01*
X117838014Y-102272595D01*
X117800054Y-102281901D01*
X117678147Y-102338813D01*
X117553827Y-102390308D01*
X117521324Y-102412026D01*
X117485912Y-102428558D01*
X117377450Y-102508159D01*
X117265565Y-102582919D01*
X117237925Y-102610559D01*
X117206417Y-102633683D01*
X117115566Y-102732918D01*
X117020419Y-102828065D01*
X116998702Y-102860566D01*
X116972311Y-102889393D01*
X116902565Y-103004446D01*
X116827808Y-103116327D01*
X116812850Y-103152438D01*
X116792589Y-103185861D01*
X116746626Y-103312320D01*
X116695136Y-103436627D01*
X116687511Y-103474961D01*
X116674159Y-103511696D01*
X116653749Y-103644691D01*
X116627500Y-103776655D01*
X116627500Y-103815739D01*
X116621571Y-103854374D01*
X116627500Y-103988802D01*
X116627500Y-104123345D01*
X116635125Y-104161677D01*
X116636847Y-104200726D01*
X116668889Y-104331421D01*
X116695136Y-104463373D01*
X116710091Y-104499477D01*
X116719399Y-104537444D01*
X116776322Y-104659373D01*
X116827808Y-104783673D01*
X116849523Y-104816171D01*
X116866056Y-104851586D01*
X116945666Y-104960059D01*
X117020419Y-105071935D01*
X117109308Y-105160824D01*
X118445256Y-106649742D01*
X118636892Y-106825187D01*
X118933361Y-107004909D01*
X119259195Y-107123339D01*
X119601873Y-107175927D01*
X119670686Y-107172892D01*
X119629356Y-107234747D01*
X119515529Y-107509549D01*
X119457500Y-107801278D01*
X119457500Y-108098722D01*
X119515529Y-108390451D01*
X119629356Y-108665253D01*
X119794607Y-108912569D01*
X120004931Y-109122893D01*
X120252247Y-109288144D01*
X120527049Y-109401971D01*
X120818778Y-109460000D01*
X121116222Y-109460000D01*
X121407951Y-109401971D01*
X121682753Y-109288144D01*
X121930069Y-109122893D01*
X122140393Y-108912569D01*
X122305644Y-108665253D01*
X122419471Y-108390451D01*
X122477500Y-108098722D01*
X122477500Y-107801278D01*
X122419471Y-107509549D01*
X122305644Y-107234747D01*
X122140393Y-106987431D01*
X121930069Y-106777107D01*
X121682753Y-106611856D01*
X121407951Y-106498029D01*
X121129625Y-106442666D01*
X121292409Y-106174139D01*
X121410839Y-105848304D01*
X121463427Y-105505626D01*
X121448151Y-105159273D01*
X121365599Y-104822555D01*
X121218942Y-104508413D01*
X121065216Y-104298952D01*
X119781229Y-102867947D01*
X119761000Y-102837672D01*
X119761000Y-89812272D01*
X119794607Y-89862569D01*
X120004931Y-90072893D01*
X120252247Y-90238144D01*
X120527049Y-90351971D01*
X120818778Y-90410000D01*
X121116222Y-90410000D01*
X121407951Y-90351971D01*
X121682753Y-90238144D01*
X121930069Y-90072893D01*
X122140393Y-89862569D01*
X122305644Y-89615253D01*
X122419471Y-89340451D01*
X122477500Y-89048722D01*
X122477500Y-88751278D01*
X122419471Y-88459549D01*
X122305644Y-88184747D01*
X122140393Y-87937431D01*
X121930069Y-87727107D01*
X121682753Y-87561856D01*
X121407951Y-87448029D01*
X121129625Y-87392666D01*
X121292409Y-87124139D01*
X121410839Y-86798304D01*
X121463427Y-86455626D01*
X121448151Y-86109273D01*
X121365599Y-85772555D01*
X121218942Y-85458413D01*
X121065216Y-85248952D01*
X119781229Y-83817947D01*
X119754581Y-83778065D01*
X119665653Y-83689137D01*
X119639741Y-83660258D01*
X119604624Y-83628108D01*
X119509435Y-83532919D01*
X119476919Y-83511192D01*
X119448105Y-83484813D01*
X119333106Y-83415099D01*
X119221173Y-83340308D01*
X119185045Y-83325344D01*
X119151637Y-83305091D01*
X119025234Y-83259148D01*
X118900873Y-83207636D01*
X118862522Y-83200007D01*
X118825802Y-83186661D01*
X118692859Y-83166259D01*
X118560845Y-83140000D01*
X118521746Y-83140000D01*
X118483124Y-83134073D01*
X118348741Y-83140000D01*
X118214155Y-83140000D01*
X118175811Y-83147627D01*
X118136772Y-83149349D01*
X118006112Y-83181382D01*
X117874127Y-83207636D01*
X117838014Y-83222595D01*
X117800054Y-83231901D01*
X117678147Y-83288813D01*
X117553827Y-83340308D01*
X117521324Y-83362026D01*
X117485912Y-83378558D01*
X117377450Y-83458159D01*
X117265565Y-83532919D01*
X117237925Y-83560559D01*
X117206417Y-83583683D01*
X117115566Y-83682918D01*
X117020419Y-83778065D01*
X116998702Y-83810566D01*
X116972311Y-83839393D01*
X116902565Y-83954446D01*
X116827808Y-84066327D01*
X116812850Y-84102438D01*
X116792589Y-84135861D01*
X116746626Y-84262320D01*
X116695136Y-84386627D01*
X116687511Y-84424961D01*
X116674159Y-84461696D01*
X116653749Y-84594691D01*
X116627500Y-84726655D01*
X116627500Y-84765739D01*
X116621571Y-84804374D01*
X116627500Y-84938802D01*
X116627500Y-85073345D01*
X116635125Y-85111677D01*
X116636847Y-85150726D01*
X116668889Y-85281421D01*
X116695136Y-85413373D01*
X116710091Y-85449477D01*
X116719399Y-85487444D01*
X116776322Y-85609373D01*
X116827808Y-85733673D01*
X116849523Y-85766171D01*
X116866056Y-85801586D01*
X116945666Y-85910059D01*
X117020419Y-86021935D01*
X117109308Y-86110824D01*
X118237000Y-87367640D01*
X118237000Y-87702548D01*
X118217201Y-87654749D01*
X117929500Y-87224174D01*
X117563326Y-86858000D01*
X117132751Y-86570299D01*
X116654322Y-86372127D01*
X116146424Y-86271100D01*
X115628576Y-86271100D01*
X115120678Y-86372127D01*
X114642249Y-86570299D01*
X114211674Y-86858000D01*
X113845500Y-87224174D01*
X113557799Y-87654749D01*
X113359627Y-88133178D01*
X113258600Y-88641076D01*
X112295580Y-88641076D01*
X112259471Y-88459549D01*
X112145644Y-88184747D01*
X111980393Y-87937431D01*
X111770069Y-87727107D01*
X111522753Y-87561856D01*
X111247951Y-87448029D01*
X110956222Y-87390000D01*
X110658778Y-87390000D01*
X110367049Y-87448029D01*
X110092247Y-87561856D01*
X109844931Y-87727107D01*
X109634607Y-87937431D01*
X109469356Y-88184747D01*
X109355529Y-88459549D01*
X109297500Y-88751278D01*
X103427500Y-88751278D01*
X103369471Y-88459549D01*
X103255644Y-88184747D01*
X103090393Y-87937431D01*
X102880069Y-87727107D01*
X102632753Y-87561856D01*
X102357951Y-87448029D01*
X102079625Y-87392666D01*
X102242409Y-87124139D01*
X102360839Y-86798304D01*
X102413427Y-86455626D01*
X102398151Y-86109273D01*
X102315599Y-85772555D01*
X102168942Y-85458413D01*
X102015216Y-85248952D01*
X100764335Y-83854843D01*
X111585723Y-83854843D01*
X111587500Y-83880610D01*
X111587500Y-83993345D01*
X111599401Y-84053175D01*
X111637619Y-84607340D01*
X111680816Y-84863542D01*
X111804041Y-85187592D01*
X111988119Y-85481377D01*
X112225974Y-85733604D01*
X112508466Y-85934582D01*
X112824739Y-86076587D01*
X113162638Y-86154161D01*
X113509177Y-86164324D01*
X113851041Y-86106684D01*
X114175092Y-85983459D01*
X114468876Y-85799381D01*
X114721104Y-85561526D01*
X114922081Y-85279034D01*
X115064087Y-84962762D01*
X115141660Y-84624863D01*
X115149277Y-84365156D01*
X115107500Y-83759387D01*
X115107500Y-83646655D01*
X115078705Y-83501892D01*
X115054184Y-83356459D01*
X115044942Y-83332154D01*
X115039864Y-83306627D01*
X114983379Y-83170260D01*
X114930959Y-83032408D01*
X114917152Y-83010372D01*
X114907192Y-82986327D01*
X114825184Y-82863593D01*
X114746881Y-82738624D01*
X114729041Y-82719706D01*
X114714581Y-82698065D01*
X114610205Y-82593689D01*
X114509026Y-82486396D01*
X114487838Y-82471322D01*
X114469435Y-82452919D01*
X114346691Y-82370904D01*
X114226534Y-82285419D01*
X114202817Y-82274770D01*
X114181173Y-82260308D01*
X114044798Y-82203820D01*
X113910261Y-82143413D01*
X113884914Y-82137594D01*
X113860873Y-82127636D01*
X113716106Y-82098840D01*
X113572362Y-82065840D01*
X113546372Y-82065078D01*
X113520845Y-82060000D01*
X113373249Y-82060000D01*
X113225823Y-82055676D01*
X113200177Y-82060000D01*
X113174155Y-82060000D01*
X113029392Y-82088795D01*
X112883959Y-82113316D01*
X112859654Y-82122558D01*
X112834127Y-82127636D01*
X112697760Y-82184121D01*
X112559908Y-82236541D01*
X112537872Y-82250348D01*
X112513827Y-82260308D01*
X112391093Y-82342316D01*
X112266124Y-82420619D01*
X112247206Y-82438459D01*
X112225565Y-82452919D01*
X112121189Y-82557295D01*
X112013896Y-82658474D01*
X111998822Y-82679662D01*
X111980419Y-82698065D01*
X111898404Y-82820809D01*
X111812919Y-82940966D01*
X111802270Y-82964683D01*
X111787808Y-82986327D01*
X111731320Y-83122702D01*
X111670913Y-83257239D01*
X111665094Y-83282586D01*
X111655136Y-83306627D01*
X111626340Y-83451394D01*
X111593340Y-83595138D01*
X111592578Y-83621128D01*
X111587500Y-83646655D01*
X111587500Y-83794255D01*
X111585723Y-83854843D01*
X100764335Y-83854843D01*
X100731229Y-83817947D01*
X100704581Y-83778065D01*
X100615653Y-83689137D01*
X100589741Y-83660258D01*
X100554624Y-83628108D01*
X100459435Y-83532919D01*
X100426919Y-83511192D01*
X100398105Y-83484813D01*
X100283106Y-83415099D01*
X100171173Y-83340308D01*
X100135045Y-83325344D01*
X100101637Y-83305091D01*
X99975234Y-83259148D01*
X99850873Y-83207636D01*
X99812522Y-83200007D01*
X99775802Y-83186661D01*
X99642859Y-83166259D01*
X99510845Y-83140000D01*
X99471746Y-83140000D01*
X99433124Y-83134073D01*
X99298741Y-83140000D01*
X99164155Y-83140000D01*
X99125811Y-83147627D01*
X99086772Y-83149349D01*
X98956112Y-83181382D01*
X98824127Y-83207636D01*
X98788014Y-83222595D01*
X98750054Y-83231901D01*
X98628147Y-83288813D01*
X98503827Y-83340308D01*
X98471324Y-83362026D01*
X98435912Y-83378558D01*
X98327450Y-83458159D01*
X98215565Y-83532919D01*
X98187925Y-83560559D01*
X98156417Y-83583683D01*
X98065566Y-83682918D01*
X97970419Y-83778065D01*
X97948702Y-83810566D01*
X97922311Y-83839393D01*
X97852565Y-83954446D01*
X97777808Y-84066327D01*
X97762850Y-84102438D01*
X97742589Y-84135861D01*
X97696626Y-84262320D01*
X97645136Y-84386627D01*
X97637511Y-84424961D01*
X97624159Y-84461696D01*
X97603749Y-84594691D01*
X97577500Y-84726655D01*
X97577500Y-84765739D01*
X97571571Y-84804374D01*
X97577500Y-84938802D01*
X97577500Y-85073345D01*
X97585125Y-85111677D01*
X97586847Y-85150726D01*
X97618889Y-85281421D01*
X97645136Y-85413373D01*
X97660091Y-85449477D01*
X97669399Y-85487444D01*
X97726322Y-85609373D01*
X97777808Y-85733673D01*
X97799523Y-85766171D01*
X97816056Y-85801586D01*
X97895666Y-85910059D01*
X97970419Y-86021935D01*
X98059308Y-86110824D01*
X99314000Y-87509182D01*
X99314000Y-88009153D01*
X99167201Y-87654749D01*
X98879500Y-87224174D01*
X98513326Y-86858000D01*
X98082751Y-86570299D01*
X97604322Y-86372127D01*
X97096424Y-86271100D01*
X96578576Y-86271100D01*
X96070678Y-86372127D01*
X95592249Y-86570299D01*
X95161674Y-86858000D01*
X94795500Y-87224174D01*
X94507799Y-87654749D01*
X94309627Y-88133178D01*
X94208600Y-88641076D01*
X93245580Y-88641076D01*
X93209471Y-88459549D01*
X93095644Y-88184747D01*
X92930393Y-87937431D01*
X92720069Y-87727107D01*
X92472753Y-87561856D01*
X92197951Y-87448029D01*
X91906222Y-87390000D01*
X91608778Y-87390000D01*
X91317049Y-87448029D01*
X91042247Y-87561856D01*
X90794931Y-87727107D01*
X90584607Y-87937431D01*
X90419356Y-88184747D01*
X90305529Y-88459549D01*
X90247500Y-88751278D01*
X74932711Y-88751278D01*
X74018398Y-87836966D01*
X73992541Y-87805459D01*
X73866842Y-87702301D01*
X73723434Y-87625647D01*
X73567826Y-87578444D01*
X73446553Y-87566500D01*
X73446550Y-87566500D01*
X73406000Y-87562506D01*
X73365450Y-87566500D01*
X71747503Y-87566500D01*
X71610256Y-87474795D01*
X71421898Y-87396774D01*
X71221939Y-87357000D01*
X71018061Y-87357000D01*
X70818102Y-87396774D01*
X70629744Y-87474795D01*
X70492497Y-87566500D01*
X69255550Y-87566500D01*
X69215000Y-87562506D01*
X69174449Y-87566500D01*
X69174447Y-87566500D01*
X69053174Y-87578444D01*
X68898410Y-87625391D01*
X68897566Y-87625647D01*
X68754157Y-87702301D01*
X68659958Y-87779608D01*
X68659957Y-87779609D01*
X68628459Y-87805459D01*
X68602610Y-87836956D01*
X68024961Y-88414607D01*
X67993460Y-88440459D01*
X67967609Y-88471959D01*
X67890301Y-88566158D01*
X67813647Y-88709567D01*
X67766445Y-88865174D01*
X67750506Y-89027000D01*
X67754501Y-89067560D01*
X67754501Y-89152616D01*
X67665939Y-89135000D01*
X67462061Y-89135000D01*
X67262102Y-89174774D01*
X67073744Y-89252795D01*
X66904226Y-89366063D01*
X66760063Y-89510226D01*
X66646795Y-89679744D01*
X66568774Y-89868102D01*
X66529000Y-90068061D01*
X66529000Y-90271939D01*
X66568774Y-90471898D01*
X66646795Y-90660256D01*
X66760063Y-90829774D01*
X66802000Y-90871711D01*
X66802000Y-91477425D01*
X66802001Y-91477434D01*
X66802000Y-92140369D01*
X65089370Y-93853000D01*
X60235423Y-93853000D01*
X60198000Y-93849314D01*
X60160577Y-93853000D01*
X60160574Y-93853000D01*
X60048622Y-93864026D01*
X59904985Y-93907598D01*
X59857757Y-93932842D01*
X59772607Y-93978355D01*
X59748982Y-93997744D01*
X59656578Y-94073578D01*
X59632721Y-94102649D01*
X58796649Y-94938721D01*
X58767579Y-94962578D01*
X58743722Y-94991648D01*
X58743721Y-94991649D01*
X58672355Y-95078608D01*
X58601599Y-95210985D01*
X58558027Y-95354622D01*
X58543314Y-95504000D01*
X58547001Y-95541433D01*
X58547000Y-113852289D01*
X58505063Y-113894226D01*
X58391795Y-114063744D01*
X58313774Y-114252102D01*
X58274000Y-114452061D01*
X56222500Y-114452061D01*
X56222500Y-90551000D01*
X58473539Y-90551000D01*
X58440774Y-90630102D01*
X58401000Y-90830061D01*
X58401000Y-91033939D01*
X58440774Y-91233898D01*
X58518795Y-91422256D01*
X58632063Y-91591774D01*
X58776226Y-91735937D01*
X58945744Y-91849205D01*
X59134102Y-91927226D01*
X59334061Y-91967000D01*
X59537939Y-91967000D01*
X59737898Y-91927226D01*
X59926256Y-91849205D01*
X60095774Y-91735937D01*
X60239937Y-91591774D01*
X60353205Y-91422256D01*
X60431226Y-91233898D01*
X60471000Y-91033939D01*
X60471000Y-90830061D01*
X60431226Y-90630102D01*
X60353205Y-90441744D01*
X60239937Y-90272226D01*
X60198000Y-90230289D01*
X60198000Y-90207422D01*
X60201686Y-90169999D01*
X60195432Y-90106500D01*
X60186974Y-90020622D01*
X60143402Y-89876985D01*
X60072645Y-89744608D01*
X59977422Y-89628578D01*
X59948346Y-89604716D01*
X59822721Y-89479091D01*
X59926256Y-89436205D01*
X60095774Y-89322937D01*
X60137711Y-89281000D01*
X61303577Y-89281000D01*
X61341000Y-89284686D01*
X61378423Y-89281000D01*
X61378426Y-89281000D01*
X61490378Y-89269974D01*
X61634015Y-89226402D01*
X61766392Y-89155645D01*
X61882422Y-89060422D01*
X61906284Y-89031347D01*
X62292531Y-88645100D01*
X62415614Y-88620617D01*
X62578925Y-88552971D01*
X62622677Y-88582205D01*
X62811035Y-88660226D01*
X62974906Y-88692822D01*
X63074608Y-88774645D01*
X63206985Y-88845402D01*
X63350622Y-88888974D01*
X63462574Y-88900000D01*
X63462576Y-88900000D01*
X63499999Y-88903686D01*
X63537422Y-88900000D01*
X63941289Y-88900000D01*
X63983226Y-88941937D01*
X64152744Y-89055205D01*
X64341102Y-89133226D01*
X64541061Y-89173000D01*
X64744939Y-89173000D01*
X64944898Y-89133226D01*
X65133256Y-89055205D01*
X65302774Y-88941937D01*
X65446937Y-88797774D01*
X65560205Y-88628256D01*
X65638226Y-88439898D01*
X65678000Y-88239939D01*
X65678000Y-88036061D01*
X65638226Y-87836102D01*
X65560205Y-87647744D01*
X65446937Y-87478226D01*
X65302774Y-87334063D01*
X65133256Y-87220795D01*
X64944898Y-87142774D01*
X64744939Y-87103000D01*
X64541061Y-87103000D01*
X64341102Y-87142774D01*
X64152744Y-87220795D01*
X64071656Y-87274976D01*
X64030138Y-87174744D01*
X63949460Y-87054001D01*
X65084891Y-87054001D01*
X65125441Y-87057995D01*
X65165991Y-87054001D01*
X65165994Y-87054001D01*
X65287267Y-87042057D01*
X65442875Y-86994854D01*
X65586283Y-86918200D01*
X65711982Y-86815042D01*
X65737839Y-86783535D01*
X66119418Y-86401956D01*
X66196992Y-86434581D01*
X66382260Y-86472475D01*
X66571361Y-86473497D01*
X66757028Y-86437608D01*
X66932126Y-86366187D01*
X66941323Y-86361270D01*
X66954931Y-86165536D01*
X66559639Y-85770244D01*
X66592000Y-85607552D01*
X66592000Y-85418448D01*
X66591171Y-85414281D01*
X66675748Y-85498858D01*
X66661605Y-85513000D01*
X66763095Y-85614490D01*
X66782108Y-85659343D01*
X66913940Y-85853169D01*
X67081052Y-86017552D01*
X67277023Y-86146174D01*
X67494321Y-86234093D01*
X67521627Y-86234776D01*
X67705000Y-86109392D01*
X67705000Y-84660000D01*
X67959000Y-84660000D01*
X67959000Y-86109392D01*
X68142373Y-86234776D01*
X68169679Y-86234093D01*
X68386977Y-86146174D01*
X68582948Y-86017552D01*
X68750060Y-85853169D01*
X68881892Y-85659343D01*
X68973377Y-85443522D01*
X69021000Y-85214000D01*
X69021000Y-84660000D01*
X67959000Y-84660000D01*
X67705000Y-84660000D01*
X67685000Y-84660000D01*
X67685000Y-84406000D01*
X67705000Y-84406000D01*
X67705000Y-82956608D01*
X67538849Y-82843000D01*
X67705000Y-82729392D01*
X67705000Y-81280000D01*
X67959000Y-81280000D01*
X67959000Y-82729392D01*
X68125151Y-82843000D01*
X67959000Y-82956608D01*
X67959000Y-84406000D01*
X69021000Y-84406000D01*
X69021000Y-83854843D01*
X92535723Y-83854843D01*
X92537500Y-83880610D01*
X92537500Y-83993345D01*
X92549401Y-84053175D01*
X92587619Y-84607340D01*
X92630816Y-84863542D01*
X92754041Y-85187592D01*
X92938119Y-85481377D01*
X93175974Y-85733604D01*
X93458466Y-85934582D01*
X93774739Y-86076587D01*
X94112638Y-86154161D01*
X94459177Y-86164324D01*
X94801041Y-86106684D01*
X95125092Y-85983459D01*
X95418876Y-85799381D01*
X95671104Y-85561526D01*
X95872081Y-85279034D01*
X96014087Y-84962762D01*
X96091660Y-84624863D01*
X96099277Y-84365156D01*
X96057500Y-83759387D01*
X96057500Y-83646655D01*
X96028705Y-83501892D01*
X96004184Y-83356459D01*
X95994942Y-83332154D01*
X95989864Y-83306627D01*
X95933379Y-83170260D01*
X95880959Y-83032408D01*
X95867152Y-83010372D01*
X95857192Y-82986327D01*
X95775184Y-82863593D01*
X95696881Y-82738624D01*
X95679041Y-82719706D01*
X95664581Y-82698065D01*
X95560205Y-82593689D01*
X95459026Y-82486396D01*
X95437838Y-82471322D01*
X95419435Y-82452919D01*
X95296691Y-82370904D01*
X95176534Y-82285419D01*
X95152817Y-82274770D01*
X95131173Y-82260308D01*
X94994798Y-82203820D01*
X94860261Y-82143413D01*
X94834914Y-82137594D01*
X94810873Y-82127636D01*
X94666106Y-82098840D01*
X94522362Y-82065840D01*
X94496372Y-82065078D01*
X94470845Y-82060000D01*
X94323249Y-82060000D01*
X94175823Y-82055676D01*
X94150177Y-82060000D01*
X94124155Y-82060000D01*
X93979392Y-82088795D01*
X93833959Y-82113316D01*
X93809654Y-82122558D01*
X93784127Y-82127636D01*
X93647760Y-82184121D01*
X93509908Y-82236541D01*
X93487872Y-82250348D01*
X93463827Y-82260308D01*
X93341093Y-82342316D01*
X93216124Y-82420619D01*
X93197206Y-82438459D01*
X93175565Y-82452919D01*
X93071189Y-82557295D01*
X92963896Y-82658474D01*
X92948822Y-82679662D01*
X92930419Y-82698065D01*
X92848404Y-82820809D01*
X92762919Y-82940966D01*
X92752270Y-82964683D01*
X92737808Y-82986327D01*
X92681320Y-83122702D01*
X92620913Y-83257239D01*
X92615094Y-83282586D01*
X92605136Y-83306627D01*
X92576340Y-83451394D01*
X92543340Y-83595138D01*
X92542578Y-83621128D01*
X92537500Y-83646655D01*
X92537500Y-83794255D01*
X92535723Y-83854843D01*
X69021000Y-83854843D01*
X69021000Y-83852000D01*
X68973377Y-83622478D01*
X68881892Y-83406657D01*
X68750060Y-83212831D01*
X68582948Y-83048448D01*
X68386977Y-82919826D01*
X68197096Y-82843000D01*
X68386977Y-82766174D01*
X68582948Y-82637552D01*
X68750060Y-82473169D01*
X68881892Y-82279343D01*
X68973377Y-82063522D01*
X69021000Y-81834000D01*
X69021000Y-81280000D01*
X67959000Y-81280000D01*
X67705000Y-81280000D01*
X66643000Y-81280000D01*
X66643000Y-81834000D01*
X66690623Y-82063522D01*
X66782108Y-82279343D01*
X66913940Y-82473169D01*
X67081052Y-82637552D01*
X67277023Y-82766174D01*
X67466904Y-82843000D01*
X67277023Y-82919826D01*
X67081052Y-83048448D01*
X66913940Y-83212831D01*
X66866139Y-83283110D01*
X66767008Y-83241419D01*
X66581740Y-83203525D01*
X66392639Y-83202503D01*
X66206972Y-83238392D01*
X66056538Y-83299753D01*
X65912022Y-83239892D01*
X65726552Y-83203000D01*
X65537448Y-83203000D01*
X65351978Y-83239892D01*
X65207000Y-83299944D01*
X65062022Y-83239892D01*
X64876552Y-83203000D01*
X64687448Y-83203000D01*
X64501978Y-83239892D01*
X64357000Y-83299944D01*
X64212022Y-83239892D01*
X64026552Y-83203000D01*
X63837448Y-83203000D01*
X63651978Y-83239892D01*
X63507000Y-83299944D01*
X63362022Y-83239892D01*
X63176552Y-83203000D01*
X62987448Y-83203000D01*
X62801978Y-83239892D01*
X62657000Y-83299944D01*
X62512022Y-83239892D01*
X62326552Y-83203000D01*
X62137448Y-83203000D01*
X61951978Y-83239892D01*
X61807000Y-83299944D01*
X61662022Y-83239892D01*
X61476552Y-83203000D01*
X61287448Y-83203000D01*
X61101978Y-83239892D01*
X60956580Y-83300118D01*
X60817008Y-83241419D01*
X60631740Y-83203525D01*
X60620561Y-83203465D01*
X60658132Y-83014580D01*
X60658132Y-82810702D01*
X60618358Y-82610743D01*
X60540337Y-82422385D01*
X60427069Y-82252867D01*
X60297878Y-82123676D01*
X60323377Y-82063522D01*
X60371000Y-81834000D01*
X60371000Y-81280000D01*
X59309000Y-81280000D01*
X59309000Y-81300000D01*
X59055000Y-81300000D01*
X59055000Y-81280000D01*
X57993000Y-81280000D01*
X57993000Y-81834000D01*
X58040623Y-82063522D01*
X58132108Y-82279343D01*
X58263940Y-82473169D01*
X58312260Y-82520700D01*
X58291784Y-82545649D01*
X57653649Y-83183785D01*
X57624579Y-83207642D01*
X57600722Y-83236712D01*
X57600721Y-83236713D01*
X57529355Y-83323672D01*
X57458599Y-83456049D01*
X57415027Y-83599686D01*
X57400314Y-83749064D01*
X57404001Y-83786497D01*
X57404000Y-84520369D01*
X56222500Y-85701870D01*
X56222500Y-80994779D01*
X56243269Y-80782962D01*
X56295410Y-80610263D01*
X56380102Y-80450982D01*
X56494119Y-80311181D01*
X56633117Y-80196192D01*
X56791805Y-80110390D01*
X56964135Y-80057045D01*
X57173880Y-80035000D01*
X58128571Y-80035000D01*
X58040623Y-80242478D01*
G37*
X58040623Y-80242478D02*
X57993000Y-80472000D01*
X57993000Y-81026000D01*
X59055000Y-81026000D01*
X59055000Y-81006000D01*
X59309000Y-81006000D01*
X59309000Y-81026000D01*
X60371000Y-81026000D01*
X60371000Y-80472000D01*
X60323377Y-80242478D01*
X60235429Y-80035000D01*
X66778571Y-80035000D01*
X66690623Y-80242478D01*
X66643000Y-80472000D01*
X66643000Y-81026000D01*
X67705000Y-81026000D01*
X67705000Y-81006000D01*
X67959000Y-81006000D01*
X67959000Y-81026000D01*
X69021000Y-81026000D01*
X69021000Y-80472000D01*
X68973377Y-80242478D01*
X68885429Y-80035000D01*
X123792721Y-80035000D01*
X124004538Y-80055769D01*
X124177237Y-80107910D01*
X124336518Y-80192602D01*
X124476319Y-80306619D01*
X124591308Y-80445617D01*
X124677110Y-80604305D01*
X124730455Y-80776635D01*
X124752501Y-80986390D01*
X124752500Y-115855220D01*
X124731731Y-116067038D01*
X124679591Y-116239736D01*
X124594899Y-116399018D01*
X124480878Y-116538821D01*
X124341885Y-116653806D01*
X124183195Y-116739610D01*
X124010865Y-116792955D01*
X123801119Y-116815000D01*
X57182280Y-116815000D01*
X56970462Y-116794231D01*
X56797764Y-116742091D01*
X56638482Y-116657399D01*
X56498679Y-116543378D01*
X56383694Y-116404385D01*
X56297890Y-116245695D01*
X56244545Y-116073365D01*
X56222500Y-115863619D01*
X56222500Y-114452061D01*
X58274000Y-114452061D01*
X58274000Y-114655939D01*
X58313774Y-114855898D01*
X58391795Y-115044256D01*
X58505063Y-115213774D01*
X58649226Y-115357937D01*
X58818744Y-115471205D01*
X59007102Y-115549226D01*
X59207061Y-115589000D01*
X59410939Y-115589000D01*
X59610898Y-115549226D01*
X59799256Y-115471205D01*
X59968774Y-115357937D01*
X60112937Y-115213774D01*
X60226205Y-115044256D01*
X60304226Y-114855898D01*
X60344000Y-114655939D01*
X60344000Y-114452061D01*
X60304226Y-114252102D01*
X60226205Y-114063744D01*
X60112937Y-113894226D01*
X60071000Y-113852289D01*
X60071000Y-95819630D01*
X60513631Y-95377000D01*
X65367577Y-95377000D01*
X65405000Y-95380686D01*
X65442423Y-95377000D01*
X65442426Y-95377000D01*
X65554378Y-95365974D01*
X65698015Y-95322402D01*
X65830392Y-95251645D01*
X65946422Y-95156422D01*
X65970284Y-95127346D01*
X66865501Y-94232130D01*
X66865500Y-97035497D01*
X66773795Y-97172744D01*
X66695774Y-97361102D01*
X66656000Y-97561061D01*
X66656000Y-97764939D01*
X66695774Y-97964898D01*
X66773795Y-98153256D01*
X66865501Y-98290504D01*
X66865500Y-101353497D01*
X66773795Y-101490744D01*
X66695774Y-101679102D01*
X66656000Y-101879061D01*
X66656000Y-102082939D01*
X66695774Y-102282898D01*
X66773795Y-102471256D01*
X66865500Y-102608503D01*
X66865501Y-106893440D01*
X66861506Y-106934000D01*
X66877445Y-107095826D01*
X66924647Y-107251433D01*
X67001301Y-107394842D01*
X67062863Y-107469854D01*
X67104460Y-107520541D01*
X67135961Y-107546393D01*
X69872611Y-110283045D01*
X69898459Y-110314541D01*
X69929955Y-110340389D01*
X69929958Y-110340392D01*
X70024157Y-110417699D01*
X70136734Y-110477873D01*
X70167566Y-110494353D01*
X70323174Y-110541556D01*
X70444447Y-110553500D01*
X70444449Y-110553500D01*
X70485000Y-110557494D01*
X70525550Y-110553500D01*
X71714447Y-110553500D01*
X71755000Y-110557494D01*
X71795553Y-110553500D01*
X79080450Y-110553500D01*
X79121000Y-110557494D01*
X79161550Y-110553500D01*
X79161553Y-110553500D01*
X79282826Y-110541556D01*
X79438434Y-110494353D01*
X79581842Y-110417699D01*
X79707541Y-110314541D01*
X79733397Y-110283035D01*
X80023004Y-109993428D01*
X80184898Y-109961226D01*
X80373256Y-109883205D01*
X80542774Y-109769937D01*
X80686937Y-109625774D01*
X80800205Y-109456256D01*
X80878226Y-109267898D01*
X80918000Y-109067939D01*
X80918000Y-108864061D01*
X80878226Y-108664102D01*
X80800205Y-108475744D01*
X80686937Y-108306226D01*
X80542774Y-108162063D01*
X80373256Y-108048795D01*
X80184898Y-107970774D01*
X79984939Y-107931000D01*
X79781061Y-107931000D01*
X79581102Y-107970774D01*
X79392744Y-108048795D01*
X79223226Y-108162063D01*
X79079063Y-108306226D01*
X78965795Y-108475744D01*
X78887774Y-108664102D01*
X78855572Y-108825996D01*
X78779067Y-108902500D01*
X72790000Y-108902500D01*
X72790000Y-108864061D01*
X72750226Y-108664102D01*
X72672205Y-108475744D01*
X72558937Y-108306226D01*
X72414774Y-108162063D01*
X72245256Y-108048795D01*
X72056898Y-107970774D01*
X71856939Y-107931000D01*
X71653061Y-107931000D01*
X71453102Y-107970774D01*
X71264744Y-108048795D01*
X71095226Y-108162063D01*
X70951063Y-108306226D01*
X70837795Y-108475744D01*
X70759774Y-108664102D01*
X70731364Y-108806930D01*
X68516500Y-106592068D01*
X68516500Y-102608503D01*
X68608205Y-102471256D01*
X68686226Y-102282898D01*
X68726000Y-102082939D01*
X68726000Y-101879061D01*
X68686226Y-101679102D01*
X68608205Y-101490744D01*
X68516500Y-101353497D01*
X68516500Y-99847061D01*
X89389000Y-99847061D01*
X89389000Y-100050939D01*
X89428774Y-100250898D01*
X89506795Y-100439256D01*
X89620063Y-100608774D01*
X89662001Y-100650712D01*
X89662000Y-111058289D01*
X89620063Y-111100226D01*
X89506795Y-111269744D01*
X89428774Y-111458102D01*
X89389000Y-111658061D01*
X89389000Y-111861939D01*
X89428774Y-112061898D01*
X89506795Y-112250256D01*
X89620063Y-112419774D01*
X89764226Y-112563937D01*
X89933744Y-112677205D01*
X90122102Y-112755226D01*
X90322061Y-112795000D01*
X90525939Y-112795000D01*
X90725898Y-112755226D01*
X90914256Y-112677205D01*
X91083774Y-112563937D01*
X91227937Y-112419774D01*
X91341205Y-112250256D01*
X91419226Y-112061898D01*
X91459000Y-111861939D01*
X91459000Y-111658061D01*
X91419226Y-111458102D01*
X91341205Y-111269744D01*
X91227937Y-111100226D01*
X91186000Y-111058289D01*
X91186000Y-109347689D01*
X91317049Y-109401971D01*
X91608778Y-109460000D01*
X91906222Y-109460000D01*
X92197951Y-109401971D01*
X92472753Y-109288144D01*
X92720069Y-109122893D01*
X92930393Y-108912569D01*
X93095644Y-108665253D01*
X93209471Y-108390451D01*
X93267500Y-108098722D01*
X93267500Y-107801278D01*
X93245580Y-107691076D01*
X94208600Y-107691076D01*
X94208600Y-108208924D01*
X94309627Y-108716822D01*
X94507799Y-109195251D01*
X94795500Y-109625826D01*
X95161674Y-109992000D01*
X95592249Y-110279701D01*
X96070678Y-110477873D01*
X96578576Y-110578900D01*
X97096424Y-110578900D01*
X97604322Y-110477873D01*
X98082751Y-110279701D01*
X98513326Y-109992000D01*
X98879500Y-109625826D01*
X99167201Y-109195251D01*
X99365373Y-108716822D01*
X99466400Y-108208924D01*
X99466400Y-107691076D01*
X99365373Y-107183178D01*
X99167201Y-106704749D01*
X98879500Y-106274174D01*
X98513326Y-105908000D01*
X98082751Y-105620299D01*
X97604322Y-105422127D01*
X97096424Y-105321100D01*
X96578576Y-105321100D01*
X96070678Y-105422127D01*
X95592249Y-105620299D01*
X95161674Y-105908000D01*
X94795500Y-106274174D01*
X94507799Y-106704749D01*
X94309627Y-107183178D01*
X94208600Y-107691076D01*
X93245580Y-107691076D01*
X93209471Y-107509549D01*
X93095644Y-107234747D01*
X92930393Y-106987431D01*
X92720069Y-106777107D01*
X92472753Y-106611856D01*
X92197951Y-106498029D01*
X91906222Y-106440000D01*
X91608778Y-106440000D01*
X91317049Y-106498029D01*
X91186000Y-106552311D01*
X91186000Y-102904843D01*
X92535723Y-102904843D01*
X92537500Y-102930610D01*
X92537500Y-103043345D01*
X92549401Y-103103175D01*
X92587619Y-103657340D01*
X92630816Y-103913542D01*
X92754041Y-104237592D01*
X92938119Y-104531377D01*
X93175974Y-104783604D01*
X93458466Y-104984582D01*
X93774739Y-105126587D01*
X94112638Y-105204161D01*
X94459177Y-105214324D01*
X94801041Y-105156684D01*
X95125092Y-105033459D01*
X95418876Y-104849381D01*
X95671104Y-104611526D01*
X95872081Y-104329034D01*
X96014087Y-104012762D01*
X96091660Y-103674863D01*
X96099277Y-103415156D01*
X96057500Y-102809387D01*
X96057500Y-102696655D01*
X96028705Y-102551892D01*
X96004184Y-102406459D01*
X95994942Y-102382154D01*
X95989864Y-102356627D01*
X95933379Y-102220260D01*
X95880959Y-102082408D01*
X95867152Y-102060372D01*
X95857192Y-102036327D01*
X95775184Y-101913593D01*
X95696881Y-101788624D01*
X95679041Y-101769706D01*
X95664581Y-101748065D01*
X95560205Y-101643689D01*
X95459026Y-101536396D01*
X95437838Y-101521322D01*
X95419435Y-101502919D01*
X95296691Y-101420904D01*
X95176534Y-101335419D01*
X95152817Y-101324770D01*
X95131173Y-101310308D01*
X94994798Y-101253820D01*
X94860261Y-101193413D01*
X94834914Y-101187594D01*
X94810873Y-101177636D01*
X94666106Y-101148840D01*
X94522362Y-101115840D01*
X94496372Y-101115078D01*
X94470845Y-101110000D01*
X94323249Y-101110000D01*
X94175823Y-101105676D01*
X94150177Y-101110000D01*
X94124155Y-101110000D01*
X93979392Y-101138795D01*
X93833959Y-101163316D01*
X93809654Y-101172558D01*
X93784127Y-101177636D01*
X93647760Y-101234121D01*
X93509908Y-101286541D01*
X93487872Y-101300348D01*
X93463827Y-101310308D01*
X93341093Y-101392316D01*
X93216124Y-101470619D01*
X93197206Y-101488459D01*
X93175565Y-101502919D01*
X93071189Y-101607295D01*
X92963896Y-101708474D01*
X92948822Y-101729662D01*
X92930419Y-101748065D01*
X92848404Y-101870809D01*
X92762919Y-101990966D01*
X92752270Y-102014683D01*
X92737808Y-102036327D01*
X92681320Y-102172702D01*
X92620913Y-102307239D01*
X92615094Y-102332586D01*
X92605136Y-102356627D01*
X92576340Y-102501394D01*
X92543340Y-102645138D01*
X92542578Y-102671128D01*
X92537500Y-102696655D01*
X92537500Y-102844255D01*
X92535723Y-102904843D01*
X91186000Y-102904843D01*
X91186000Y-100650711D01*
X91227937Y-100608774D01*
X91341205Y-100439256D01*
X91419226Y-100250898D01*
X91459000Y-100050939D01*
X91459000Y-99847061D01*
X91419226Y-99647102D01*
X91341205Y-99458744D01*
X91227937Y-99289226D01*
X91083774Y-99145063D01*
X90914256Y-99031795D01*
X90725898Y-98953774D01*
X90525939Y-98914000D01*
X90322061Y-98914000D01*
X90122102Y-98953774D01*
X89933744Y-99031795D01*
X89764226Y-99145063D01*
X89620063Y-99289226D01*
X89506795Y-99458744D01*
X89428774Y-99647102D01*
X89389000Y-99847061D01*
X68516500Y-99847061D01*
X68516500Y-98290503D01*
X68608205Y-98153256D01*
X68686226Y-97964898D01*
X68726000Y-97764939D01*
X68726000Y-97561061D01*
X68686226Y-97361102D01*
X68608205Y-97172744D01*
X68516500Y-97035497D01*
X68516500Y-93813933D01*
X69135046Y-93195388D01*
X69166541Y-93169541D01*
X69192389Y-93138045D01*
X69192392Y-93138042D01*
X69269699Y-93043843D01*
X69346353Y-92900434D01*
X69388481Y-92761555D01*
X69393556Y-92744826D01*
X69405500Y-92623553D01*
X69405500Y-92623551D01*
X69409494Y-92583000D01*
X69405500Y-92542450D01*
X69405500Y-89368933D01*
X69556933Y-89217500D01*
X70492497Y-89217500D01*
X70629744Y-89309205D01*
X70818102Y-89387226D01*
X71018061Y-89427000D01*
X71221939Y-89427000D01*
X71421898Y-89387226D01*
X71610256Y-89309205D01*
X71747503Y-89217500D01*
X73064068Y-89217500D01*
X75333606Y-91487039D01*
X75359459Y-91518541D01*
X75420511Y-91568645D01*
X75485156Y-91621698D01*
X75485158Y-91621699D01*
X75628566Y-91698353D01*
X75784174Y-91745556D01*
X75905447Y-91757500D01*
X75905456Y-91757500D01*
X75945999Y-91761493D01*
X75986542Y-91757500D01*
X84748068Y-91757500D01*
X85280500Y-92289933D01*
X85280501Y-93860496D01*
X85188795Y-93997744D01*
X85110774Y-94186102D01*
X85071000Y-94386061D01*
X85071000Y-94589939D01*
X85110774Y-94789898D01*
X85188795Y-94978256D01*
X85302063Y-95147774D01*
X85446226Y-95291937D01*
X85615744Y-95405205D01*
X85804102Y-95483226D01*
X86004061Y-95523000D01*
X86207939Y-95523000D01*
X86407898Y-95483226D01*
X86596256Y-95405205D01*
X86765774Y-95291937D01*
X86909937Y-95147774D01*
X87023205Y-94978256D01*
X87101226Y-94789898D01*
X87141000Y-94589939D01*
X87141000Y-94386061D01*
X87101226Y-94186102D01*
X87023205Y-93997744D01*
X86931500Y-93860497D01*
X86931500Y-91988550D01*
X86935494Y-91948000D01*
X86931500Y-91907447D01*
X86919556Y-91786174D01*
X86872353Y-91630566D01*
X86812474Y-91518541D01*
X86795699Y-91487157D01*
X86718391Y-91392958D01*
X86692541Y-91361459D01*
X86661040Y-91335607D01*
X85702398Y-90376966D01*
X85676541Y-90345459D01*
X85550842Y-90242301D01*
X85407434Y-90165647D01*
X85251826Y-90118444D01*
X85130553Y-90106500D01*
X85130550Y-90106500D01*
X85090000Y-90102506D01*
X85049450Y-90106500D01*
X76287933Y-90106500D01*
X74932711Y-88751278D01*
X90247500Y-88751278D01*
X90247500Y-89048722D01*
X90305529Y-89340451D01*
X90419356Y-89615253D01*
X90584607Y-89862569D01*
X90794931Y-90072893D01*
X91042247Y-90238144D01*
X91317049Y-90351971D01*
X91608778Y-90410000D01*
X91906222Y-90410000D01*
X92197951Y-90351971D01*
X92472753Y-90238144D01*
X92720069Y-90072893D01*
X92930393Y-89862569D01*
X93095644Y-89615253D01*
X93209471Y-89340451D01*
X93267500Y-89048722D01*
X93267500Y-88751278D01*
X93245580Y-88641076D01*
X94208600Y-88641076D01*
X94208600Y-89158924D01*
X94309627Y-89666822D01*
X94507799Y-90145251D01*
X94795500Y-90575826D01*
X95161674Y-90942000D01*
X95592249Y-91229701D01*
X96070678Y-91427873D01*
X96578576Y-91528900D01*
X97096424Y-91528900D01*
X97604322Y-91427873D01*
X98082751Y-91229701D01*
X98513326Y-90942000D01*
X98879500Y-90575826D01*
X99167201Y-90145251D01*
X99314000Y-89790847D01*
X99314001Y-102189327D01*
X99298741Y-102190000D01*
X99164155Y-102190000D01*
X99125811Y-102197627D01*
X99086772Y-102199349D01*
X98956112Y-102231382D01*
X98824127Y-102257636D01*
X98788014Y-102272595D01*
X98750054Y-102281901D01*
X98628147Y-102338813D01*
X98503827Y-102390308D01*
X98471324Y-102412026D01*
X98435912Y-102428558D01*
X98327450Y-102508159D01*
X98215565Y-102582919D01*
X98187925Y-102610559D01*
X98156417Y-102633683D01*
X98065566Y-102732918D01*
X97970419Y-102828065D01*
X97948702Y-102860566D01*
X97922311Y-102889393D01*
X97852565Y-103004446D01*
X97777808Y-103116327D01*
X97762850Y-103152438D01*
X97742589Y-103185861D01*
X97696626Y-103312320D01*
X97645136Y-103436627D01*
X97637511Y-103474961D01*
X97624159Y-103511696D01*
X97603749Y-103644691D01*
X97577500Y-103776655D01*
X97577500Y-103815739D01*
X97571571Y-103854374D01*
X97577500Y-103988802D01*
X97577500Y-104123345D01*
X97585125Y-104161677D01*
X97586847Y-104200726D01*
X97618889Y-104331421D01*
X97645136Y-104463373D01*
X97660091Y-104499477D01*
X97669399Y-104537444D01*
X97726322Y-104659373D01*
X97777808Y-104783673D01*
X97799523Y-104816171D01*
X97816056Y-104851586D01*
X97895666Y-104960059D01*
X97970419Y-105071935D01*
X98059308Y-105160824D01*
X99395256Y-106649742D01*
X99586892Y-106825187D01*
X99883361Y-107004909D01*
X100209195Y-107123339D01*
X100551873Y-107175927D01*
X100620686Y-107172892D01*
X100579356Y-107234747D01*
X100465529Y-107509549D01*
X100407500Y-107801278D01*
X100407500Y-108098722D01*
X100465529Y-108390451D01*
X100579356Y-108665253D01*
X100744607Y-108912569D01*
X100954931Y-109122893D01*
X101202247Y-109288144D01*
X101477049Y-109401971D01*
X101768778Y-109460000D01*
X102066222Y-109460000D01*
X102357951Y-109401971D01*
X102632753Y-109288144D01*
X102880069Y-109122893D01*
X103090393Y-108912569D01*
X103255644Y-108665253D01*
X103369471Y-108390451D01*
X103427500Y-108098722D01*
X103427500Y-107801278D01*
X109297500Y-107801278D01*
X109297500Y-108098722D01*
X109355529Y-108390451D01*
X109469356Y-108665253D01*
X109634607Y-108912569D01*
X109844931Y-109122893D01*
X110092247Y-109288144D01*
X110367049Y-109401971D01*
X110658778Y-109460000D01*
X110956222Y-109460000D01*
X111247951Y-109401971D01*
X111522753Y-109288144D01*
X111770069Y-109122893D01*
X111980393Y-108912569D01*
X112145644Y-108665253D01*
X112259471Y-108390451D01*
X112317500Y-108098722D01*
X112317500Y-107801278D01*
X112295580Y-107691076D01*
X113258600Y-107691076D01*
X113258600Y-108208924D01*
X113359627Y-108716822D01*
X113557799Y-109195251D01*
X113845500Y-109625826D01*
X114211674Y-109992000D01*
X114642249Y-110279701D01*
X115120678Y-110477873D01*
X115628576Y-110578900D01*
X116146424Y-110578900D01*
X116654322Y-110477873D01*
X117132751Y-110279701D01*
X117563326Y-109992000D01*
X117929500Y-109625826D01*
X118217201Y-109195251D01*
X118415373Y-108716822D01*
X118516400Y-108208924D01*
X118516400Y-107691076D01*
X118415373Y-107183178D01*
X118217201Y-106704749D01*
X117929500Y-106274174D01*
X117563326Y-105908000D01*
X117132751Y-105620299D01*
X116654322Y-105422127D01*
X116146424Y-105321100D01*
X115628576Y-105321100D01*
X115120678Y-105422127D01*
X114642249Y-105620299D01*
X114211674Y-105908000D01*
X113845500Y-106274174D01*
X113557799Y-106704749D01*
X113359627Y-107183178D01*
X113258600Y-107691076D01*
X112295580Y-107691076D01*
X112259471Y-107509549D01*
X112145644Y-107234747D01*
X111980393Y-106987431D01*
X111770069Y-106777107D01*
X111522753Y-106611856D01*
X111247951Y-106498029D01*
X110956222Y-106440000D01*
X110658778Y-106440000D01*
X110367049Y-106498029D01*
X110092247Y-106611856D01*
X109844931Y-106777107D01*
X109634607Y-106987431D01*
X109469356Y-107234747D01*
X109355529Y-107509549D01*
X109297500Y-107801278D01*
X103427500Y-107801278D01*
X103369471Y-107509549D01*
X103255644Y-107234747D01*
X103090393Y-106987431D01*
X102880069Y-106777107D01*
X102632753Y-106611856D01*
X102357951Y-106498029D01*
X102079625Y-106442666D01*
X102242409Y-106174139D01*
X102360839Y-105848304D01*
X102413427Y-105505626D01*
X102398151Y-105159273D01*
X102315599Y-104822555D01*
X102168942Y-104508413D01*
X102015216Y-104298952D01*
X100838000Y-102986943D01*
X100838000Y-102904843D01*
X111585723Y-102904843D01*
X111587500Y-102930610D01*
X111587500Y-103043345D01*
X111599401Y-103103175D01*
X111637619Y-103657340D01*
X111680816Y-103913542D01*
X111804041Y-104237592D01*
X111988119Y-104531377D01*
X112225974Y-104783604D01*
X112508466Y-104984582D01*
X112824739Y-105126587D01*
X113162638Y-105204161D01*
X113509177Y-105214324D01*
X113851041Y-105156684D01*
X114175092Y-105033459D01*
X114468876Y-104849381D01*
X114721104Y-104611526D01*
X114922081Y-104329034D01*
X115064087Y-104012762D01*
X115141660Y-103674863D01*
X115149277Y-103415156D01*
X115107500Y-102809387D01*
X115107500Y-102696655D01*
X115078705Y-102551892D01*
X115054184Y-102406459D01*
X115044942Y-102382154D01*
X115039864Y-102356627D01*
X114983379Y-102220260D01*
X114930959Y-102082408D01*
X114917152Y-102060372D01*
X114907192Y-102036327D01*
X114825184Y-101913593D01*
X114746881Y-101788624D01*
X114729041Y-101769706D01*
X114714581Y-101748065D01*
X114610205Y-101643689D01*
X114509026Y-101536396D01*
X114487838Y-101521322D01*
X114469435Y-101502919D01*
X114346691Y-101420904D01*
X114226534Y-101335419D01*
X114202817Y-101324770D01*
X114181173Y-101310308D01*
X114044798Y-101253820D01*
X113910261Y-101193413D01*
X113884914Y-101187594D01*
X113860873Y-101177636D01*
X113716106Y-101148840D01*
X113572362Y-101115840D01*
X113546372Y-101115078D01*
X113520845Y-101110000D01*
X113373249Y-101110000D01*
X113225823Y-101105676D01*
X113200177Y-101110000D01*
X113174155Y-101110000D01*
X113029392Y-101138795D01*
X112883959Y-101163316D01*
X112859654Y-101172558D01*
X112834127Y-101177636D01*
X112697760Y-101234121D01*
X112559908Y-101286541D01*
X112537872Y-101300348D01*
X112513827Y-101310308D01*
X112391093Y-101392316D01*
X112266124Y-101470619D01*
X112247206Y-101488459D01*
X112225565Y-101502919D01*
X112121189Y-101607295D01*
X112013896Y-101708474D01*
X111998822Y-101729662D01*
X111980419Y-101748065D01*
X111898404Y-101870809D01*
X111812919Y-101990966D01*
X111802270Y-102014683D01*
X111787808Y-102036327D01*
X111731320Y-102172702D01*
X111670913Y-102307239D01*
X111665094Y-102332586D01*
X111655136Y-102356627D01*
X111626340Y-102501394D01*
X111593340Y-102645138D01*
X111592578Y-102671128D01*
X111587500Y-102696655D01*
X111587500Y-102844255D01*
X111585723Y-102904843D01*
X100838000Y-102904843D01*
X100838000Y-89955962D01*
X100954931Y-90072893D01*
X101202247Y-90238144D01*
X101477049Y-90351971D01*
X101768778Y-90410000D01*
X102066222Y-90410000D01*
X102357951Y-90351971D01*
X102632753Y-90238144D01*
X102880069Y-90072893D01*
X103090393Y-89862569D01*
X103255644Y-89615253D01*
X103369471Y-89340451D01*
X103427500Y-89048722D01*
X103427500Y-88751278D01*
X109297500Y-88751278D01*
X109297500Y-89048722D01*
X109355529Y-89340451D01*
X109469356Y-89615253D01*
X109634607Y-89862569D01*
X109844931Y-90072893D01*
X110092247Y-90238144D01*
X110367049Y-90351971D01*
X110658778Y-90410000D01*
X110956222Y-90410000D01*
X111247951Y-90351971D01*
X111522753Y-90238144D01*
X111770069Y-90072893D01*
X111980393Y-89862569D01*
X112145644Y-89615253D01*
X112259471Y-89340451D01*
X112317500Y-89048722D01*
X112317500Y-88751278D01*
X112295580Y-88641076D01*
X113258600Y-88641076D01*
X113258600Y-89158924D01*
X113359627Y-89666822D01*
X113557799Y-90145251D01*
X113845500Y-90575826D01*
X114211674Y-90942000D01*
X114642249Y-91229701D01*
X115120678Y-91427873D01*
X115628576Y-91528900D01*
X116146424Y-91528900D01*
X116654322Y-91427873D01*
X117132751Y-91229701D01*
X117563326Y-90942000D01*
X117929500Y-90575826D01*
X118217201Y-90145251D01*
X118237000Y-90097452D01*
X118237001Y-102190000D01*
X118214155Y-102190000D01*
X118175811Y-102197627D01*
X118136772Y-102199349D01*
X118006112Y-102231382D01*
X117874127Y-102257636D01*
X117838014Y-102272595D01*
X117800054Y-102281901D01*
X117678147Y-102338813D01*
X117553827Y-102390308D01*
X117521324Y-102412026D01*
X117485912Y-102428558D01*
X117377450Y-102508159D01*
X117265565Y-102582919D01*
X117237925Y-102610559D01*
X117206417Y-102633683D01*
X117115566Y-102732918D01*
X117020419Y-102828065D01*
X116998702Y-102860566D01*
X116972311Y-102889393D01*
X116902565Y-103004446D01*
X116827808Y-103116327D01*
X116812850Y-103152438D01*
X116792589Y-103185861D01*
X116746626Y-103312320D01*
X116695136Y-103436627D01*
X116687511Y-103474961D01*
X116674159Y-103511696D01*
X116653749Y-103644691D01*
X116627500Y-103776655D01*
X116627500Y-103815739D01*
X116621571Y-103854374D01*
X116627500Y-103988802D01*
X116627500Y-104123345D01*
X116635125Y-104161677D01*
X116636847Y-104200726D01*
X116668889Y-104331421D01*
X116695136Y-104463373D01*
X116710091Y-104499477D01*
X116719399Y-104537444D01*
X116776322Y-104659373D01*
X116827808Y-104783673D01*
X116849523Y-104816171D01*
X116866056Y-104851586D01*
X116945666Y-104960059D01*
X117020419Y-105071935D01*
X117109308Y-105160824D01*
X118445256Y-106649742D01*
X118636892Y-106825187D01*
X118933361Y-107004909D01*
X119259195Y-107123339D01*
X119601873Y-107175927D01*
X119670686Y-107172892D01*
X119629356Y-107234747D01*
X119515529Y-107509549D01*
X119457500Y-107801278D01*
X119457500Y-108098722D01*
X119515529Y-108390451D01*
X119629356Y-108665253D01*
X119794607Y-108912569D01*
X120004931Y-109122893D01*
X120252247Y-109288144D01*
X120527049Y-109401971D01*
X120818778Y-109460000D01*
X121116222Y-109460000D01*
X121407951Y-109401971D01*
X121682753Y-109288144D01*
X121930069Y-109122893D01*
X122140393Y-108912569D01*
X122305644Y-108665253D01*
X122419471Y-108390451D01*
X122477500Y-108098722D01*
X122477500Y-107801278D01*
X122419471Y-107509549D01*
X122305644Y-107234747D01*
X122140393Y-106987431D01*
X121930069Y-106777107D01*
X121682753Y-106611856D01*
X121407951Y-106498029D01*
X121129625Y-106442666D01*
X121292409Y-106174139D01*
X121410839Y-105848304D01*
X121463427Y-105505626D01*
X121448151Y-105159273D01*
X121365599Y-104822555D01*
X121218942Y-104508413D01*
X121065216Y-104298952D01*
X119781229Y-102867947D01*
X119761000Y-102837672D01*
X119761000Y-89812272D01*
X119794607Y-89862569D01*
X120004931Y-90072893D01*
X120252247Y-90238144D01*
X120527049Y-90351971D01*
X120818778Y-90410000D01*
X121116222Y-90410000D01*
X121407951Y-90351971D01*
X121682753Y-90238144D01*
X121930069Y-90072893D01*
X122140393Y-89862569D01*
X122305644Y-89615253D01*
X122419471Y-89340451D01*
X122477500Y-89048722D01*
X122477500Y-88751278D01*
X122419471Y-88459549D01*
X122305644Y-88184747D01*
X122140393Y-87937431D01*
X121930069Y-87727107D01*
X121682753Y-87561856D01*
X121407951Y-87448029D01*
X121129625Y-87392666D01*
X121292409Y-87124139D01*
X121410839Y-86798304D01*
X121463427Y-86455626D01*
X121448151Y-86109273D01*
X121365599Y-85772555D01*
X121218942Y-85458413D01*
X121065216Y-85248952D01*
X119781229Y-83817947D01*
X119754581Y-83778065D01*
X119665653Y-83689137D01*
X119639741Y-83660258D01*
X119604624Y-83628108D01*
X119509435Y-83532919D01*
X119476919Y-83511192D01*
X119448105Y-83484813D01*
X119333106Y-83415099D01*
X119221173Y-83340308D01*
X119185045Y-83325344D01*
X119151637Y-83305091D01*
X119025234Y-83259148D01*
X118900873Y-83207636D01*
X118862522Y-83200007D01*
X118825802Y-83186661D01*
X118692859Y-83166259D01*
X118560845Y-83140000D01*
X118521746Y-83140000D01*
X118483124Y-83134073D01*
X118348741Y-83140000D01*
X118214155Y-83140000D01*
X118175811Y-83147627D01*
X118136772Y-83149349D01*
X118006112Y-83181382D01*
X117874127Y-83207636D01*
X117838014Y-83222595D01*
X117800054Y-83231901D01*
X117678147Y-83288813D01*
X117553827Y-83340308D01*
X117521324Y-83362026D01*
X117485912Y-83378558D01*
X117377450Y-83458159D01*
X117265565Y-83532919D01*
X117237925Y-83560559D01*
X117206417Y-83583683D01*
X117115566Y-83682918D01*
X117020419Y-83778065D01*
X116998702Y-83810566D01*
X116972311Y-83839393D01*
X116902565Y-83954446D01*
X116827808Y-84066327D01*
X116812850Y-84102438D01*
X116792589Y-84135861D01*
X116746626Y-84262320D01*
X116695136Y-84386627D01*
X116687511Y-84424961D01*
X116674159Y-84461696D01*
X116653749Y-84594691D01*
X116627500Y-84726655D01*
X116627500Y-84765739D01*
X116621571Y-84804374D01*
X116627500Y-84938802D01*
X116627500Y-85073345D01*
X116635125Y-85111677D01*
X116636847Y-85150726D01*
X116668889Y-85281421D01*
X116695136Y-85413373D01*
X116710091Y-85449477D01*
X116719399Y-85487444D01*
X116776322Y-85609373D01*
X116827808Y-85733673D01*
X116849523Y-85766171D01*
X116866056Y-85801586D01*
X116945666Y-85910059D01*
X117020419Y-86021935D01*
X117109308Y-86110824D01*
X118237000Y-87367640D01*
X118237000Y-87702548D01*
X118217201Y-87654749D01*
X117929500Y-87224174D01*
X117563326Y-86858000D01*
X117132751Y-86570299D01*
X116654322Y-86372127D01*
X116146424Y-86271100D01*
X115628576Y-86271100D01*
X115120678Y-86372127D01*
X114642249Y-86570299D01*
X114211674Y-86858000D01*
X113845500Y-87224174D01*
X113557799Y-87654749D01*
X113359627Y-88133178D01*
X113258600Y-88641076D01*
X112295580Y-88641076D01*
X112259471Y-88459549D01*
X112145644Y-88184747D01*
X111980393Y-87937431D01*
X111770069Y-87727107D01*
X111522753Y-87561856D01*
X111247951Y-87448029D01*
X110956222Y-87390000D01*
X110658778Y-87390000D01*
X110367049Y-87448029D01*
X110092247Y-87561856D01*
X109844931Y-87727107D01*
X109634607Y-87937431D01*
X109469356Y-88184747D01*
X109355529Y-88459549D01*
X109297500Y-88751278D01*
X103427500Y-88751278D01*
X103369471Y-88459549D01*
X103255644Y-88184747D01*
X103090393Y-87937431D01*
X102880069Y-87727107D01*
X102632753Y-87561856D01*
X102357951Y-87448029D01*
X102079625Y-87392666D01*
X102242409Y-87124139D01*
X102360839Y-86798304D01*
X102413427Y-86455626D01*
X102398151Y-86109273D01*
X102315599Y-85772555D01*
X102168942Y-85458413D01*
X102015216Y-85248952D01*
X100764335Y-83854843D01*
X111585723Y-83854843D01*
X111587500Y-83880610D01*
X111587500Y-83993345D01*
X111599401Y-84053175D01*
X111637619Y-84607340D01*
X111680816Y-84863542D01*
X111804041Y-85187592D01*
X111988119Y-85481377D01*
X112225974Y-85733604D01*
X112508466Y-85934582D01*
X112824739Y-86076587D01*
X113162638Y-86154161D01*
X113509177Y-86164324D01*
X113851041Y-86106684D01*
X114175092Y-85983459D01*
X114468876Y-85799381D01*
X114721104Y-85561526D01*
X114922081Y-85279034D01*
X115064087Y-84962762D01*
X115141660Y-84624863D01*
X115149277Y-84365156D01*
X115107500Y-83759387D01*
X115107500Y-83646655D01*
X115078705Y-83501892D01*
X115054184Y-83356459D01*
X115044942Y-83332154D01*
X115039864Y-83306627D01*
X114983379Y-83170260D01*
X114930959Y-83032408D01*
X114917152Y-83010372D01*
X114907192Y-82986327D01*
X114825184Y-82863593D01*
X114746881Y-82738624D01*
X114729041Y-82719706D01*
X114714581Y-82698065D01*
X114610205Y-82593689D01*
X114509026Y-82486396D01*
X114487838Y-82471322D01*
X114469435Y-82452919D01*
X114346691Y-82370904D01*
X114226534Y-82285419D01*
X114202817Y-82274770D01*
X114181173Y-82260308D01*
X114044798Y-82203820D01*
X113910261Y-82143413D01*
X113884914Y-82137594D01*
X113860873Y-82127636D01*
X113716106Y-82098840D01*
X113572362Y-82065840D01*
X113546372Y-82065078D01*
X113520845Y-82060000D01*
X113373249Y-82060000D01*
X113225823Y-82055676D01*
X113200177Y-82060000D01*
X113174155Y-82060000D01*
X113029392Y-82088795D01*
X112883959Y-82113316D01*
X112859654Y-82122558D01*
X112834127Y-82127636D01*
X112697760Y-82184121D01*
X112559908Y-82236541D01*
X112537872Y-82250348D01*
X112513827Y-82260308D01*
X112391093Y-82342316D01*
X112266124Y-82420619D01*
X112247206Y-82438459D01*
X112225565Y-82452919D01*
X112121189Y-82557295D01*
X112013896Y-82658474D01*
X111998822Y-82679662D01*
X111980419Y-82698065D01*
X111898404Y-82820809D01*
X111812919Y-82940966D01*
X111802270Y-82964683D01*
X111787808Y-82986327D01*
X111731320Y-83122702D01*
X111670913Y-83257239D01*
X111665094Y-83282586D01*
X111655136Y-83306627D01*
X111626340Y-83451394D01*
X111593340Y-83595138D01*
X111592578Y-83621128D01*
X111587500Y-83646655D01*
X111587500Y-83794255D01*
X111585723Y-83854843D01*
X100764335Y-83854843D01*
X100731229Y-83817947D01*
X100704581Y-83778065D01*
X100615653Y-83689137D01*
X100589741Y-83660258D01*
X100554624Y-83628108D01*
X100459435Y-83532919D01*
X100426919Y-83511192D01*
X100398105Y-83484813D01*
X100283106Y-83415099D01*
X100171173Y-83340308D01*
X100135045Y-83325344D01*
X100101637Y-83305091D01*
X99975234Y-83259148D01*
X99850873Y-83207636D01*
X99812522Y-83200007D01*
X99775802Y-83186661D01*
X99642859Y-83166259D01*
X99510845Y-83140000D01*
X99471746Y-83140000D01*
X99433124Y-83134073D01*
X99298741Y-83140000D01*
X99164155Y-83140000D01*
X99125811Y-83147627D01*
X99086772Y-83149349D01*
X98956112Y-83181382D01*
X98824127Y-83207636D01*
X98788014Y-83222595D01*
X98750054Y-83231901D01*
X98628147Y-83288813D01*
X98503827Y-83340308D01*
X98471324Y-83362026D01*
X98435912Y-83378558D01*
X98327450Y-83458159D01*
X98215565Y-83532919D01*
X98187925Y-83560559D01*
X98156417Y-83583683D01*
X98065566Y-83682918D01*
X97970419Y-83778065D01*
X97948702Y-83810566D01*
X97922311Y-83839393D01*
X97852565Y-83954446D01*
X97777808Y-84066327D01*
X97762850Y-84102438D01*
X97742589Y-84135861D01*
X97696626Y-84262320D01*
X97645136Y-84386627D01*
X97637511Y-84424961D01*
X97624159Y-84461696D01*
X97603749Y-84594691D01*
X97577500Y-84726655D01*
X97577500Y-84765739D01*
X97571571Y-84804374D01*
X97577500Y-84938802D01*
X97577500Y-85073345D01*
X97585125Y-85111677D01*
X97586847Y-85150726D01*
X97618889Y-85281421D01*
X97645136Y-85413373D01*
X97660091Y-85449477D01*
X97669399Y-85487444D01*
X97726322Y-85609373D01*
X97777808Y-85733673D01*
X97799523Y-85766171D01*
X97816056Y-85801586D01*
X97895666Y-85910059D01*
X97970419Y-86021935D01*
X98059308Y-86110824D01*
X99314000Y-87509182D01*
X99314000Y-88009153D01*
X99167201Y-87654749D01*
X98879500Y-87224174D01*
X98513326Y-86858000D01*
X98082751Y-86570299D01*
X97604322Y-86372127D01*
X97096424Y-86271100D01*
X96578576Y-86271100D01*
X96070678Y-86372127D01*
X95592249Y-86570299D01*
X95161674Y-86858000D01*
X94795500Y-87224174D01*
X94507799Y-87654749D01*
X94309627Y-88133178D01*
X94208600Y-88641076D01*
X93245580Y-88641076D01*
X93209471Y-88459549D01*
X93095644Y-88184747D01*
X92930393Y-87937431D01*
X92720069Y-87727107D01*
X92472753Y-87561856D01*
X92197951Y-87448029D01*
X91906222Y-87390000D01*
X91608778Y-87390000D01*
X91317049Y-87448029D01*
X91042247Y-87561856D01*
X90794931Y-87727107D01*
X90584607Y-87937431D01*
X90419356Y-88184747D01*
X90305529Y-88459549D01*
X90247500Y-88751278D01*
X74932711Y-88751278D01*
X74018398Y-87836966D01*
X73992541Y-87805459D01*
X73866842Y-87702301D01*
X73723434Y-87625647D01*
X73567826Y-87578444D01*
X73446553Y-87566500D01*
X73446550Y-87566500D01*
X73406000Y-87562506D01*
X73365450Y-87566500D01*
X71747503Y-87566500D01*
X71610256Y-87474795D01*
X71421898Y-87396774D01*
X71221939Y-87357000D01*
X71018061Y-87357000D01*
X70818102Y-87396774D01*
X70629744Y-87474795D01*
X70492497Y-87566500D01*
X69255550Y-87566500D01*
X69215000Y-87562506D01*
X69174449Y-87566500D01*
X69174447Y-87566500D01*
X69053174Y-87578444D01*
X68898410Y-87625391D01*
X68897566Y-87625647D01*
X68754157Y-87702301D01*
X68659958Y-87779608D01*
X68659957Y-87779609D01*
X68628459Y-87805459D01*
X68602610Y-87836956D01*
X68024961Y-88414607D01*
X67993460Y-88440459D01*
X67967609Y-88471959D01*
X67890301Y-88566158D01*
X67813647Y-88709567D01*
X67766445Y-88865174D01*
X67750506Y-89027000D01*
X67754501Y-89067560D01*
X67754501Y-89152616D01*
X67665939Y-89135000D01*
X67462061Y-89135000D01*
X67262102Y-89174774D01*
X67073744Y-89252795D01*
X66904226Y-89366063D01*
X66760063Y-89510226D01*
X66646795Y-89679744D01*
X66568774Y-89868102D01*
X66529000Y-90068061D01*
X66529000Y-90271939D01*
X66568774Y-90471898D01*
X66646795Y-90660256D01*
X66760063Y-90829774D01*
X66802000Y-90871711D01*
X66802000Y-91477425D01*
X66802001Y-91477434D01*
X66802000Y-92140369D01*
X65089370Y-93853000D01*
X60235423Y-93853000D01*
X60198000Y-93849314D01*
X60160577Y-93853000D01*
X60160574Y-93853000D01*
X60048622Y-93864026D01*
X59904985Y-93907598D01*
X59857757Y-93932842D01*
X59772607Y-93978355D01*
X59748982Y-93997744D01*
X59656578Y-94073578D01*
X59632721Y-94102649D01*
X58796649Y-94938721D01*
X58767579Y-94962578D01*
X58743722Y-94991648D01*
X58743721Y-94991649D01*
X58672355Y-95078608D01*
X58601599Y-95210985D01*
X58558027Y-95354622D01*
X58543314Y-95504000D01*
X58547001Y-95541433D01*
X58547000Y-113852289D01*
X58505063Y-113894226D01*
X58391795Y-114063744D01*
X58313774Y-114252102D01*
X58274000Y-114452061D01*
X56222500Y-114452061D01*
X56222500Y-90551000D01*
X58473539Y-90551000D01*
X58440774Y-90630102D01*
X58401000Y-90830061D01*
X58401000Y-91033939D01*
X58440774Y-91233898D01*
X58518795Y-91422256D01*
X58632063Y-91591774D01*
X58776226Y-91735937D01*
X58945744Y-91849205D01*
X59134102Y-91927226D01*
X59334061Y-91967000D01*
X59537939Y-91967000D01*
X59737898Y-91927226D01*
X59926256Y-91849205D01*
X60095774Y-91735937D01*
X60239937Y-91591774D01*
X60353205Y-91422256D01*
X60431226Y-91233898D01*
X60471000Y-91033939D01*
X60471000Y-90830061D01*
X60431226Y-90630102D01*
X60353205Y-90441744D01*
X60239937Y-90272226D01*
X60198000Y-90230289D01*
X60198000Y-90207422D01*
X60201686Y-90169999D01*
X60195432Y-90106500D01*
X60186974Y-90020622D01*
X60143402Y-89876985D01*
X60072645Y-89744608D01*
X59977422Y-89628578D01*
X59948346Y-89604716D01*
X59822721Y-89479091D01*
X59926256Y-89436205D01*
X60095774Y-89322937D01*
X60137711Y-89281000D01*
X61303577Y-89281000D01*
X61341000Y-89284686D01*
X61378423Y-89281000D01*
X61378426Y-89281000D01*
X61490378Y-89269974D01*
X61634015Y-89226402D01*
X61766392Y-89155645D01*
X61882422Y-89060422D01*
X61906284Y-89031347D01*
X62292531Y-88645100D01*
X62415614Y-88620617D01*
X62578925Y-88552971D01*
X62622677Y-88582205D01*
X62811035Y-88660226D01*
X62974906Y-88692822D01*
X63074608Y-88774645D01*
X63206985Y-88845402D01*
X63350622Y-88888974D01*
X63462574Y-88900000D01*
X63462576Y-88900000D01*
X63499999Y-88903686D01*
X63537422Y-88900000D01*
X63941289Y-88900000D01*
X63983226Y-88941937D01*
X64152744Y-89055205D01*
X64341102Y-89133226D01*
X64541061Y-89173000D01*
X64744939Y-89173000D01*
X64944898Y-89133226D01*
X65133256Y-89055205D01*
X65302774Y-88941937D01*
X65446937Y-88797774D01*
X65560205Y-88628256D01*
X65638226Y-88439898D01*
X65678000Y-88239939D01*
X65678000Y-88036061D01*
X65638226Y-87836102D01*
X65560205Y-87647744D01*
X65446937Y-87478226D01*
X65302774Y-87334063D01*
X65133256Y-87220795D01*
X64944898Y-87142774D01*
X64744939Y-87103000D01*
X64541061Y-87103000D01*
X64341102Y-87142774D01*
X64152744Y-87220795D01*
X64071656Y-87274976D01*
X64030138Y-87174744D01*
X63949460Y-87054001D01*
X65084891Y-87054001D01*
X65125441Y-87057995D01*
X65165991Y-87054001D01*
X65165994Y-87054001D01*
X65287267Y-87042057D01*
X65442875Y-86994854D01*
X65586283Y-86918200D01*
X65711982Y-86815042D01*
X65737839Y-86783535D01*
X66119418Y-86401956D01*
X66196992Y-86434581D01*
X66382260Y-86472475D01*
X66571361Y-86473497D01*
X66757028Y-86437608D01*
X66932126Y-86366187D01*
X66941323Y-86361270D01*
X66954931Y-86165536D01*
X66559639Y-85770244D01*
X66592000Y-85607552D01*
X66592000Y-85418448D01*
X66591171Y-85414281D01*
X66675748Y-85498858D01*
X66661605Y-85513000D01*
X66763095Y-85614490D01*
X66782108Y-85659343D01*
X66913940Y-85853169D01*
X67081052Y-86017552D01*
X67277023Y-86146174D01*
X67494321Y-86234093D01*
X67521627Y-86234776D01*
X67705000Y-86109392D01*
X67705000Y-84660000D01*
X67959000Y-84660000D01*
X67959000Y-86109392D01*
X68142373Y-86234776D01*
X68169679Y-86234093D01*
X68386977Y-86146174D01*
X68582948Y-86017552D01*
X68750060Y-85853169D01*
X68881892Y-85659343D01*
X68973377Y-85443522D01*
X69021000Y-85214000D01*
X69021000Y-84660000D01*
X67959000Y-84660000D01*
X67705000Y-84660000D01*
X67685000Y-84660000D01*
X67685000Y-84406000D01*
X67705000Y-84406000D01*
X67705000Y-82956608D01*
X67538849Y-82843000D01*
X67705000Y-82729392D01*
X67705000Y-81280000D01*
X67959000Y-81280000D01*
X67959000Y-82729392D01*
X68125151Y-82843000D01*
X67959000Y-82956608D01*
X67959000Y-84406000D01*
X69021000Y-84406000D01*
X69021000Y-83854843D01*
X92535723Y-83854843D01*
X92537500Y-83880610D01*
X92537500Y-83993345D01*
X92549401Y-84053175D01*
X92587619Y-84607340D01*
X92630816Y-84863542D01*
X92754041Y-85187592D01*
X92938119Y-85481377D01*
X93175974Y-85733604D01*
X93458466Y-85934582D01*
X93774739Y-86076587D01*
X94112638Y-86154161D01*
X94459177Y-86164324D01*
X94801041Y-86106684D01*
X95125092Y-85983459D01*
X95418876Y-85799381D01*
X95671104Y-85561526D01*
X95872081Y-85279034D01*
X96014087Y-84962762D01*
X96091660Y-84624863D01*
X96099277Y-84365156D01*
X96057500Y-83759387D01*
X96057500Y-83646655D01*
X96028705Y-83501892D01*
X96004184Y-83356459D01*
X95994942Y-83332154D01*
X95989864Y-83306627D01*
X95933379Y-83170260D01*
X95880959Y-83032408D01*
X95867152Y-83010372D01*
X95857192Y-82986327D01*
X95775184Y-82863593D01*
X95696881Y-82738624D01*
X95679041Y-82719706D01*
X95664581Y-82698065D01*
X95560205Y-82593689D01*
X95459026Y-82486396D01*
X95437838Y-82471322D01*
X95419435Y-82452919D01*
X95296691Y-82370904D01*
X95176534Y-82285419D01*
X95152817Y-82274770D01*
X95131173Y-82260308D01*
X94994798Y-82203820D01*
X94860261Y-82143413D01*
X94834914Y-82137594D01*
X94810873Y-82127636D01*
X94666106Y-82098840D01*
X94522362Y-82065840D01*
X94496372Y-82065078D01*
X94470845Y-82060000D01*
X94323249Y-82060000D01*
X94175823Y-82055676D01*
X94150177Y-82060000D01*
X94124155Y-82060000D01*
X93979392Y-82088795D01*
X93833959Y-82113316D01*
X93809654Y-82122558D01*
X93784127Y-82127636D01*
X93647760Y-82184121D01*
X93509908Y-82236541D01*
X93487872Y-82250348D01*
X93463827Y-82260308D01*
X93341093Y-82342316D01*
X93216124Y-82420619D01*
X93197206Y-82438459D01*
X93175565Y-82452919D01*
X93071189Y-82557295D01*
X92963896Y-82658474D01*
X92948822Y-82679662D01*
X92930419Y-82698065D01*
X92848404Y-82820809D01*
X92762919Y-82940966D01*
X92752270Y-82964683D01*
X92737808Y-82986327D01*
X92681320Y-83122702D01*
X92620913Y-83257239D01*
X92615094Y-83282586D01*
X92605136Y-83306627D01*
X92576340Y-83451394D01*
X92543340Y-83595138D01*
X92542578Y-83621128D01*
X92537500Y-83646655D01*
X92537500Y-83794255D01*
X92535723Y-83854843D01*
X69021000Y-83854843D01*
X69021000Y-83852000D01*
X68973377Y-83622478D01*
X68881892Y-83406657D01*
X68750060Y-83212831D01*
X68582948Y-83048448D01*
X68386977Y-82919826D01*
X68197096Y-82843000D01*
X68386977Y-82766174D01*
X68582948Y-82637552D01*
X68750060Y-82473169D01*
X68881892Y-82279343D01*
X68973377Y-82063522D01*
X69021000Y-81834000D01*
X69021000Y-81280000D01*
X67959000Y-81280000D01*
X67705000Y-81280000D01*
X66643000Y-81280000D01*
X66643000Y-81834000D01*
X66690623Y-82063522D01*
X66782108Y-82279343D01*
X66913940Y-82473169D01*
X67081052Y-82637552D01*
X67277023Y-82766174D01*
X67466904Y-82843000D01*
X67277023Y-82919826D01*
X67081052Y-83048448D01*
X66913940Y-83212831D01*
X66866139Y-83283110D01*
X66767008Y-83241419D01*
X66581740Y-83203525D01*
X66392639Y-83202503D01*
X66206972Y-83238392D01*
X66056538Y-83299753D01*
X65912022Y-83239892D01*
X65726552Y-83203000D01*
X65537448Y-83203000D01*
X65351978Y-83239892D01*
X65207000Y-83299944D01*
X65062022Y-83239892D01*
X64876552Y-83203000D01*
X64687448Y-83203000D01*
X64501978Y-83239892D01*
X64357000Y-83299944D01*
X64212022Y-83239892D01*
X64026552Y-83203000D01*
X63837448Y-83203000D01*
X63651978Y-83239892D01*
X63507000Y-83299944D01*
X63362022Y-83239892D01*
X63176552Y-83203000D01*
X62987448Y-83203000D01*
X62801978Y-83239892D01*
X62657000Y-83299944D01*
X62512022Y-83239892D01*
X62326552Y-83203000D01*
X62137448Y-83203000D01*
X61951978Y-83239892D01*
X61807000Y-83299944D01*
X61662022Y-83239892D01*
X61476552Y-83203000D01*
X61287448Y-83203000D01*
X61101978Y-83239892D01*
X60956580Y-83300118D01*
X60817008Y-83241419D01*
X60631740Y-83203525D01*
X60620561Y-83203465D01*
X60658132Y-83014580D01*
X60658132Y-82810702D01*
X60618358Y-82610743D01*
X60540337Y-82422385D01*
X60427069Y-82252867D01*
X60297878Y-82123676D01*
X60323377Y-82063522D01*
X60371000Y-81834000D01*
X60371000Y-81280000D01*
X59309000Y-81280000D01*
X59309000Y-81300000D01*
X59055000Y-81300000D01*
X59055000Y-81280000D01*
X57993000Y-81280000D01*
X57993000Y-81834000D01*
X58040623Y-82063522D01*
X58132108Y-82279343D01*
X58263940Y-82473169D01*
X58312260Y-82520700D01*
X58291784Y-82545649D01*
X57653649Y-83183785D01*
X57624579Y-83207642D01*
X57600722Y-83236712D01*
X57600721Y-83236713D01*
X57529355Y-83323672D01*
X57458599Y-83456049D01*
X57415027Y-83599686D01*
X57400314Y-83749064D01*
X57404001Y-83786497D01*
X57404000Y-84520369D01*
X56222500Y-85701870D01*
X56222500Y-80994779D01*
X56243269Y-80782962D01*
X56295410Y-80610263D01*
X56380102Y-80450982D01*
X56494119Y-80311181D01*
X56633117Y-80196192D01*
X56791805Y-80110390D01*
X56964135Y-80057045D01*
X57173880Y-80035000D01*
X58128571Y-80035000D01*
X58040623Y-80242478D01*
G36*
X59309000Y-84406000D02*
G01*
X59329000Y-84406000D01*
X59329000Y-84660000D01*
X59309000Y-84660000D01*
X59309000Y-86109392D01*
X59492373Y-86234776D01*
X59519679Y-86234093D01*
X59736977Y-86146174D01*
X59932948Y-86017552D01*
X60100060Y-85853169D01*
X60231892Y-85659343D01*
X60250905Y-85614490D01*
X60352395Y-85513000D01*
X60338253Y-85498858D01*
X60422829Y-85414281D01*
X60422000Y-85418448D01*
X60422000Y-85607552D01*
X60454361Y-85770244D01*
X60059069Y-86165536D01*
X60072677Y-86361270D01*
X60246992Y-86434581D01*
X60432260Y-86472475D01*
X60621361Y-86473497D01*
X60671040Y-86463894D01*
X60678921Y-86473497D01*
X60754459Y-86565541D01*
X60785965Y-86591397D01*
X60978107Y-86783540D01*
X61003960Y-86815042D01*
X61129659Y-86918200D01*
X61273067Y-86994854D01*
X61287349Y-86999186D01*
X61196511Y-87135135D01*
X61118490Y-87323493D01*
X61078716Y-87523452D01*
X61078716Y-87703654D01*
X61025370Y-87757000D01*
X60137711Y-87757000D01*
X60095774Y-87715063D01*
X59926256Y-87601795D01*
X59737898Y-87523774D01*
X59537939Y-87484000D01*
X59334061Y-87484000D01*
X59134102Y-87523774D01*
X58945744Y-87601795D01*
X58776226Y-87715063D01*
X58632063Y-87859226D01*
X58518795Y-88028744D01*
X58440774Y-88217102D01*
X58401000Y-88417061D01*
X58401000Y-88620939D01*
X58440774Y-88820898D01*
X58518795Y-89009256D01*
X58530651Y-89027000D01*
X56769000Y-89027000D01*
X56769000Y-87310630D01*
X58248768Y-85830863D01*
X58263940Y-85853169D01*
X58431052Y-86017552D01*
X58627023Y-86146174D01*
X58844321Y-86234093D01*
X58871627Y-86234776D01*
X59055000Y-86109392D01*
X59055000Y-84660000D01*
X59035000Y-84660000D01*
X59035000Y-84406000D01*
X59055000Y-84406000D01*
X59055000Y-84386000D01*
X59309000Y-84386000D01*
X59309000Y-84406000D01*
G37*
X59309000Y-84406000D02*
X59329000Y-84406000D01*
X59329000Y-84660000D01*
X59309000Y-84660000D01*
X59309000Y-86109392D01*
X59492373Y-86234776D01*
X59519679Y-86234093D01*
X59736977Y-86146174D01*
X59932948Y-86017552D01*
X60100060Y-85853169D01*
X60231892Y-85659343D01*
X60250905Y-85614490D01*
X60352395Y-85513000D01*
X60338253Y-85498858D01*
X60422829Y-85414281D01*
X60422000Y-85418448D01*
X60422000Y-85607552D01*
X60454361Y-85770244D01*
X60059069Y-86165536D01*
X60072677Y-86361270D01*
X60246992Y-86434581D01*
X60432260Y-86472475D01*
X60621361Y-86473497D01*
X60671040Y-86463894D01*
X60678921Y-86473497D01*
X60754459Y-86565541D01*
X60785965Y-86591397D01*
X60978107Y-86783540D01*
X61003960Y-86815042D01*
X61129659Y-86918200D01*
X61273067Y-86994854D01*
X61287349Y-86999186D01*
X61196511Y-87135135D01*
X61118490Y-87323493D01*
X61078716Y-87523452D01*
X61078716Y-87703654D01*
X61025370Y-87757000D01*
X60137711Y-87757000D01*
X60095774Y-87715063D01*
X59926256Y-87601795D01*
X59737898Y-87523774D01*
X59537939Y-87484000D01*
X59334061Y-87484000D01*
X59134102Y-87523774D01*
X58945744Y-87601795D01*
X58776226Y-87715063D01*
X58632063Y-87859226D01*
X58518795Y-88028744D01*
X58440774Y-88217102D01*
X58401000Y-88417061D01*
X58401000Y-88620939D01*
X58440774Y-88820898D01*
X58518795Y-89009256D01*
X58530651Y-89027000D01*
X56769000Y-89027000D01*
X56769000Y-87310630D01*
X58248768Y-85830863D01*
X58263940Y-85853169D01*
X58431052Y-86017552D01*
X58627023Y-86146174D01*
X58844321Y-86234093D01*
X58871627Y-86234776D01*
X59055000Y-86109392D01*
X59055000Y-84660000D01*
X59035000Y-84660000D01*
X59035000Y-84406000D01*
X59055000Y-84406000D01*
X59055000Y-84386000D01*
X59309000Y-84386000D01*
X59309000Y-84406000D01*
G36*
X60422000Y-84068448D02*
G01*
X60422000Y-84257552D01*
X60422829Y-84261719D01*
X60371000Y-84209890D01*
X60371000Y-84116110D01*
X60422829Y-84064281D01*
X60422000Y-84068448D01*
G37*
X60422000Y-84068448D02*
X60422000Y-84257552D01*
X60422829Y-84261719D01*
X60371000Y-84209890D01*
X60371000Y-84116110D01*
X60422829Y-84064281D01*
X60422000Y-84068448D01*
G36*
X66643000Y-84116110D02*
G01*
X66643000Y-84209890D01*
X66591171Y-84261719D01*
X66592000Y-84257552D01*
X66592000Y-84068448D01*
X66591171Y-84064281D01*
X66643000Y-84116110D01*
G37*
X66643000Y-84116110D02*
X66643000Y-84209890D01*
X66591171Y-84261719D01*
X66592000Y-84257552D01*
X66592000Y-84068448D01*
X66591171Y-84064281D01*
X66643000Y-84116110D01*
%TD*%
M02*
