%TF.GenerationSoftware,KiCad,Pcbnew,(5.1.6)-1*%
%TF.CreationDate,2020-08-29T20:45:41-05:00*%
%TF.ProjectId,je03-pcb-guide,6a653033-2d70-4636-922d-67756964652e,rev?*%
%TF.SameCoordinates,Original*%
%TF.FileFunction,Copper,L1,Top*%
%TF.FilePolarity,Positive*%
%FSLAX46Y46*%
G04 Gerber Fmt 4.6, Leading zero omitted, Abs format (unit mm)*
G04 Created by KiCad (PCBNEW (5.1.6)-1) date 2020-08-29 20:45:41*
%MOMM*%
%LPD*%
G01*
G04 APERTURE LIST*
%TA.AperFunction,NonConductor*%
%ADD10C,0.300000*%
%TD*%
%TA.AperFunction,ComponentPad*%
%ADD11O,1.700000X2.700000*%
%TD*%
%TA.AperFunction,ComponentPad*%
%ADD12C,2.250000*%
%TD*%
%TA.AperFunction,ViaPad*%
%ADD13C,0.800000*%
%TD*%
%TA.AperFunction,Conductor*%
%ADD14C,0.381000*%
%TD*%
%TA.AperFunction,Conductor*%
%ADD15C,0.254000*%
%TD*%
G04 APERTURE END LIST*
D10*
X100712428Y-114359571D02*
X100712428Y-115645285D01*
X100641000Y-115788142D01*
X100498142Y-115859571D01*
X100426714Y-115859571D01*
X100712428Y-113859571D02*
X100641000Y-113931000D01*
X100712428Y-114002428D01*
X100783857Y-113931000D01*
X100712428Y-113859571D01*
X100712428Y-114002428D01*
X101998142Y-115288142D02*
X101855285Y-115359571D01*
X101569571Y-115359571D01*
X101426714Y-115288142D01*
X101355285Y-115145285D01*
X101355285Y-114573857D01*
X101426714Y-114431000D01*
X101569571Y-114359571D01*
X101855285Y-114359571D01*
X101998142Y-114431000D01*
X102069571Y-114573857D01*
X102069571Y-114716714D01*
X101355285Y-114859571D01*
X102998142Y-113859571D02*
X103141000Y-113859571D01*
X103283857Y-113931000D01*
X103355285Y-114002428D01*
X103426714Y-114145285D01*
X103498142Y-114431000D01*
X103498142Y-114788142D01*
X103426714Y-115073857D01*
X103355285Y-115216714D01*
X103283857Y-115288142D01*
X103141000Y-115359571D01*
X102998142Y-115359571D01*
X102855285Y-115288142D01*
X102783857Y-115216714D01*
X102712428Y-115073857D01*
X102641000Y-114788142D01*
X102641000Y-114431000D01*
X102712428Y-114145285D01*
X102783857Y-114002428D01*
X102855285Y-113931000D01*
X102998142Y-113859571D01*
X103998142Y-113859571D02*
X104926714Y-113859571D01*
X104426714Y-114431000D01*
X104641000Y-114431000D01*
X104783857Y-114502428D01*
X104855285Y-114573857D01*
X104926714Y-114716714D01*
X104926714Y-115073857D01*
X104855285Y-115216714D01*
X104783857Y-115288142D01*
X104641000Y-115359571D01*
X104212428Y-115359571D01*
X104069571Y-115288142D01*
X103998142Y-115216714D01*
X105569571Y-114788142D02*
X106712428Y-114788142D01*
X107426714Y-114359571D02*
X107426714Y-115859571D01*
X107426714Y-114431000D02*
X107569571Y-114359571D01*
X107855285Y-114359571D01*
X107998142Y-114431000D01*
X108069571Y-114502428D01*
X108141000Y-114645285D01*
X108141000Y-115073857D01*
X108069571Y-115216714D01*
X107998142Y-115288142D01*
X107855285Y-115359571D01*
X107569571Y-115359571D01*
X107426714Y-115288142D01*
X109426714Y-115288142D02*
X109283857Y-115359571D01*
X108998142Y-115359571D01*
X108855285Y-115288142D01*
X108783857Y-115216714D01*
X108712428Y-115073857D01*
X108712428Y-114645285D01*
X108783857Y-114502428D01*
X108855285Y-114431000D01*
X108998142Y-114359571D01*
X109283857Y-114359571D01*
X109426714Y-114431000D01*
X110069571Y-115359571D02*
X110069571Y-113859571D01*
X110069571Y-114431000D02*
X110212428Y-114359571D01*
X110498142Y-114359571D01*
X110641000Y-114431000D01*
X110712428Y-114502428D01*
X110783857Y-114645285D01*
X110783857Y-115073857D01*
X110712428Y-115216714D01*
X110641000Y-115288142D01*
X110498142Y-115359571D01*
X110212428Y-115359571D01*
X110069571Y-115288142D01*
X111426714Y-114788142D02*
X112569571Y-114788142D01*
X113283857Y-115359571D02*
X113283857Y-114359571D01*
X113283857Y-114502428D02*
X113355285Y-114431000D01*
X113498142Y-114359571D01*
X113712428Y-114359571D01*
X113855285Y-114431000D01*
X113926714Y-114573857D01*
X113926714Y-115359571D01*
X113926714Y-114573857D02*
X113998142Y-114431000D01*
X114141000Y-114359571D01*
X114355285Y-114359571D01*
X114498142Y-114431000D01*
X114569571Y-114573857D01*
X114569571Y-115359571D01*
X115926714Y-115359571D02*
X115926714Y-114573857D01*
X115855285Y-114431000D01*
X115712428Y-114359571D01*
X115426714Y-114359571D01*
X115283857Y-114431000D01*
X115926714Y-115288142D02*
X115783857Y-115359571D01*
X115426714Y-115359571D01*
X115283857Y-115288142D01*
X115212428Y-115145285D01*
X115212428Y-115002428D01*
X115283857Y-114859571D01*
X115426714Y-114788142D01*
X115783857Y-114788142D01*
X115926714Y-114716714D01*
X117283857Y-115288142D02*
X117141000Y-115359571D01*
X116855285Y-115359571D01*
X116712428Y-115288142D01*
X116641000Y-115216714D01*
X116569571Y-115073857D01*
X116569571Y-114645285D01*
X116641000Y-114502428D01*
X116712428Y-114431000D01*
X116855285Y-114359571D01*
X117141000Y-114359571D01*
X117283857Y-114431000D01*
X117926714Y-115359571D02*
X117926714Y-114359571D01*
X117926714Y-114645285D02*
X117998142Y-114502428D01*
X118069571Y-114431000D01*
X118212428Y-114359571D01*
X118355285Y-114359571D01*
X119069571Y-115359571D02*
X118926714Y-115288142D01*
X118855285Y-115216714D01*
X118783857Y-115073857D01*
X118783857Y-114645285D01*
X118855285Y-114502428D01*
X118926714Y-114431000D01*
X119069571Y-114359571D01*
X119283857Y-114359571D01*
X119426714Y-114431000D01*
X119498142Y-114502428D01*
X119569571Y-114645285D01*
X119569571Y-115073857D01*
X119498142Y-115216714D01*
X119426714Y-115288142D01*
X119283857Y-115359571D01*
X119069571Y-115359571D01*
X120212428Y-114359571D02*
X120212428Y-115859571D01*
X120212428Y-114431000D02*
X120355285Y-114359571D01*
X120641000Y-114359571D01*
X120783857Y-114431000D01*
X120855285Y-114502428D01*
X120926714Y-114645285D01*
X120926714Y-115073857D01*
X120855285Y-115216714D01*
X120783857Y-115288142D01*
X120641000Y-115359571D01*
X120355285Y-115359571D01*
X120212428Y-115288142D01*
X122212428Y-115359571D02*
X122212428Y-114573857D01*
X122141000Y-114431000D01*
X121998142Y-114359571D01*
X121712428Y-114359571D01*
X121569571Y-114431000D01*
X122212428Y-115288142D02*
X122069571Y-115359571D01*
X121712428Y-115359571D01*
X121569571Y-115288142D01*
X121498142Y-115145285D01*
X121498142Y-115002428D01*
X121569571Y-114859571D01*
X121712428Y-114788142D01*
X122069571Y-114788142D01*
X122212428Y-114716714D01*
X123569571Y-115359571D02*
X123569571Y-113859571D01*
X123569571Y-115288142D02*
X123426714Y-115359571D01*
X123141000Y-115359571D01*
X122998142Y-115288142D01*
X122926714Y-115216714D01*
X122855285Y-115073857D01*
X122855285Y-114645285D01*
X122926714Y-114502428D01*
X122998142Y-114431000D01*
X123141000Y-114359571D01*
X123426714Y-114359571D01*
X123569571Y-114431000D01*
D11*
%TO.P,USB1,6*%
%TO.N,Net-(USB1-Pad6)*%
X60028000Y-81098000D03*
X67328000Y-81098000D03*
X67328000Y-85598000D03*
X60028000Y-85598000D03*
%TD*%
D12*
%TO.P,MX4,1*%
%TO.N,COL1*%
X113387500Y-103950000D03*
%TA.AperFunction,ComponentPad*%
G36*
G01*
X111326183Y-106247345D02*
X111326183Y-106247345D01*
G75*
G02*
X111240155Y-104658683I751317J837345D01*
G01*
X112550157Y-103198683D01*
G75*
G02*
X114138819Y-103112655I837345J-751317D01*
G01*
X114138819Y-103112655D01*
G75*
G02*
X114224847Y-104701317I-751317J-837345D01*
G01*
X112914845Y-106161317D01*
G75*
G02*
X111326183Y-106247345I-837345J751317D01*
G01*
G37*
%TD.AperFunction*%
%TO.P,MX4,2*%
%TO.N,Net-(D4-Pad2)*%
X118427500Y-102870000D03*
%TA.AperFunction,ComponentPad*%
G36*
G01*
X118310097Y-104572334D02*
X118310097Y-104572334D01*
G75*
G02*
X117265166Y-103372597I77403J1122334D01*
G01*
X117305166Y-102792597D01*
G75*
G02*
X118504903Y-101747666I1122334J-77403D01*
G01*
X118504903Y-101747666D01*
G75*
G02*
X119549834Y-102947403I-77403J-1122334D01*
G01*
X119509834Y-103527403D01*
G75*
G02*
X118310097Y-104572334I-1122334J77403D01*
G01*
G37*
%TD.AperFunction*%
%TD*%
%TO.P,MX3,1*%
%TO.N,COL0*%
X94337500Y-103950000D03*
%TA.AperFunction,ComponentPad*%
G36*
G01*
X92276183Y-106247345D02*
X92276183Y-106247345D01*
G75*
G02*
X92190155Y-104658683I751317J837345D01*
G01*
X93500157Y-103198683D01*
G75*
G02*
X95088819Y-103112655I837345J-751317D01*
G01*
X95088819Y-103112655D01*
G75*
G02*
X95174847Y-104701317I-751317J-837345D01*
G01*
X93864845Y-106161317D01*
G75*
G02*
X92276183Y-106247345I-837345J751317D01*
G01*
G37*
%TD.AperFunction*%
%TO.P,MX3,2*%
%TO.N,Net-(D3-Pad2)*%
X99377500Y-102870000D03*
%TA.AperFunction,ComponentPad*%
G36*
G01*
X99260097Y-104572334D02*
X99260097Y-104572334D01*
G75*
G02*
X98215166Y-103372597I77403J1122334D01*
G01*
X98255166Y-102792597D01*
G75*
G02*
X99454903Y-101747666I1122334J-77403D01*
G01*
X99454903Y-101747666D01*
G75*
G02*
X100499834Y-102947403I-77403J-1122334D01*
G01*
X100459834Y-103527403D01*
G75*
G02*
X99260097Y-104572334I-1122334J77403D01*
G01*
G37*
%TD.AperFunction*%
%TD*%
%TO.P,MX2,1*%
%TO.N,COL1*%
X113387500Y-84900000D03*
%TA.AperFunction,ComponentPad*%
G36*
G01*
X111326183Y-87197345D02*
X111326183Y-87197345D01*
G75*
G02*
X111240155Y-85608683I751317J837345D01*
G01*
X112550157Y-84148683D01*
G75*
G02*
X114138819Y-84062655I837345J-751317D01*
G01*
X114138819Y-84062655D01*
G75*
G02*
X114224847Y-85651317I-751317J-837345D01*
G01*
X112914845Y-87111317D01*
G75*
G02*
X111326183Y-87197345I-837345J751317D01*
G01*
G37*
%TD.AperFunction*%
%TO.P,MX2,2*%
%TO.N,Net-(D2-Pad2)*%
X118427500Y-83820000D03*
%TA.AperFunction,ComponentPad*%
G36*
G01*
X118310097Y-85522334D02*
X118310097Y-85522334D01*
G75*
G02*
X117265166Y-84322597I77403J1122334D01*
G01*
X117305166Y-83742597D01*
G75*
G02*
X118504903Y-82697666I1122334J-77403D01*
G01*
X118504903Y-82697666D01*
G75*
G02*
X119549834Y-83897403I-77403J-1122334D01*
G01*
X119509834Y-84477403D01*
G75*
G02*
X118310097Y-85522334I-1122334J77403D01*
G01*
G37*
%TD.AperFunction*%
%TD*%
%TO.P,MX1,1*%
%TO.N,COL0*%
X94337500Y-84900000D03*
%TA.AperFunction,ComponentPad*%
G36*
G01*
X92276183Y-87197345D02*
X92276183Y-87197345D01*
G75*
G02*
X92190155Y-85608683I751317J837345D01*
G01*
X93500157Y-84148683D01*
G75*
G02*
X95088819Y-84062655I837345J-751317D01*
G01*
X95088819Y-84062655D01*
G75*
G02*
X95174847Y-85651317I-751317J-837345D01*
G01*
X93864845Y-87111317D01*
G75*
G02*
X92276183Y-87197345I-837345J751317D01*
G01*
G37*
%TD.AperFunction*%
%TO.P,MX1,2*%
%TO.N,Net-(D1-Pad2)*%
X99377500Y-83820000D03*
%TA.AperFunction,ComponentPad*%
G36*
G01*
X99260097Y-85522334D02*
X99260097Y-85522334D01*
G75*
G02*
X98215166Y-84322597I77403J1122334D01*
G01*
X98255166Y-83742597D01*
G75*
G02*
X99454903Y-82697666I1122334J-77403D01*
G01*
X99454903Y-82697666D01*
G75*
G02*
X100499834Y-83897403I-77403J-1122334D01*
G01*
X100459834Y-84477403D01*
G75*
G02*
X99260097Y-85522334I-1122334J77403D01*
G01*
G37*
%TD.AperFunction*%
%TD*%
D13*
%TO.N,GND*%
X64395067Y-98799933D03*
X62865000Y-104140000D03*
%TO.N,+5V*%
X67691000Y-101981000D03*
X71755000Y-108966000D03*
X79883000Y-108966000D03*
X67691000Y-97663000D03*
X71120000Y-88392000D03*
X86106000Y-94488000D03*
%TO.N,Net-(R1-Pad2)*%
X59309000Y-114554000D03*
X67564000Y-90170000D03*
%TD*%
D14*
%TO.N,GND*%
X64395067Y-98799933D02*
X62865000Y-100330000D01*
X62865000Y-100330000D02*
X62865000Y-104013000D01*
X62865000Y-104013000D02*
X62865000Y-104140000D01*
%TO.N,+5V*%
X67691000Y-101981000D02*
X67691000Y-106934000D01*
X67691000Y-106934000D02*
X70485000Y-109728000D01*
X71755000Y-109728000D02*
X71755000Y-109093000D01*
X70485000Y-109728000D02*
X71755000Y-109728000D01*
X71755000Y-109093000D02*
X71755000Y-108966000D01*
X71755000Y-109728000D02*
X75819000Y-109728000D01*
X79121000Y-109728000D02*
X75819000Y-109728000D01*
X79883000Y-108966000D02*
X79121000Y-109728000D01*
X67691000Y-101981000D02*
X67691000Y-97663000D01*
X67691000Y-97663000D02*
X67691000Y-93472000D01*
X67691000Y-93472000D02*
X68580000Y-92583000D01*
X68580000Y-92583000D02*
X68580000Y-89027000D01*
X68580000Y-89027000D02*
X69215000Y-88392000D01*
X69215000Y-88392000D02*
X71120000Y-88392000D01*
X71120000Y-88392000D02*
X73406000Y-88392000D01*
X73406000Y-88392000D02*
X75946000Y-90932000D01*
X75946000Y-90932000D02*
X82296000Y-90932000D01*
X82296000Y-90932000D02*
X85090000Y-90932000D01*
X85090000Y-90932000D02*
X86106000Y-91948000D01*
X86106000Y-91948000D02*
X86106000Y-94488000D01*
D15*
%TO.N,COL0*%
X94337500Y-103950000D02*
X94298000Y-103950000D01*
X94298000Y-103950000D02*
X93599000Y-103251000D01*
X93599000Y-103251000D02*
X93599000Y-87122000D01*
%TO.N,COL1*%
X113387500Y-103950000D02*
X113387500Y-103608500D01*
X113387500Y-103950000D02*
X113221000Y-103950000D01*
X113221000Y-103950000D02*
X112649000Y-103378000D01*
X112649000Y-103378000D02*
X112649000Y-87122000D01*
%TO.N,Net-(R1-Pad2)*%
X59309000Y-114554000D02*
X59309000Y-95504000D01*
X59309000Y-95504000D02*
X60198000Y-94615000D01*
X60198000Y-94615000D02*
X65405000Y-94615000D01*
X65405000Y-94615000D02*
X67564000Y-92456000D01*
X67564000Y-92456000D02*
X67564000Y-91440000D01*
X67564000Y-91440000D02*
X67564000Y-90170000D01*
%TD*%
M02*
